<svg width="36" height="36" viewBox="0 0 36 36" fill="none" xmlns="http://www.w3.org/2000/svg">
<rect x="0.75" y="0.75" width="34.5" height="34.5" rx="17.25" fill="white"/>
<path d="M25.5 18C25.5 16.897 24.6591 16 23.625 16H22.6875V13C22.6875 10.243 20.5847 8 18 8C15.4153 8 13.3125 10.243 13.3125 13V16H12.375C11.3409 16 10.5 16.897 10.5 18V26C10.5 27.103 11.3409 28 12.375 28H23.625C24.6591 28 25.5 27.103 25.5 26V18ZM15.1875 13C15.1875 11.346 16.4494 10 18 10C19.5506 10 20.8125 11.346 20.8125 13V16H15.1875V13Z" fill="black"/>
<rect x="0.75" y="0.75" width="34.5" height="34.5" rx="17.25" stroke="black" stroke-width="1.5"/>
</svg>
