<svg width="37" height="36" viewBox="0 0 37 36" fill="none" xmlns="http://www.w3.org/2000/svg">
<rect x="1.25" y="0.75" width="34.5" height="34.5" rx="17.25" fill="white"/>
<path d="M26 18C26 16.897 25.1591 16 24.125 16H23.1875V13C23.1875 10.243 21.0847 8 18.5 8C15.9153 8 13.8125 10.243 13.8125 13V16H12.875C11.8409 16 11 16.897 11 18V26C11 27.103 11.8409 28 12.875 28H24.125C25.1591 28 26 27.103 26 26V18ZM15.6875 13C15.6875 11.346 16.9494 10 18.5 10C20.0506 10 21.3125 11.346 21.3125 13V16H15.6875V13Z" fill="#8C81F7"/>
<rect x="1.25" y="0.75" width="34.5" height="34.5" rx="17.25" stroke="#8C81F7" stroke-width="1.5"/>
</svg>
