<svg width="18" height="11" viewBox="0 0 18 11" fill="none" xmlns="http://www.w3.org/2000/svg">
<path d="M17.2667 1.01667C17.1821 0.813042 17.0203 0.651229 16.8167 0.566667C16.7165 0.523966 16.6089 0.501317 16.5 0.5H12.3334C12.1124 0.5 11.9004 0.587798 11.7441 0.744078C11.5878 0.900358 11.5 1.11232 11.5 1.33333C11.5 1.55435 11.5878 1.76631 11.7441 1.92259C11.9004 2.07887 12.1124 2.16667 12.3334 2.16667H14.4917L9.83336 6.825L7.0917 4.075C7.01423 3.99689 6.92206 3.9349 6.82051 3.89259C6.71896 3.85028 6.61004 3.8285 6.50003 3.8285C6.39002 3.8285 6.2811 3.85028 6.17955 3.89259C6.078 3.9349 5.98583 3.99689 5.90836 4.075L0.908364 9.075C0.830257 9.15247 0.768262 9.24464 0.725954 9.34619C0.683647 9.44774 0.661865 9.55666 0.661865 9.66667C0.661865 9.77668 0.683647 9.8856 0.725954 9.98715C0.768262 10.0887 0.830257 10.1809 0.908364 10.2583C0.985833 10.3364 1.078 10.3984 1.17955 10.4407C1.2811 10.4831 1.39002 10.5048 1.50003 10.5048C1.61004 10.5048 1.71896 10.4831 1.82051 10.4407C1.92206 10.3984 2.01423 10.3364 2.0917 10.2583L6.50003 5.84167L9.2417 8.59167C9.31917 8.66977 9.41133 8.73177 9.51288 8.77408C9.61443 8.81638 9.72335 8.83817 9.83336 8.83817C9.94337 8.83817 10.0523 8.81638 10.1538 8.77408C10.2554 8.73177 10.3476 8.66977 10.425 8.59167L15.6667 3.34167V5.5C15.6667 5.72101 15.7545 5.93298 15.9108 6.08926C16.0671 6.24554 16.279 6.33333 16.5 6.33333C16.721 6.33333 16.933 6.24554 17.0893 6.08926C17.2456 5.93298 17.3334 5.72101 17.3334 5.5V1.33333C17.332 1.22444 17.3094 1.11685 17.2667 1.01667V1.01667Z" fill="white"/>
</svg>
