<svg width="20" height="21" viewBox="0 0 20 21" fill="none" xmlns="http://www.w3.org/2000/svg">
<path d="M18.2667 6.01667C18.1821 5.81304 18.0203 5.65123 17.8167 5.56667C17.7165 5.52397 17.6089 5.50132 17.5 5.5H13.3334C13.1124 5.5 12.9004 5.5878 12.7441 5.74408C12.5878 5.90036 12.5 6.11232 12.5 6.33333C12.5 6.55435 12.5878 6.76631 12.7441 6.92259C12.9004 7.07887 13.1124 7.16667 13.3334 7.16667H15.4917L10.8334 11.825L8.0917 9.075C8.01423 8.99689 7.92206 8.9349 7.82051 8.89259C7.71896 8.85028 7.61004 8.8285 7.50003 8.8285C7.39002 8.8285 7.2811 8.85028 7.17955 8.89259C7.078 8.9349 6.98583 8.99689 6.90836 9.075L1.90836 14.075C1.83026 14.1525 1.76826 14.2446 1.72595 14.3462C1.68365 14.4477 1.66187 14.5567 1.66187 14.6667C1.66187 14.7767 1.68365 14.8856 1.72595 14.9871C1.76826 15.0887 1.83026 15.1809 1.90836 15.2583C1.98583 15.3364 2.078 15.3984 2.17955 15.4407C2.2811 15.4831 2.39002 15.5048 2.50003 15.5048C2.61004 15.5048 2.71896 15.4831 2.82051 15.4407C2.92206 15.3984 3.01423 15.3364 3.0917 15.2583L7.50003 10.8417L10.2417 13.5917C10.3192 13.6698 10.4113 13.7318 10.5129 13.7741C10.6144 13.8164 10.7234 13.8382 10.8334 13.8382C10.9434 13.8382 11.0523 13.8164 11.1538 13.7741C11.2554 13.7318 11.3476 13.6698 11.425 13.5917L16.6667 8.34167V10.5C16.6667 10.721 16.7545 10.933 16.9108 11.0893C17.0671 11.2455 17.279 11.3333 17.5 11.3333C17.721 11.3333 17.933 11.2455 18.0893 11.0893C18.2456 10.933 18.3334 10.721 18.3334 10.5V6.33333C18.332 6.22444 18.3094 6.11685 18.2667 6.01667Z" fill="#8C81F7"/>
</svg>
