<svg width="18" height="11" viewBox="0 0 18 11" fill="none" xmlns="http://www.w3.org/2000/svg">
<path d="M0.733301 9.98333C0.817864 10.187 0.979677 10.3488 1.1833 10.4333C1.28349 10.476 1.39107 10.4987 1.49997 10.5H5.66664C5.88765 10.5 6.09961 10.4122 6.25589 10.2559C6.41217 10.0996 6.49997 9.88768 6.49997 9.66667C6.49997 9.44565 6.41217 9.23369 6.25589 9.07741C6.09961 8.92113 5.88765 8.83333 5.66664 8.83333H3.5083L8.16664 4.175L10.9083 6.925C10.9858 7.00311 11.0779 7.0651 11.1795 7.10741C11.281 7.14972 11.39 7.1715 11.5 7.1715C11.61 7.1715 11.7189 7.14972 11.8204 7.10741C11.922 7.0651 12.0142 7.00311 12.0916 6.925L17.0916 1.925C17.1697 1.84753 17.2317 1.75536 17.274 1.65381C17.3164 1.55226 17.3381 1.44334 17.3381 1.33333C17.3381 1.22332 17.3164 1.1144 17.274 1.01285C17.2317 0.911303 17.1697 0.819136 17.0916 0.741667C17.0142 0.66356 16.922 0.601564 16.8204 0.559257C16.7189 0.516949 16.61 0.495168 16.5 0.495168C16.39 0.495168 16.281 0.516949 16.1795 0.559257C16.0779 0.601564 15.9858 0.66356 15.9083 0.741667L11.5 5.15833L8.7583 2.40833C8.68083 2.33023 8.58867 2.26823 8.48712 2.22592C8.38557 2.18362 8.27665 2.16183 8.16664 2.16183C8.05663 2.16183 7.9477 2.18362 7.84616 2.22592C7.74461 2.26823 7.65244 2.33023 7.57497 2.40833L2.3333 7.65833V5.5C2.3333 5.27899 2.24551 5.06702 2.08922 4.91074C1.93294 4.75446 1.72098 4.66667 1.49997 4.66667C1.27895 4.66667 1.06699 4.75446 0.910713 4.91074C0.754433 5.06702 0.666636 5.27899 0.666636 5.5V9.66667C0.667952 9.77556 0.6906 9.88315 0.733301 9.98333Z" fill="white"/>
</svg>
