<svg width="20" height="21" viewBox="0 0 20 21" fill="none" xmlns="http://www.w3.org/2000/svg">
<path d="M1.7333 14.9833C1.81786 15.187 1.97968 15.3488 2.1833 15.4333C2.28349 15.476 2.39107 15.4987 2.49997 15.5H6.66664C6.88765 15.5 7.09961 15.4122 7.25589 15.2559C7.41217 15.0996 7.49997 14.8877 7.49997 14.6667C7.49997 14.4457 7.41217 14.2337 7.25589 14.0774C7.09961 13.9211 6.88765 13.8333 6.66664 13.8333H4.5083L9.16664 9.175L11.9083 11.925C11.9858 12.0031 12.0779 12.0651 12.1795 12.1074C12.281 12.1497 12.39 12.1715 12.5 12.1715C12.61 12.1715 12.7189 12.1497 12.8204 12.1074C12.922 12.0651 13.0142 12.0031 13.0916 11.925L18.0916 6.925C18.1697 6.84753 18.2317 6.75536 18.274 6.65381C18.3164 6.55226 18.3381 6.44334 18.3381 6.33333C18.3381 6.22332 18.3164 6.1144 18.274 6.01285C18.2317 5.9113 18.1697 5.81914 18.0916 5.74167C18.0142 5.66356 17.922 5.60156 17.8204 5.55926C17.7189 5.51695 17.61 5.49517 17.5 5.49517C17.39 5.49517 17.281 5.51695 17.1795 5.55926C17.0779 5.60156 16.9858 5.66356 16.9083 5.74167L12.5 10.1583L9.7583 7.40833C9.68083 7.33023 9.58867 7.26823 9.48712 7.22592C9.38557 7.18362 9.27665 7.16183 9.16664 7.16183C9.05663 7.16183 8.9477 7.18362 8.84616 7.22592C8.74461 7.26823 8.65244 7.33023 8.57497 7.40833L3.3333 12.6583V10.5C3.3333 10.279 3.24551 10.067 3.08922 9.91074C2.93294 9.75446 2.72098 9.66667 2.49997 9.66667C2.27896 9.66667 2.06699 9.75446 1.91071 9.91074C1.75443 10.067 1.66664 10.279 1.66664 10.5V14.6667C1.66795 14.7756 1.6906 14.8831 1.7333 14.9833Z" fill="#8C81F7"/>
</svg>
