<svg width="32" height="32" viewBox="0 0 32 32" fill="none" xmlns="http://www.w3.org/2000/svg">
<path d="M23.9173 23.9166L20.179 20.1716M22.2506 15.1666C22.2506 17.0452 21.5044 18.8469 20.176 20.1753C18.8476 21.5036 17.0459 22.2499 15.1673 22.2499C13.2887 22.2499 11.487 21.5036 10.1586 20.1753C8.83026 18.8469 8.08398 17.0452 8.08398 15.1666C8.08398 13.288 8.83026 11.4863 10.1586 10.1579C11.487 8.82953 13.2887 8.08325 15.1673 8.08325C17.0459 8.08325 18.8476 8.82953 20.176 10.1579C21.5044 11.4863 22.2506 13.288 22.2506 15.1666V15.1666Z" stroke="#AFAFAF" stroke-width="2" stroke-linecap="round"/>
<rect x="0.5" y="0.5" width="31" height="31" rx="15.5" stroke="#F5F5F5"/>
</svg>
