<svg width="140" height="36" viewBox="0 0 140 36" fill="none" xmlns="http://www.w3.org/2000/svg">
<rect x="140" width="36" height="140" rx="18" transform="rotate(90 140 0)" fill="#F0F0F0"/>
<path d="M125.293 11.636C125.105 11.8236 125 12.0779 125 12.343C125 12.6082 125.105 12.8625 125.293 13.05L130.243 18L125.293 22.95C125.111 23.1387 125.01 23.3913 125.012 23.6535C125.014 23.9156 125.12 24.1665 125.305 24.3519C125.49 24.5373 125.741 24.6424 126.003 24.6447C126.266 24.647 126.518 24.5462 126.707 24.364L132.364 18.707C132.551 18.5195 132.657 18.2652 132.657 18C132.657 17.7349 132.551 17.4806 132.364 17.293L126.707 11.636C126.519 11.4486 126.265 11.3433 126 11.3433C125.735 11.3433 125.48 11.4486 125.293 11.636V11.636Z" fill="white"/>
<rect x="88" y="4" width="28" height="28" rx="14" fill="white"/>
<path d="M95.8545 23.1564L96.88 24.1818L98.1891 22.88L97.1564 21.8473M102 13.6364C99.5927 13.6364 97.6364 15.5927 97.6364 18C97.6364 20.4073 99.5927 22.3636 102 22.3636C104.407 22.3636 106.364 20.4073 106.364 18C106.364 15.5855 104.407 13.6364 102 13.6364ZM107.818 18.7273L110 18.7273L110 17.2727L107.818 17.2727M105.811 22.88L107.12 24.1818L108.145 23.1564L106.844 21.8473M108.145 12.9091L107.12 11.8909L105.811 13.1927L106.844 14.2255M102.727 10L101.273 10L101.273 12.1818L102.727 12.1818M98.1891 13.1927L96.88 11.8909L95.8545 12.9091L97.1564 14.2255L98.1891 13.1927ZM94 18.7273L96.1818 18.7273L96.1818 17.2727L94 17.2727M102.727 23.8182L101.273 23.8182L101.273 26L102.727 26" fill="#D8D5FD"/>
<rect x="56" y="4" width="28" height="28" rx="14" fill="white"/>
<path d="M70.675 10.6487C70.675 10.4766 70.6039 10.3116 70.4773 10.19C70.3507 10.0683 70.179 10 70 10C69.821 10 69.6493 10.0683 69.5227 10.19C69.3961 10.3116 69.325 10.4766 69.325 10.6487L69.325 11.9459C69.325 12.118 69.3961 12.283 69.5227 12.4046C69.6493 12.5263 69.821 12.5946 70 12.5946C70.179 12.5946 70.3507 12.5263 70.4773 12.4046C70.6039 12.283 70.675 12.118 70.675 11.9459L70.675 10.6487ZM76.327 12.5687C76.4534 12.6903 76.5244 12.8551 76.5244 13.027C76.5244 13.1989 76.4534 13.3638 76.327 13.4854L75.373 14.403C75.2457 14.5212 75.0753 14.5867 74.8983 14.5853C74.7213 14.5839 74.552 14.5158 74.4268 14.3956C74.3016 14.2754 74.2305 14.1127 74.2289 13.9426C74.2272 13.7725 74.2952 13.6087 74.4181 13.4863L75.3721 12.5687C75.4348 12.5084 75.5092 12.4606 75.5911 12.4279C75.6731 12.3953 75.7609 12.3785 75.8495 12.3785C75.9382 12.3785 76.026 12.3953 76.108 12.4279C76.1899 12.4606 76.2643 12.5084 76.327 12.5687V12.5687ZM65.131 19.5135C64.9999 18.8275 65.0273 18.1222 65.2114 17.4476C65.3955 16.7729 65.7318 16.1454 66.1963 15.6096C66.6609 15.0737 67.2424 14.6425 67.8996 14.3467C68.5568 14.0508 69.2738 13.8974 69.9995 13.8974C70.7253 13.8974 71.4423 14.0508 72.0995 14.3467C72.7567 14.6425 73.3382 15.0737 73.8028 15.6096C74.2673 16.1455 74.6036 16.7729 74.7877 17.4476C74.9718 18.1222 74.9992 18.8275 74.8681 19.5135L78.325 19.5135C78.504 19.5135 78.6757 19.5819 78.8023 19.7035C78.9289 19.8251 79 19.9901 79 20.1622C79 20.3342 78.9289 20.4992 78.8023 20.6208C78.6757 20.7425 78.504 20.8108 78.325 20.8108L61.675 20.8108C61.496 20.8108 61.3243 20.7425 61.1977 20.6208C61.0711 20.4992 61 20.3342 61 20.1622C61 19.9901 61.0711 19.8251 61.1977 19.7035C61.3243 19.5819 61.496 19.5135 61.675 19.5135L65.131 19.5135ZM65.275 22.1081C65.096 22.1081 64.9243 22.1764 64.7977 22.2981C64.6711 22.4197 64.6 22.5847 64.6 22.7568C64.6 22.9288 64.6711 23.0938 64.7977 23.2154C64.9243 23.3371 65.096 23.4054 65.275 23.4054L74.725 23.4054C74.904 23.4054 75.0757 23.3371 75.2023 23.2154C75.3289 23.0938 75.4 22.9288 75.4 22.7568C75.4 22.5847 75.3289 22.4197 75.2023 22.2981C75.0757 22.1764 74.904 22.1081 74.725 22.1081L65.275 22.1081ZM68.875 24.7027C68.696 24.7027 68.5243 24.771 68.3977 24.8927C68.2711 25.0143 68.2 25.1793 68.2 25.3514C68.2 25.5234 68.2711 25.6884 68.3977 25.81C68.5243 25.9317 68.696 26 68.875 26L71.125 26C71.304 26 71.4757 25.9317 71.6023 25.81C71.7289 25.6884 71.8 25.5234 71.8 25.3514C71.8 25.1793 71.7289 25.0143 71.6023 24.8927C71.4757 24.771 71.304 24.7027 71.125 24.7027L68.875 24.7027ZM63.673 12.5686C63.7996 12.4472 63.9711 12.3789 64.15 12.3789C64.3289 12.3789 64.5004 12.4472 64.627 12.5686L65.5819 13.4854C65.6464 13.5452 65.6979 13.6168 65.7333 13.6959C65.7687 13.775 65.7873 13.8601 65.7882 13.9462C65.789 14.0324 65.772 14.1178 65.738 14.1975C65.7041 14.2773 65.6541 14.3497 65.5907 14.4106C65.5274 14.4716 65.452 14.5198 65.3691 14.5524C65.2862 14.5851 65.1973 14.6015 65.1076 14.6008C65.018 14.6001 64.9294 14.5822 64.8471 14.5483C64.7647 14.5143 64.6902 14.465 64.6279 14.403L63.673 13.4863C63.6103 13.426 63.5605 13.3545 63.5266 13.2758C63.4926 13.1971 63.4751 13.1127 63.4751 13.0275C63.4751 12.9422 63.4926 12.8579 63.5266 12.7791C63.5605 12.7004 63.6103 12.6289 63.673 12.5686V12.5686Z" fill="#FFB752"/>
<rect x="24" y="4" width="28" height="28" rx="14" fill="white"/>
<path d="M43.9721 20.2167C44.1081 19.8927 43.7194 19.6167 43.3934 19.7607C42.7418 20.0467 42.0377 20.1938 41.3261 20.1927C38.5361 20.1927 36.2747 17.9767 36.2747 15.2427C36.2737 14.3196 36.5359 13.4153 37.0307 12.636C37.2201 12.3374 36.9927 11.924 36.646 12.012C33.9734 12.694 32 15.0754 32 17.908C32 21.2727 34.7834 24 38.2174 24C40.8174 24 43.0441 22.4367 43.9721 20.2167Z" fill="#D8D5FD"/>
<path d="M40.4074 12.0687C40.0541 11.8327 39.6327 12.254 39.8681 12.6074L40.2881 13.2374C40.4585 13.4928 40.5494 13.793 40.5494 14.1C40.5494 14.4071 40.4585 14.7073 40.2881 14.9627L39.8681 15.5927C39.6327 15.946 40.0547 16.3674 40.4081 16.1314L41.0374 15.7114C41.2929 15.541 41.593 15.4501 41.9001 15.4501C42.2072 15.4501 42.5073 15.541 42.7628 15.7114L43.3928 16.1314C43.7461 16.3674 44.1675 15.946 43.9314 15.5927L43.5114 14.9627C43.3411 14.7073 43.2501 14.4071 43.2501 14.1C43.2501 13.793 43.3411 13.4928 43.5114 13.2374L43.9315 12.6074C44.1675 12.254 43.7461 11.8327 43.3921 12.0687L42.7628 12.4887C42.5073 12.6591 42.2072 12.75 41.9001 12.75C41.593 12.75 41.2929 12.6591 41.0374 12.4887L40.4074 12.0687Z" fill="#D8D5FD"/>
<path d="M14.7072 11.636C14.8947 11.8236 15 12.0779 15 12.343C15 12.6082 14.8947 12.8625 14.7072 13.05L9.75721 18L14.7072 22.95C14.8894 23.1387 14.9902 23.3913 14.9879 23.6535C14.9856 23.9156 14.8804 24.1665 14.695 24.3519C14.5096 24.5373 14.2588 24.6424 13.9966 24.6447C13.7344 24.647 13.4818 24.5462 13.2932 24.364L7.63621 18.707C7.44874 18.5195 7.34343 18.2652 7.34343 18C7.34343 17.7349 7.44874 17.4806 7.63621 17.293L13.2932 11.636C13.4807 11.4486 13.735 11.3433 14.0002 11.3433C14.2654 11.3433 14.5197 11.4486 14.7072 11.636V11.636Z" fill="#8C81F7"/>
</svg>
