<svg width="16" height="16" viewBox="0 0 16 16" fill="none" xmlns="http://www.w3.org/2000/svg">
<rect width="16" height="16" rx="4" transform="matrix(1.39071e-07 1 1 -1.39071e-07 0 0)" fill="white"/>
<path d="M4.17609 6.1912C4.28888 6.06877 4.44183 6 4.60131 6C4.76079 6 4.91374 6.06877 5.02652 6.1912L8.00363 9.42372L10.9807 6.1912C11.0942 6.07224 11.2461 6.00642 11.4038 6.00791C11.5615 6.0094 11.7123 6.07808 11.8238 6.19915C11.9354 6.32023 11.9986 6.48402 12 6.65524C12.0013 6.82647 11.9407 6.99142 11.8312 7.11459L8.42885 10.8088C8.31606 10.9312 8.16311 11 8.00363 11C7.84415 11 7.6912 10.9312 7.57842 10.8088L4.17609 7.11459C4.06334 6.99213 4 6.82606 4 6.65289C4 6.47973 4.06334 6.31366 4.17609 6.1912V6.1912Z" fill="#8C81F7"/>
</svg>
