<svg width="20" height="20" viewBox="0 0 20 20" fill="none" xmlns="http://www.w3.org/2000/svg">
<rect width="19" height="20" rx="4" transform="matrix(1.39071e-07 1 1 -1.39071e-07 0 0.5)" fill="white"/>
<path d="M5.22012 7.85205C5.3611 7.70667 5.55229 7.625 5.75163 7.625C5.95098 7.625 6.14217 7.70667 6.28315 7.85205L10.0045 11.6907L13.7259 7.85205C13.8677 7.71079 14.0576 7.63262 14.2547 7.63439C14.4519 7.63616 14.6404 7.71771 14.7798 7.86149C14.9192 8.00527 14.9983 8.19977 15 8.4031C15.0017 8.60643 14.9259 8.80232 14.789 8.94857L10.5361 13.3355C10.3951 13.4808 10.2039 13.5625 10.0045 13.5625C9.80519 13.5625 9.614 13.4808 9.47302 13.3355L5.22012 8.94857C5.07918 8.80315 5 8.60594 5 8.40031C5 8.19468 5.07918 7.99747 5.22012 7.85205V7.85205Z" fill="#8C81F7"/>
</svg>
