<svg width="16" height="16" viewBox="0 0 16 16" fill="none" xmlns="http://www.w3.org/2000/svg">
<path d="M5.14351 1.66675C5.67029 1.66675 6.09589 2.03914 6.09589 2.50008V3.33341H9.90541V2.50008C9.90541 2.03914 10.331 1.66675 10.8578 1.66675C11.3846 1.66675 11.8102 2.03914 11.8102 2.50008V3.33341H13.2387C14.0274 3.33341 14.6673 3.89331 14.6673 4.58341V5.83341H1.33398V4.58341C1.33398 3.89331 1.97387 3.33341 2.76256 3.33341H4.19113V2.50008C4.19113 2.03914 4.61672 1.66675 5.14351 1.66675ZM1.33398 6.66675H14.6673V13.7501C14.6673 14.4402 14.0274 15.0001 13.2387 15.0001H2.76256C1.97387 15.0001 1.33398 14.4402 1.33398 13.7501V6.66675ZM3.23875 8.75008V9.58341C3.23875 9.81258 3.45303 10.0001 3.71494 10.0001H4.66732C4.92922 10.0001 5.14351 9.81258 5.14351 9.58341V8.75008C5.14351 8.52091 4.92922 8.33341 4.66732 8.33341H3.71494C3.45303 8.33341 3.23875 8.52091 3.23875 8.75008ZM7.04827 8.75008V9.58341C7.04827 9.81258 7.26256 10.0001 7.52446 10.0001H8.47684C8.73875 10.0001 8.95303 9.81258 8.95303 9.58341V8.75008C8.95303 8.52091 8.73875 8.33341 8.47684 8.33341H7.52446C7.26256 8.33341 7.04827 8.52091 7.04827 8.75008ZM11.334 8.33341C11.0721 8.33341 10.8578 8.52091 10.8578 8.75008V9.58341C10.8578 9.81258 11.0721 10.0001 11.334 10.0001H12.2864C12.5483 10.0001 12.7626 9.81258 12.7626 9.58341V8.75008C12.7626 8.52091 12.5483 8.33341 12.2864 8.33341H11.334ZM3.23875 12.0834V12.9167C3.23875 13.1459 3.45303 13.3334 3.71494 13.3334H4.66732C4.92922 13.3334 5.14351 13.1459 5.14351 12.9167V12.0834C5.14351 11.8542 4.92922 11.6667 4.66732 11.6667H3.71494C3.45303 11.6667 3.23875 11.8542 3.23875 12.0834ZM7.52446 11.6667C7.26256 11.6667 7.04827 11.8542 7.04827 12.0834V12.9167C7.04827 13.1459 7.26256 13.3334 7.52446 13.3334H8.47684C8.73875 13.3334 8.95303 13.1459 8.95303 12.9167V12.0834C8.95303 11.8542 8.73875 11.6667 8.47684 11.6667H7.52446ZM10.8578 12.0834V12.9167C10.8578 13.1459 11.0721 13.3334 11.334 13.3334H12.2864C12.5483 13.3334 12.7626 13.1459 12.7626 12.9167V12.0834C12.7626 11.8542 12.5483 11.6667 12.2864 11.6667H11.334C11.0721 11.6667 10.8578 11.8542 10.8578 12.0834Z" fill="#8C81F7"/>
</svg>
