<svg width="11" height="14" viewBox="0 0 11 14" fill="none" xmlns="http://www.w3.org/2000/svg">
<path d="M3.07143 1C3.42701 1 3.71429 1.33516 3.71429 1.75V2.5H6.28571V1.75C6.28571 1.33516 6.57299 1 6.92857 1C7.28415 1 7.57143 1.33516 7.57143 1.75V2.5H8.53571C9.06808 2.5 9.5 3.00391 9.5 3.625V4.75H0.5V3.625C0.5 3.00391 0.93192 2.5 1.46429 2.5H2.42857V1.75C2.42857 1.33516 2.71585 1 3.07143 1ZM0.5 5.5H9.5V11.875C9.5 12.4961 9.06808 13 8.53571 13H1.46429C0.93192 13 0.5 12.4961 0.5 11.875V5.5ZM2.10714 7C1.93036 7 1.78571 7.16875 1.78571 7.375V8.875C1.78571 9.08125 1.93036 9.25 2.10714 9.25H7.89286C8.06964 9.25 8.21429 9.08125 8.21429 8.875V7.375C8.21429 7.16875 8.06964 7 7.89286 7H2.10714Z" fill="#8C81F7"/>
</svg>
