<svg width="16" height="16" viewBox="0 0 16 16" fill="none" xmlns="http://www.w3.org/2000/svg">
<path d="M5.14351 1.66675C5.67029 1.66675 6.09589 2.03914 6.09589 2.50008V3.33341H9.90541V2.50008C9.90541 2.03914 10.331 1.66675 10.8578 1.66675C11.3846 1.66675 11.8102 2.03914 11.8102 2.50008V3.33341H13.2387C14.0274 3.33341 14.6673 3.89331 14.6673 4.58341V5.83341H1.33398V4.58341C1.33398 3.89331 1.97387 3.33341 2.76256 3.33341H4.19113V2.50008C4.19113 2.03914 4.61672 1.66675 5.14351 1.66675ZM1.33398 6.66675H14.6673V13.7501C14.6673 14.4402 14.0274 15.0001 13.2387 15.0001H2.76256C1.97387 15.0001 1.33398 14.4402 1.33398 13.7501V6.66675ZM3.71494 8.33341C3.45303 8.33341 3.23875 8.52091 3.23875 8.75008V11.2501C3.23875 11.4792 3.45303 11.6667 3.71494 11.6667H6.57208C6.83398 11.6667 7.04827 11.4792 7.04827 11.2501V8.75008C7.04827 8.52091 6.83398 8.33341 6.57208 8.33341H3.71494Z" fill="#8C81F7"/>
</svg>
