<svg width="16" height="16" viewBox="0 0 16 16" fill="none" xmlns="http://www.w3.org/2000/svg">
<g clip-path="url(#clip0_28_1996)">
<path fill-rule="evenodd" clip-rule="evenodd" d="M2 2.02967C2 1.75658 2.10536 1.49468 2.29289 1.30158C2.48043 1.10848 2.73478 1 3 1H13C13.2652 1 13.5196 1.10848 13.7071 1.30158C13.8946 1.49468 14 1.75658 14 2.02967V3.46159C13.9999 3.82567 13.8594 4.17482 13.6093 4.43222L10 8.14863V13.2448C10 13.3735 9.96808 13.5001 9.90721 13.6125C9.84634 13.725 9.75857 13.8195 9.65223 13.8872C9.54589 13.9549 9.42451 13.9935 9.29962 13.9992C9.17473 14.005 9.05048 13.9778 8.93867 13.9203L6.46067 12.6448C6.32225 12.5736 6.20583 12.464 6.12447 12.3285C6.0431 12.1929 6.00001 12.0367 6 11.8774V8.14863L2.39067 4.43222C2.1406 4.17482 2.00008 3.82567 2 3.46159V2.02967Z" fill="#AFAFAF"/>
</g>
<defs>
<clipPath id="clip0_28_1996">
<rect width="16" height="16" fill="white"/>
</clipPath>
</defs>
</svg>
