<svg width="15" height="16" viewBox="0 0 15 16" fill="none" xmlns="http://www.w3.org/2000/svg">
<g clip-path="url(#clip0_234_1889)">
<path d="M0.363647 4.83625L7.18806 7.93205C7.38728 8.02258 7.61257 8.02258 7.81179 7.93205L14.6362 4.83625C15.1211 4.61623 15.1211 3.88352 14.6362 3.6635L7.81208 0.567406C7.7142 0.522667 7.60784 0.499512 7.50022 0.499512C7.3926 0.499512 7.28624 0.522667 7.18835 0.567406L0.363647 3.66321C-0.121216 3.88323 -0.121216 4.61623 0.363647 4.83625ZM14.6365 7.42258L12.9346 6.6512L8.1991 8.79778C7.97761 8.89827 7.74236 8.94924 7.50007 8.94924C7.25779 8.94924 7.02283 8.89827 6.80105 8.79778L2.0658 6.6512L0.363647 7.42258C-0.121216 7.64231 -0.121216 8.37473 0.363647 8.59446L7.18806 11.6879C7.38728 11.7781 7.61257 11.7781 7.81179 11.6879L14.6365 8.59446C15.1214 8.37473 15.1214 7.64231 14.6365 7.42258ZM14.6365 11.1667L12.9411 10.3983L8.1991 12.5478C7.97761 12.6483 7.74236 12.6992 7.50007 12.6992C7.25779 12.6992 7.02283 12.6483 6.80105 12.5478L2.05935 10.3983L0.363647 11.1667C-0.121216 11.3864 -0.121216 12.1189 0.363647 12.3386L7.18806 15.4321C7.38728 15.5223 7.61257 15.5223 7.81179 15.4321L14.6365 12.3386C15.1214 12.1189 15.1214 11.3864 14.6365 11.1667Z" fill="#8C81F7"/>
</g>
<defs>
<clipPath id="clip0_234_1889">
<rect width="15" height="15" fill="white" transform="translate(0 0.5)"/>
</clipPath>
</defs>
</svg>
