<svg width="28" height="22" viewBox="0 0 28 22" fill="none" xmlns="http://www.w3.org/2000/svg">
<path d="M2.69066 22C1.95073 22 1.31753 21.731 0.791054 21.1929C0.263685 20.6539 0 20.0063 0 19.25V2.75C0 1.99375 0.263685 1.34658 0.791054 0.8085C1.31753 0.2695 1.95073 0 2.69066 0H9.65275C10.0115 0 10.3537 0.0687501 10.6792 0.20625C11.0039 0.34375 11.2896 0.538541 11.5362 0.790625L13.4533 2.75H24.2159C24.9559 2.75 25.5895 3.0195 26.1169 3.5585C26.6434 4.09658 26.9066 4.74375 26.9066 5.5H5.38132C4.64139 5.5 4.00819 5.76904 3.48171 6.30712C2.95435 6.84612 2.69066 7.49375 2.69066 8.25V19.25L5.34769 10.2094C5.52707 9.61354 5.85802 9.13779 6.34054 8.78213C6.82217 8.42738 7.35447 8.25 7.93745 8.25H25.2922C26.2115 8.25 26.9349 8.62217 27.4622 9.3665C27.9887 10.1118 28.1286 10.9198 27.882 11.7906L25.4604 20.0406C25.281 20.6365 24.9505 21.1122 24.4689 21.4679C23.9863 21.8226 23.4536 22 22.8706 22H2.69066Z" fill="#8C81F7"/>
</svg>
