<svg width="26" height="28" viewBox="0 0 26 28" fill="none" xmlns="http://www.w3.org/2000/svg">
<path d="M22.5 0C23.4283 0 24.3185 0.368749 24.9749 1.02513C25.6313 1.6815 26 2.57174 26 3.5V24.5C26 26.432 24.432 28 22.5 28H7.5C6.57174 28 5.6815 27.6313 5.02513 26.9749C4.36875 26.3185 4 25.4283 4 24.5V3.5C4 2.57174 4.36875 1.6815 5.02513 1.02513C5.6815 0.368749 6.57174 0 7.5 0H22.5ZM22 5.5C22 5.10218 21.842 4.72064 21.5607 4.43934C21.2794 4.15804 20.8978 4 20.5 4H9.5C9.10218 4 8.72065 4.15804 8.43934 4.43934C8.15804 4.72064 8 5.10218 8 5.5V6.5C8 6.89782 8.15804 7.27936 8.43934 7.56066C8.72065 7.84196 9.10218 8 9.5 8H20.5C20.8978 8 21.2794 7.84196 21.5607 7.56066C21.842 7.27936 22 6.89782 22 6.5V5.5ZM2 6H0.75C0.336 6 0 6.336 0 6.75V9.25C0 9.44891 0.0790171 9.63968 0.219669 9.78033C0.360322 9.92098 0.551088 10 0.75 10H2V6ZM0.75 12H2V16H0.75C0.551088 16 0.360322 15.921 0.219669 15.7803C0.0790171 15.6397 0 15.4489 0 15.25V12.75C0 12.5511 0.0790171 12.3603 0.219669 12.2197C0.360322 12.079 0.551088 12 0.75 12ZM2 18H0.75C0.336 18 0 18.336 0 18.75V21.25C0 21.4489 0.0790171 21.6397 0.219669 21.7803C0.360322 21.921 0.551088 22 0.75 22H2V18Z" fill="#8C81F7"/>
</svg>
