<svg width="56" height="56" viewBox="0 0 56 56" fill="none" xmlns="http://www.w3.org/2000/svg">
<path d="M21 14.875C21 14.6429 20.9078 14.4204 20.7437 14.2563C20.5796 14.0922 20.3571 14 20.125 14C19.8929 14 19.6704 14.0922 19.5063 14.2563C19.3422 14.4204 19.25 14.6429 19.25 14.875V15.75H17.5C16.5717 15.75 15.6815 16.1187 15.0251 16.7751C14.3687 17.4315 14 18.3217 14 19.25V21H42V19.25C42 18.3217 41.6312 17.4315 40.9749 16.7751C40.3185 16.1187 39.4283 15.75 38.5 15.75H36.75V14.875C36.75 14.6429 36.6578 14.4204 36.4937 14.2563C36.3296 14.0922 36.1071 14 35.875 14C35.6429 14 35.4204 14.0922 35.2563 14.2563C35.0922 14.4204 35 14.6429 35 14.875V15.75H21V14.875ZM42 38.5V22.75H14V38.5C14 39.4283 14.3687 40.3185 15.0251 40.9749C15.6815 41.6312 16.5717 42 17.5 42H38.5C39.4283 42 40.3185 41.6312 40.9749 40.9749C41.6312 40.3185 42 39.4283 42 38.5ZM28.875 28.875V31.5H31.5C31.7321 31.5 31.9546 31.5922 32.1187 31.7563C32.2828 31.9204 32.375 32.1429 32.375 32.375C32.375 32.6071 32.2828 32.8296 32.1187 32.9937C31.9546 33.1578 31.7321 33.25 31.5 33.25H28.875V35.875C28.875 36.1071 28.7828 36.3296 28.6187 36.4937C28.4546 36.6578 28.2321 36.75 28 36.75C27.7679 36.75 27.5454 36.6578 27.3813 36.4937C27.2172 36.3296 27.125 36.1071 27.125 35.875V33.25H24.5C24.2679 33.25 24.0454 33.1578 23.8813 32.9937C23.7172 32.8296 23.625 32.6071 23.625 32.375C23.625 32.1429 23.7172 31.9204 23.8813 31.7563C24.0454 31.5922 24.2679 31.5 24.5 31.5H27.125V28.875C27.125 28.6429 27.2172 28.4204 27.3813 28.2563C27.5454 28.0922 27.7679 28 28 28C28.2321 28 28.4546 28.0922 28.6187 28.2563C28.7828 28.4204 28.875 28.6429 28.875 28.875Z" fill="#8C81F7"/>
</svg>
