<svg width="32" height="30" viewBox="0 0 32 30" fill="none" xmlns="http://www.w3.org/2000/svg">
<path d="M12.3077 0C10.2831 0 8.61538 1.69375 8.61538 3.75V6.25H11.0769V3.75C11.0769 3.04625 11.6148 2.5 12.3077 2.5H19.6923C20.3852 2.5 20.9231 3.04625 20.9231 3.75V6.25H23.3846V3.75C23.3846 1.69375 21.7169 0 19.6923 0H12.3077ZM3.69231 7.5C2.71305 7.5 1.77389 7.89509 1.08145 8.59835C0.38901 9.30161 0 10.2554 0 11.25L0 26.25C0 27.2446 0.38901 28.1984 1.08145 28.9017C1.77389 29.6049 2.71305 30 3.69231 30H28.3077C30.3458 30 32 28.32 32 26.25V11.25C32 10.2554 31.611 9.30161 30.9185 8.59835C30.2261 7.89509 29.287 7.5 28.3077 7.5H3.69231ZM16 11.1325C16.9852 11.1317 17.9609 11.3281 18.8712 11.7107C19.7815 12.0932 20.6087 12.6543 21.3053 13.3618C22.002 14.0693 22.5544 14.9094 22.931 15.8339C23.3077 16.7585 23.5011 17.7494 23.5003 18.75C23.5011 19.7506 23.3077 20.7415 22.931 21.6661C22.5544 22.5906 22.002 23.4307 21.3053 24.1382C20.6087 24.8457 19.7815 25.4068 18.8712 25.7893C17.9609 26.1719 16.9852 26.3683 16 26.3675C15.0148 26.3683 14.0391 26.1719 13.1288 25.7893C12.2185 25.4068 11.3913 24.8457 10.6947 24.1382C9.99805 23.4307 9.44561 22.5906 9.06897 21.6661C8.69233 20.7415 8.49888 19.7506 8.49969 18.75C8.49888 17.7494 8.69233 16.7585 9.06897 15.8339C9.44561 14.9094 9.99805 14.0693 10.6947 13.3618C11.3913 12.6543 12.2185 12.0932 13.1288 11.7107C14.0391 11.3281 15.0148 11.1317 16 11.1325V11.1325ZM14.7692 15V17.5H12.3077V20H14.7692V22.5H17.2308V20H19.6923V17.5H17.2308V15H14.7692Z" fill="#8C81F7"/>
</svg>
