<svg width="56" height="56" viewBox="0 0 56 56" fill="none" xmlns="http://www.w3.org/2000/svg">
<path fill-rule="evenodd" clip-rule="evenodd" d="M28.0001 45.75C36.113 45.75 42.6897 39.1732 42.6897 31.0603C42.6897 22.9475 36.113 16.3707 28.0001 16.3707C19.8872 16.3707 13.3104 22.9475 13.3104 31.0603C13.3104 39.1732 19.8872 45.75 28.0001 45.75ZM22.4915 29.8362C23.5056 29.8362 24.3277 29.0141 24.3277 28C24.3277 26.9859 23.5056 26.1638 22.4915 26.1638C21.4774 26.1638 20.6553 26.9859 20.6553 28C20.6553 29.0141 21.4774 29.8362 22.4915 29.8362ZM33.5087 29.8362C34.5228 29.8362 35.3449 29.0141 35.3449 28C35.3449 26.9859 34.5228 26.1638 33.5087 26.1638C32.4946 26.1638 31.6725 26.9859 31.6725 28C31.6725 29.0141 32.4946 29.8362 33.5087 29.8362ZM31.6725 37.4163C32.7896 36.773 33.7182 35.8476 34.3654 34.7328L33.5087 34.1207C33.5087 34.1207 32.8051 35.2183 31.6725 35.9569C30.5943 36.6601 29.2851 37.1054 28.0001 37.181C26.4909 37.2698 25.5753 36.8106 24.3277 35.9569C23.4907 35.3842 22.4915 34.1207 22.4915 34.1207L21.6343 34.7328C22.2814 35.8476 23.21 36.773 24.3272 37.4163C25.4443 38.0595 26.7108 38.3981 27.9998 38.3981C29.2889 38.3981 30.5554 38.0595 31.6725 37.4163Z" fill="#8C81F7"/>
<path d="M7.1897 28.6121V35.2768C7.1897 35.7818 7.31867 36.2662 7.54824 36.6233C7.77781 36.9804 8.08917 37.181 8.41384 37.181H9.63797C9.96263 37.181 10.274 36.9804 10.5036 36.6233C10.7331 36.2662 10.8621 35.7818 10.8621 35.2768V30.5163C10.8621 30.0113 10.7331 29.5269 10.5036 29.1698C10.274 28.8127 9.96263 28.6121 9.63797 28.6121H7.1897Z" fill="#8C81F7"/>
<path d="M48.8104 28.6121V35.2768C48.8104 35.7818 48.6814 36.2662 48.4518 36.6233C48.2223 36.9804 47.9109 37.181 47.5862 37.181H46.3621C46.0374 37.181 45.7261 36.9804 45.4965 36.6233C45.2669 36.2662 45.138 35.7818 45.138 35.2768V30.5163C45.138 30.0113 45.2669 29.5269 45.4965 29.1698C45.7261 28.8127 46.0374 28.6121 46.3621 28.6121H48.8104Z" fill="#8C81F7"/>
<path d="M45.4299 24.0721C45.6298 24.587 46.2092 24.8423 46.724 24.6424C47.2389 24.4425 47.4942 23.8631 47.2943 23.3483L45.4299 24.0721ZM27.3784 10.2508L27.3705 11.2507C27.3761 11.2508 27.3817 11.2508 27.3873 11.2507L27.3784 10.2508ZM19.5331 11.8696L19.934 12.7858L19.934 12.7858L19.5331 11.8696ZM12.8703 16.6002L12.1412 15.9158L12.1412 15.9158L12.8703 16.6002ZM7.48154 23.3538C7.28178 23.8687 7.53725 24.4481 8.05214 24.6478C8.56703 24.8476 9.14637 24.5921 9.34613 24.0772L7.48154 23.3538ZM7.1897 28.6121V27.6121C6.63741 27.6121 6.1897 28.0598 6.1897 28.6121H7.1897ZM7.1897 35.2768H6.1897H7.1897ZM48.8104 28.6121H49.8104C49.8104 28.0598 49.3627 27.6121 48.8104 27.6121V28.6121ZM47.3621 33.5086C47.3621 32.9563 46.9144 32.5086 46.3621 32.5086C45.8098 32.5086 45.3621 32.9563 45.3621 33.5086H47.3621ZM44.952 39.5678L45.8238 40.0576L45.8238 40.0576L44.952 39.5678ZM32.8966 41.0776C32.3443 41.0776 31.8966 41.5253 31.8966 42.0776C31.8966 42.6299 32.3443 43.0776 32.8966 43.0776V41.0776ZM47.2943 23.3483C46.2142 20.5661 44.6296 18.0365 42.6289 15.9073L41.1714 17.2768C42.9919 19.2143 44.4403 21.5232 45.4299 24.0721L47.2943 23.3483ZM42.6289 15.9073C40.628 13.7778 38.2501 12.0906 35.6303 10.9466L34.83 12.7795C37.1951 13.8122 39.351 15.3395 41.1714 17.2768L42.6289 15.9073ZM35.6303 10.9466C33.0104 9.80253 30.2025 9.22546 27.3694 9.2508L27.3873 11.2507C29.9358 11.2279 32.4651 11.7468 34.83 12.7795L35.6303 10.9466ZM27.3862 9.25079C24.555 9.22864 21.7495 9.80805 19.1321 10.9535L19.934 12.7858C22.2966 11.7518 24.8237 11.2308 27.3705 11.2507L27.3862 9.25079ZM19.1321 10.9535C16.515 12.0989 14.1397 13.7867 12.1412 15.9158L13.5994 17.2846C15.4177 15.3475 17.5712 13.8198 19.934 12.7858L19.1321 10.9535ZM12.1412 15.9158C10.1429 18.0447 8.56031 20.5732 7.48154 23.3538L9.34613 24.0772C10.3344 21.5297 11.7811 19.2218 13.5994 17.2846L12.1412 15.9158ZM6.1897 28.6121V35.2768H8.1897V28.6121H6.1897ZM6.1897 35.2768C6.1897 35.9367 6.35552 36.6172 6.70706 37.1641L8.38942 36.0825C8.28182 35.9152 8.1897 35.627 8.1897 35.2768H6.1897ZM6.70706 37.1641C7.05703 37.7085 7.64598 38.181 8.41384 38.181V36.181C8.4367 36.181 8.45637 36.1847 8.47082 36.1892C8.48482 36.1936 8.49008 36.1974 8.48701 36.1955C8.47956 36.1907 8.44057 36.1621 8.38942 36.0825L6.70706 37.1641ZM8.41384 38.181H9.63797V36.181H8.41384V38.181ZM9.63797 38.181C10.4058 38.181 10.9948 37.7085 11.3447 37.1641L9.66239 36.0825C9.61123 36.1621 9.57224 36.1907 9.5648 36.1955C9.56173 36.1974 9.56699 36.1936 9.58099 36.1892C9.59543 36.1847 9.6151 36.181 9.63797 36.181V38.181ZM11.3447 37.1641C11.6963 36.6172 11.8621 35.9367 11.8621 35.2768H9.86211C9.86211 35.627 9.76999 35.9152 9.66239 36.0825L11.3447 37.1641ZM11.8621 35.2768V30.5163H9.86211V35.2768H11.8621ZM11.8621 30.5163C11.8621 29.8564 11.6963 29.1759 11.3447 28.629L9.66239 29.7106C9.76999 29.8779 9.86211 30.1661 9.86211 30.5163H11.8621ZM11.3447 28.629C10.9948 28.0846 10.4058 27.6121 9.63797 27.6121V29.6121C9.6151 29.6121 9.59543 29.6084 9.58099 29.6039C9.56699 29.5995 9.56173 29.5957 9.5648 29.5976C9.57224 29.6024 9.61123 29.631 9.66239 29.7106L11.3447 28.629ZM9.63797 27.6121H7.1897V29.6121H9.63797V27.6121ZM47.8104 28.6121V35.2768H49.8104V28.6121H47.8104ZM47.8104 35.2768C47.8104 35.627 47.7183 35.9152 47.6107 36.0825L49.293 37.1641C49.6446 36.6172 49.8104 35.9367 49.8104 35.2768H47.8104ZM47.6107 36.0825C47.5595 36.1621 47.5205 36.1907 47.5131 36.1955C47.51 36.1974 47.5153 36.1936 47.5293 36.1892C47.5437 36.1847 47.5634 36.181 47.5862 36.181V38.181C48.3541 38.181 48.943 37.7085 49.293 37.1641L47.6107 36.0825ZM47.5862 36.181H46.3621V38.181H47.5862V36.181ZM46.3621 36.181C46.385 36.181 46.4046 36.1847 46.4191 36.1892C46.4331 36.1936 46.4384 36.1974 46.4353 36.1955C46.4278 36.1907 46.3888 36.1621 46.3377 36.0825L44.6553 37.1641C45.0053 37.7085 45.5943 38.181 46.3621 38.181V36.181ZM46.3377 36.0825C46.2301 35.9152 46.138 35.627 46.138 35.2768H44.138C44.138 35.9367 44.3038 36.6172 44.6553 37.1641L46.3377 36.0825ZM46.138 35.2768V30.5163H44.138V35.2768H46.138ZM46.138 30.5163C46.138 30.1661 46.2301 29.8779 46.3377 29.7106L44.6553 28.629C44.3038 29.1759 44.138 29.8564 44.138 30.5163H46.138ZM46.3377 29.7106C46.3888 29.631 46.4278 29.6024 46.4353 29.5976C46.4384 29.5957 46.4331 29.5995 46.4191 29.6039C46.4046 29.6084 46.385 29.6121 46.3621 29.6121V27.6121C45.5943 27.6121 45.0053 28.0846 44.6553 28.629L46.3377 29.7106ZM46.3621 29.6121H48.8104V27.6121H46.3621V29.6121ZM45.3621 33.5086C45.3621 35.6493 44.8815 37.6516 44.0802 39.078L45.8238 40.0576C46.8282 38.27 47.3621 35.9133 47.3621 33.5086H45.3621ZM44.0802 39.078C43.2671 40.525 42.3146 41.0776 41.5476 41.0776V43.0776C43.3344 43.0776 44.831 41.8246 45.8238 40.0576L44.0802 39.078ZM41.5476 41.0776C41.541 41.0776 41.5344 41.0776 41.5278 41.0776C41.5213 41.0776 41.5147 41.0776 41.5081 41.0776C41.5015 41.0776 41.495 41.0776 41.4884 41.0776C41.4818 41.0776 41.4753 41.0776 41.4687 41.0776C41.4622 41.0776 41.4556 41.0776 41.4491 41.0776C41.4425 41.0776 41.436 41.0776 41.4295 41.0776C41.4229 41.0776 41.4164 41.0776 41.4099 41.0776C41.4034 41.0776 41.3968 41.0776 41.3903 41.0776C41.3838 41.0776 41.3773 41.0776 41.3708 41.0776C41.3643 41.0776 41.3578 41.0776 41.3513 41.0776C41.3449 41.0776 41.3384 41.0776 41.3319 41.0776C41.3254 41.0776 41.3189 41.0776 41.3125 41.0776C41.306 41.0776 41.2996 41.0776 41.2931 41.0776C41.2866 41.0776 41.2802 41.0776 41.2738 41.0776C41.2673 41.0776 41.2609 41.0776 41.2544 41.0776C41.248 41.0776 41.2416 41.0776 41.2352 41.0776C41.2287 41.0776 41.2223 41.0776 41.2159 41.0776C41.2095 41.0776 41.2031 41.0776 41.1967 41.0776C41.1903 41.0776 41.1839 41.0776 41.1775 41.0776C41.1711 41.0776 41.1647 41.0776 41.1583 41.0776C41.1519 41.0776 41.1456 41.0776 41.1392 41.0776C41.1328 41.0776 41.1265 41.0776 41.1201 41.0776C41.1137 41.0776 41.1074 41.0776 41.101 41.0776C41.0947 41.0776 41.0883 41.0776 41.082 41.0776C41.0757 41.0776 41.0693 41.0776 41.063 41.0776C41.0567 41.0776 41.0504 41.0776 41.044 41.0776C41.0377 41.0776 41.0314 41.0776 41.0251 41.0776C41.0188 41.0776 41.0125 41.0776 41.0062 41.0776C40.9999 41.0776 40.9936 41.0776 40.9873 41.0776C40.981 41.0776 40.9747 41.0776 40.9684 41.0776C40.9622 41.0776 40.9559 41.0776 40.9496 41.0776C40.9434 41.0776 40.9371 41.0776 40.9308 41.0776C40.9246 41.0776 40.9183 41.0776 40.9121 41.0776C40.9058 41.0776 40.8996 41.0776 40.8933 41.0776C40.8871 41.0776 40.8809 41.0776 40.8746 41.0776C40.8684 41.0776 40.8622 41.0776 40.856 41.0776C40.8497 41.0776 40.8435 41.0776 40.8373 41.0776C40.8311 41.0776 40.8249 41.0776 40.8187 41.0776C40.8125 41.0776 40.8063 41.0776 40.8001 41.0776C40.7939 41.0776 40.7877 41.0776 40.7816 41.0776C40.7754 41.0776 40.7692 41.0776 40.763 41.0776C40.7569 41.0776 40.7507 41.0776 40.7445 41.0776C40.7384 41.0776 40.7322 41.0776 40.7261 41.0776C40.7199 41.0776 40.7138 41.0776 40.7076 41.0776C40.7015 41.0776 40.6953 41.0776 40.6892 41.0776C40.6831 41.0776 40.6769 41.0776 40.6708 41.0776C40.6647 41.0776 40.6586 41.0776 40.6525 41.0776C40.6463 41.0776 40.6402 41.0776 40.6341 41.0776C40.628 41.0776 40.6219 41.0776 40.6158 41.0776C40.6097 41.0776 40.6036 41.0776 40.5975 41.0776C40.5915 41.0776 40.5854 41.0776 40.5793 41.0776C40.5732 41.0776 40.5671 41.0776 40.5611 41.0776C40.555 41.0776 40.5489 41.0776 40.5429 41.0776C40.5368 41.0776 40.5308 41.0776 40.5247 41.0776C40.5187 41.0776 40.5126 41.0776 40.5066 41.0776C40.5005 41.0776 40.4945 41.0776 40.4885 41.0776C40.4824 41.0776 40.4764 41.0776 40.4704 41.0776C40.4643 41.0776 40.4583 41.0776 40.4523 41.0776C40.4463 41.0776 40.4403 41.0776 40.4343 41.0776C40.4283 41.0776 40.4223 41.0776 40.4163 41.0776C40.4103 41.0776 40.4043 41.0776 40.3983 41.0776C40.3923 41.0776 40.3863 41.0776 40.3803 41.0776C40.3743 41.0776 40.3684 41.0776 40.3624 41.0776C40.3564 41.0776 40.3505 41.0776 40.3445 41.0776C40.3385 41.0776 40.3326 41.0776 40.3266 41.0776C40.3207 41.0776 40.3147 41.0776 40.3088 41.0776C40.3028 41.0776 40.2969 41.0776 40.2909 41.0776C40.285 41.0776 40.279 41.0776 40.2731 41.0776C40.2672 41.0776 40.2613 41.0776 40.2553 41.0776C40.2494 41.0776 40.2435 41.0776 40.2376 41.0776C40.2317 41.0776 40.2258 41.0776 40.2199 41.0776C40.2139 41.0776 40.208 41.0776 40.2021 41.0776C40.1962 41.0776 40.1904 41.0776 40.1845 41.0776C40.1786 41.0776 40.1727 41.0776 40.1668 41.0776C40.1609 41.0776 40.155 41.0776 40.1492 41.0776C40.1433 41.0776 40.1374 41.0776 40.1316 41.0776C40.1257 41.0776 40.1198 41.0776 40.114 41.0776C40.1081 41.0776 40.1023 41.0776 40.0964 41.0776C40.0906 41.0776 40.0847 41.0776 40.0789 41.0776C40.073 41.0776 40.0672 41.0776 40.0614 41.0776C40.0555 41.0776 40.0497 41.0776 40.0439 41.0776C40.0381 41.0776 40.0322 41.0776 40.0264 41.0776C40.0206 41.0776 40.0148 41.0776 40.009 41.0776C40.0032 41.0776 39.9973 41.0776 39.9915 41.0776C39.9857 41.0776 39.9799 41.0776 39.9741 41.0776C39.9683 41.0776 39.9626 41.0776 39.9568 41.0776C39.951 41.0776 39.9452 41.0776 39.9394 41.0776C39.9336 41.0776 39.9279 41.0776 39.9221 41.0776C39.9163 41.0776 39.9105 41.0776 39.9048 41.0776C39.899 41.0776 39.8932 41.0776 39.8875 41.0776C39.8817 41.0776 39.876 41.0776 39.8702 41.0776C39.8645 41.0776 39.8587 41.0776 39.853 41.0776C39.8472 41.0776 39.8415 41.0776 39.8358 41.0776C39.83 41.0776 39.8243 41.0776 39.8186 41.0776C39.8128 41.0776 39.8071 41.0776 39.8014 41.0776C39.7957 41.0776 39.7899 41.0776 39.7842 41.0776C39.7785 41.0776 39.7728 41.0776 39.7671 41.0776C39.7614 41.0776 39.7557 41.0776 39.75 41.0776C39.7443 41.0776 39.7386 41.0776 39.7329 41.0776C39.7272 41.0776 39.7215 41.0776 39.7158 41.0776C39.7101 41.0776 39.7044 41.0776 39.6988 41.0776C39.6931 41.0776 39.6874 41.0776 39.6817 41.0776C39.6761 41.0776 39.6704 41.0776 39.6647 41.0776C39.6591 41.0776 39.6534 41.0776 39.6477 41.0776C39.6421 41.0776 39.6364 41.0776 39.6308 41.0776C39.6251 41.0776 39.6195 41.0776 39.6138 41.0776C39.6082 41.0776 39.6025 41.0776 39.5969 41.0776C39.5912 41.0776 39.5856 41.0776 39.58 41.0776C39.5743 41.0776 39.5687 41.0776 39.5631 41.0776C39.5575 41.0776 39.5518 41.0776 39.5462 41.0776C39.5406 41.0776 39.535 41.0776 39.5294 41.0776C39.5237 41.0776 39.5181 41.0776 39.5125 41.0776C39.5069 41.0776 39.5013 41.0776 39.4957 41.0776C39.4901 41.0776 39.4845 41.0776 39.4789 41.0776C39.4733 41.0776 39.4677 41.0776 39.4621 41.0776C39.4566 41.0776 39.451 41.0776 39.4454 41.0776C39.4398 41.0776 39.4342 41.0776 39.4286 41.0776C39.4231 41.0776 39.4175 41.0776 39.4119 41.0776C39.4064 41.0776 39.4008 41.0776 39.3952 41.0776C39.3897 41.0776 39.3841 41.0776 39.3785 41.0776C39.373 41.0776 39.3674 41.0776 39.3619 41.0776C39.3563 41.0776 39.3508 41.0776 39.3452 41.0776C39.3397 41.0776 39.3341 41.0776 39.3286 41.0776C39.3231 41.0776 39.3175 41.0776 39.312 41.0776C39.3065 41.0776 39.3009 41.0776 39.2954 41.0776C39.2899 41.0776 39.2843 41.0776 39.2788 41.0776C39.2733 41.0776 39.2678 41.0776 39.2623 41.0776C39.2567 41.0776 39.2512 41.0776 39.2457 41.0776C39.2402 41.0776 39.2347 41.0776 39.2292 41.0776C39.2237 41.0776 39.2182 41.0776 39.2127 41.0776C39.2072 41.0776 39.2017 41.0776 39.1962 41.0776C39.1907 41.0776 39.1852 41.0776 39.1797 41.0776C39.1742 41.0776 39.1687 41.0776 39.1633 41.0776C39.1578 41.0776 39.1523 41.0776 39.1468 41.0776C39.1413 41.0776 39.1359 41.0776 39.1304 41.0776C39.1249 41.0776 39.1194 41.0776 39.114 41.0776C39.1085 41.0776 39.103 41.0776 39.0976 41.0776C39.0921 41.0776 39.0867 41.0776 39.0812 41.0776C39.0757 41.0776 39.0703 41.0776 39.0648 41.0776C39.0594 41.0776 39.0539 41.0776 39.0485 41.0776C39.043 41.0776 39.0376 41.0776 39.0322 41.0776C39.0267 41.0776 39.0213 41.0776 39.0158 41.0776C39.0104 41.0776 39.005 41.0776 38.9995 41.0776C38.9941 41.0776 38.9887 41.0776 38.9833 41.0776C38.9778 41.0776 38.9724 41.0776 38.967 41.0776C38.9616 41.0776 38.9561 41.0776 38.9507 41.0776C38.9453 41.0776 38.9399 41.0776 38.9345 41.0776C38.9291 41.0776 38.9237 41.0776 38.9183 41.0776C38.9128 41.0776 38.9074 41.0776 38.902 41.0776C38.8966 41.0776 38.8912 41.0776 38.8858 41.0776C38.8804 41.0776 38.875 41.0776 38.8697 41.0776C38.8643 41.0776 38.8589 41.0776 38.8535 41.0776C38.8481 41.0776 38.8427 41.0776 38.8373 41.0776C38.8319 41.0776 38.8266 41.0776 38.8212 41.0776C38.8158 41.0776 38.8104 41.0776 38.805 41.0776C38.7997 41.0776 38.7943 41.0776 38.7889 41.0776C38.7836 41.0776 38.7782 41.0776 38.7728 41.0776C38.7675 41.0776 38.7621 41.0776 38.7567 41.0776C38.7514 41.0776 38.746 41.0776 38.7407 41.0776C38.7353 41.0776 38.7299 41.0776 38.7246 41.0776C38.7192 41.0776 38.7139 41.0776 38.7085 41.0776C38.7032 41.0776 38.6978 41.0776 38.6925 41.0776C38.6872 41.0776 38.6818 41.0776 38.6765 41.0776C38.6711 41.0776 38.6658 41.0776 38.6605 41.0776C38.6551 41.0776 38.6498 41.0776 38.6445 41.0776C38.6391 41.0776 38.6338 41.0776 38.6285 41.0776C38.6231 41.0776 38.6178 41.0776 38.6125 41.0776C38.6072 41.0776 38.6018 41.0776 38.5965 41.0776C38.5912 41.0776 38.5859 41.0776 38.5806 41.0776C38.5752 41.0776 38.5699 41.0776 38.5646 41.0776C38.5593 41.0776 38.554 41.0776 38.5487 41.0776C38.5434 41.0776 38.5381 41.0776 38.5328 41.0776C38.5275 41.0776 38.5222 41.0776 38.5169 41.0776C38.5116 41.0776 38.5063 41.0776 38.501 41.0776C38.4957 41.0776 38.4904 41.0776 38.4851 41.0776C38.4798 41.0776 38.4745 41.0776 38.4692 41.0776C38.4639 41.0776 38.4586 41.0776 38.4533 41.0776C38.448 41.0776 38.4428 41.0776 38.4375 41.0776C38.4322 41.0776 38.4269 41.0776 38.4216 41.0776C38.4163 41.0776 38.4111 41.0776 38.4058 41.0776C38.4005 41.0776 38.3952 41.0776 38.39 41.0776C38.3847 41.0776 38.3794 41.0776 38.3742 41.0776C38.3689 41.0776 38.3636 41.0776 38.3583 41.0776C38.3531 41.0776 38.3478 41.0776 38.3426 41.0776C38.3373 41.0776 38.332 41.0776 38.3268 41.0776C38.3215 41.0776 38.3162 41.0776 38.311 41.0776C38.3057 41.0776 38.3005 41.0776 38.2952 41.0776C38.29 41.0776 38.2847 41.0776 38.2795 41.0776C38.2742 41.0776 38.269 41.0776 38.2637 41.0776C38.2585 41.0776 38.2532 41.0776 38.248 41.0776C38.2427 41.0776 38.2375 41.0776 38.2322 41.0776C38.227 41.0776 38.2218 41.0776 38.2165 41.0776C38.2113 41.0776 38.206 41.0776 38.2008 41.0776C38.1956 41.0776 38.1903 41.0776 38.1851 41.0776C38.1799 41.0776 38.1746 41.0776 38.1694 41.0776C38.1642 41.0776 38.1589 41.0776 38.1537 41.0776C38.1485 41.0776 38.1433 41.0776 38.138 41.0776C38.1328 41.0776 38.1276 41.0776 38.1224 41.0776C38.1171 41.0776 38.1119 41.0776 38.1067 41.0776C38.1015 41.0776 38.0962 41.0776 38.091 41.0776C38.0858 41.0776 38.0806 41.0776 38.0754 41.0776C38.0702 41.0776 38.0649 41.0776 38.0597 41.0776C38.0545 41.0776 38.0493 41.0776 38.0441 41.0776C38.0389 41.0776 38.0337 41.0776 38.0285 41.0776C38.0233 41.0776 38.018 41.0776 38.0128 41.0776C38.0076 41.0776 38.0024 41.0776 37.9972 41.0776C37.992 41.0776 37.9868 41.0776 37.9816 41.0776C37.9764 41.0776 37.9712 41.0776 37.966 41.0776C37.9608 41.0776 37.9556 41.0776 37.9504 41.0776C37.9452 41.0776 37.94 41.0776 37.9348 41.0776C37.9296 41.0776 37.9244 41.0776 37.9192 41.0776C37.914 41.0776 37.9089 41.0776 37.9037 41.0776C37.8985 41.0776 37.8933 41.0776 37.8881 41.0776C37.8829 41.0776 37.8777 41.0776 37.8725 41.0776C37.8673 41.0776 37.8621 41.0776 37.857 41.0776C37.8518 41.0776 37.8466 41.0776 37.8414 41.0776C37.8362 41.0776 37.831 41.0776 37.8259 41.0776C37.8207 41.0776 37.8155 41.0776 37.8103 41.0776C37.8051 41.0776 37.7999 41.0776 37.7948 41.0776C37.7896 41.0776 37.7844 41.0776 37.7792 41.0776C37.7741 41.0776 37.7689 41.0776 37.7637 41.0776C37.7585 41.0776 37.7534 41.0776 37.7482 41.0776C37.743 41.0776 37.7378 41.0776 37.7327 41.0776C37.7275 41.0776 37.7223 41.0776 37.7171 41.0776C37.712 41.0776 37.7068 41.0776 37.7016 41.0776C37.6965 41.0776 37.6913 41.0776 37.6861 41.0776C37.6809 41.0776 37.6758 41.0776 37.6706 41.0776C37.6654 41.0776 37.6603 41.0776 37.6551 41.0776C37.6499 41.0776 37.6448 41.0776 37.6396 41.0776C37.6344 41.0776 37.6293 41.0776 37.6241 41.0776C37.619 41.0776 37.6138 41.0776 37.6086 41.0776C37.6035 41.0776 37.5983 41.0776 37.5931 41.0776C37.588 41.0776 37.5828 41.0776 37.5777 41.0776C37.5725 41.0776 37.5673 41.0776 37.5622 41.0776C37.557 41.0776 37.5519 41.0776 37.5467 41.0776C37.5415 41.0776 37.5364 41.0776 37.5312 41.0776C37.5261 41.0776 37.5209 41.0776 37.5158 41.0776C37.5106 41.0776 37.5054 41.0776 37.5003 41.0776C37.4951 41.0776 37.49 41.0776 37.4848 41.0776C37.4797 41.0776 37.4745 41.0776 37.4694 41.0776C37.4642 41.0776 37.459 41.0776 37.4539 41.0776C37.4487 41.0776 37.4436 41.0776 37.4384 41.0776C37.4333 41.0776 37.4281 41.0776 37.423 41.0776C37.4178 41.0776 37.4127 41.0776 37.4075 41.0776C37.4024 41.0776 37.3972 41.0776 37.3921 41.0776C37.3869 41.0776 37.3818 41.0776 37.3766 41.0776C37.3714 41.0776 37.3663 41.0776 37.3611 41.0776C37.356 41.0776 37.3508 41.0776 37.3457 41.0776C37.3405 41.0776 37.3354 41.0776 37.3302 41.0776C37.3251 41.0776 37.3199 41.0776 37.3148 41.0776C37.3096 41.0776 37.3045 41.0776 37.2993 41.0776C37.2942 41.0776 37.289 41.0776 37.2839 41.0776C37.2787 41.0776 37.2736 41.0776 37.2684 41.0776C37.2633 41.0776 37.2582 41.0776 37.253 41.0776C37.2479 41.0776 37.2427 41.0776 37.2376 41.0776C37.2324 41.0776 37.2273 41.0776 37.2221 41.0776C37.217 41.0776 37.2118 41.0776 37.2067 41.0776C37.2015 41.0776 37.1964 41.0776 37.1912 41.0776C37.1861 41.0776 37.1809 41.0776 37.1758 41.0776C37.1706 41.0776 37.1655 41.0776 37.1603 41.0776C37.1552 41.0776 37.15 41.0776 37.1449 41.0776C37.1397 41.0776 37.1346 41.0776 37.1294 41.0776C37.1243 41.0776 37.1191 41.0776 37.114 41.0776C37.1088 41.0776 37.1037 41.0776 37.0985 41.0776C37.0934 41.0776 37.0882 41.0776 37.0831 41.0776C37.0779 41.0776 37.0728 41.0776 37.0676 41.0776C37.0625 41.0776 37.0573 41.0776 37.0522 41.0776C37.047 41.0776 37.0419 41.0776 37.0367 41.0776C37.0316 41.0776 37.0264 41.0776 37.0212 41.0776C37.0161 41.0776 37.0109 41.0776 37.0058 41.0776C37.0006 41.0776 36.9955 41.0776 36.9903 41.0776C36.9852 41.0776 36.98 41.0776 36.9749 41.0776C36.9697 41.0776 36.9646 41.0776 36.9594 41.0776C36.9542 41.0776 36.9491 41.0776 36.9439 41.0776C36.9388 41.0776 36.9336 41.0776 36.9285 41.0776C36.9233 41.0776 36.9181 41.0776 36.913 41.0776C36.9078 41.0776 36.9027 41.0776 36.8975 41.0776C36.8924 41.0776 36.8872 41.0776 36.882 41.0776C36.8769 41.0776 36.8717 41.0776 36.8666 41.0776C36.8614 41.0776 36.8562 41.0776 36.8511 41.0776C36.8459 41.0776 36.8407 41.0776 36.8356 41.0776C36.8304 41.0776 36.8253 41.0776 36.8201 41.0776C36.8149 41.0776 36.8098 41.0776 36.8046 41.0776C36.7994 41.0776 36.7943 41.0776 36.7891 41.0776C36.7839 41.0776 36.7788 41.0776 36.7736 41.0776C36.7684 41.0776 36.7633 41.0776 36.7581 41.0776C36.7529 41.0776 36.7478 41.0776 36.7426 41.0776C36.7374 41.0776 36.7322 41.0776 36.7271 41.0776C36.7219 41.0776 36.7167 41.0776 36.7116 41.0776C36.7064 41.0776 36.7012 41.0776 36.696 41.0776C36.6909 41.0776 36.6857 41.0776 36.6805 41.0776C36.6753 41.0776 36.6702 41.0776 36.665 41.0776C36.6598 41.0776 36.6546 41.0776 36.6494 41.0776C36.6443 41.0776 36.6391 41.0776 36.6339 41.0776C36.6287 41.0776 36.6235 41.0776 36.6184 41.0776C36.6132 41.0776 36.608 41.0776 36.6028 41.0776C36.5976 41.0776 36.5924 41.0776 36.5873 41.0776C36.5821 41.0776 36.5769 41.0776 36.5717 41.0776C36.5665 41.0776 36.5613 41.0776 36.5561 41.0776C36.5509 41.0776 36.5457 41.0776 36.5406 41.0776C36.5354 41.0776 36.5302 41.0776 36.525 41.0776C36.5198 41.0776 36.5146 41.0776 36.5094 41.0776C36.5042 41.0776 36.499 41.0776 36.4938 41.0776C36.4886 41.0776 36.4834 41.0776 36.4782 41.0776C36.473 41.0776 36.4678 41.0776 36.4626 41.0776C36.4574 41.0776 36.4522 41.0776 36.447 41.0776C36.4418 41.0776 36.4366 41.0776 36.4314 41.0776C36.4262 41.0776 36.421 41.0776 36.4158 41.0776C36.4105 41.0776 36.4053 41.0776 36.4001 41.0776C36.3949 41.0776 36.3897 41.0776 36.3845 41.0776C36.3793 41.0776 36.3741 41.0776 36.3688 41.0776C36.3636 41.0776 36.3584 41.0776 36.3532 41.0776C36.348 41.0776 36.3428 41.0776 36.3375 41.0776C36.3323 41.0776 36.3271 41.0776 36.3219 41.0776C36.3166 41.0776 36.3114 41.0776 36.3062 41.0776C36.301 41.0776 36.2957 41.0776 36.2905 41.0776C36.2853 41.0776 36.28 41.0776 36.2748 41.0776C36.2696 41.0776 36.2644 41.0776 36.2591 41.0776C36.2539 41.0776 36.2487 41.0776 36.2434 41.0776C36.2382 41.0776 36.2329 41.0776 36.2277 41.0776C36.2225 41.0776 36.2172 41.0776 36.212 41.0776C36.2067 41.0776 36.2015 41.0776 36.1962 41.0776C36.191 41.0776 36.1858 41.0776 36.1805 41.0776C36.1753 41.0776 36.17 41.0776 36.1648 41.0776C36.1595 41.0776 36.1543 41.0776 36.149 41.0776C36.1437 41.0776 36.1385 41.0776 36.1332 41.0776C36.128 41.0776 36.1227 41.0776 36.1175 41.0776C36.1122 41.0776 36.1069 41.0776 36.1017 41.0776C36.0964 41.0776 36.0911 41.0776 36.0859 41.0776C36.0806 41.0776 36.0753 41.0776 36.0701 41.0776C36.0648 41.0776 36.0595 41.0776 36.0542 41.0776C36.049 41.0776 36.0437 41.0776 36.0384 41.0776C36.0331 41.0776 36.0279 41.0776 36.0226 41.0776C36.0173 41.0776 36.012 41.0776 36.0067 41.0776C36.0015 41.0776 35.9962 41.0776 35.9909 41.0776C35.9856 41.0776 35.9803 41.0776 35.975 41.0776C35.9697 41.0776 35.9644 41.0776 35.9591 41.0776C35.9538 41.0776 35.9486 41.0776 35.9433 41.0776C35.938 41.0776 35.9327 41.0776 35.9274 41.0776C35.9221 41.0776 35.9168 41.0776 35.9114 41.0776C35.9061 41.0776 35.9008 41.0776 35.8955 41.0776C35.8902 41.0776 35.8849 41.0776 35.8796 41.0776C35.8743 41.0776 35.869 41.0776 35.8637 41.0776C35.8583 41.0776 35.853 41.0776 35.8477 41.0776C35.8424 41.0776 35.8371 41.0776 35.8317 41.0776C35.8264 41.0776 35.8211 41.0776 35.8158 41.0776C35.8104 41.0776 35.8051 41.0776 35.7998 41.0776C35.7944 41.0776 35.7891 41.0776 35.7838 41.0776C35.7784 41.0776 35.7731 41.0776 35.7677 41.0776C35.7624 41.0776 35.7571 41.0776 35.7517 41.0776C35.7464 41.0776 35.741 41.0776 35.7357 41.0776C35.7303 41.0776 35.725 41.0776 35.7196 41.0776C35.7143 41.0776 35.7089 41.0776 35.7036 41.0776C35.6982 41.0776 35.6928 41.0776 35.6875 41.0776C35.6821 41.0776 35.6768 41.0776 35.6714 41.0776C35.666 41.0776 35.6607 41.0776 35.6553 41.0776C35.6499 41.0776 35.6445 41.0776 35.6392 41.0776C35.6338 41.0776 35.6284 41.0776 35.623 41.0776C35.6177 41.0776 35.6123 41.0776 35.6069 41.0776C35.6015 41.0776 35.5961 41.0776 35.5907 41.0776C35.5853 41.0776 35.58 41.0776 35.5746 41.0776C35.5692 41.0776 35.5638 41.0776 35.5584 41.0776C35.553 41.0776 35.5476 41.0776 35.5422 41.0776C35.5368 41.0776 35.5314 41.0776 35.526 41.0776C35.5206 41.0776 35.5151 41.0776 35.5097 41.0776C35.5043 41.0776 35.4989 41.0776 35.4935 41.0776C35.4881 41.0776 35.4827 41.0776 35.4772 41.0776C35.4718 41.0776 35.4664 41.0776 35.461 41.0776C35.4555 41.0776 35.4501 41.0776 35.4447 41.0776C35.4392 41.0776 35.4338 41.0776 35.4284 41.0776C35.4229 41.0776 35.4175 41.0776 35.4121 41.0776C35.4066 41.0776 35.4012 41.0776 35.3957 41.0776C35.3903 41.0776 35.3848 41.0776 35.3794 41.0776C35.3739 41.0776 35.3685 41.0776 35.363 41.0776C35.3576 41.0776 35.3521 41.0776 35.3466 41.0776C35.3412 41.0776 35.3357 41.0776 35.3302 41.0776C35.3248 41.0776 35.3193 41.0776 35.3138 41.0776C35.3084 41.0776 35.3029 41.0776 35.2974 41.0776C35.2919 41.0776 35.2864 41.0776 35.281 41.0776C35.2755 41.0776 35.27 41.0776 35.2645 41.0776C35.259 41.0776 35.2535 41.0776 35.248 41.0776C35.2425 41.0776 35.237 41.0776 35.2315 41.0776C35.226 41.0776 35.2205 41.0776 35.215 41.0776C35.2095 41.0776 35.204 41.0776 35.1985 41.0776C35.193 41.0776 35.1875 41.0776 35.182 41.0776C35.1764 41.0776 35.1709 41.0776 35.1654 41.0776C35.1599 41.0776 35.1544 41.0776 35.1488 41.0776C35.1433 41.0776 35.1378 41.0776 35.1322 41.0776C35.1267 41.0776 35.1212 41.0776 35.1156 41.0776C35.1101 41.0776 35.1045 41.0776 35.099 41.0776C35.0934 41.0776 35.0879 41.0776 35.0823 41.0776C35.0768 41.0776 35.0712 41.0776 35.0657 41.0776C35.0601 41.0776 35.0546 41.0776 35.049 41.0776C35.0434 41.0776 35.0379 41.0776 35.0323 41.0776C35.0267 41.0776 35.0211 41.0776 35.0156 41.0776C35.01 41.0776 35.0044 41.0776 34.9988 41.0776C34.9932 41.0776 34.9877 41.0776 34.9821 41.0776C34.9765 41.0776 34.9709 41.0776 34.9653 41.0776C34.9597 41.0776 34.9541 41.0776 34.9485 41.0776C34.9429 41.0776 34.9373 41.0776 34.9317 41.0776C34.9261 41.0776 34.9205 41.0776 34.9149 41.0776C34.9092 41.0776 34.9036 41.0776 34.898 41.0776C34.8924 41.0776 34.8868 41.0776 34.8811 41.0776C34.8755 41.0776 34.8699 41.0776 34.8642 41.0776C34.8586 41.0776 34.853 41.0776 34.8473 41.0776C34.8417 41.0776 34.8361 41.0776 34.8304 41.0776C34.8248 41.0776 34.8191 41.0776 34.8135 41.0776C34.8078 41.0776 34.8021 41.0776 34.7965 41.0776C34.7908 41.0776 34.7852 41.0776 34.7795 41.0776C34.7738 41.0776 34.7682 41.0776 34.7625 41.0776C34.7568 41.0776 34.7511 41.0776 34.7455 41.0776C34.7398 41.0776 34.7341 41.0776 34.7284 41.0776C34.7227 41.0776 34.717 41.0776 34.7113 41.0776C34.7056 41.0776 34.6999 41.0776 34.6942 41.0776C34.6885 41.0776 34.6828 41.0776 34.6771 41.0776C34.6714 41.0776 34.6657 41.0776 34.66 41.0776C34.6543 41.0776 34.6486 41.0776 34.6428 41.0776C34.6371 41.0776 34.6314 41.0776 34.6257 41.0776C34.6199 41.0776 34.6142 41.0776 34.6085 41.0776C34.6027 41.0776 34.597 41.0776 34.5912 41.0776C34.5855 41.0776 34.5797 41.0776 34.574 41.0776C34.5682 41.0776 34.5625 41.0776 34.5567 41.0776C34.551 41.0776 34.5452 41.0776 34.5394 41.0776C34.5337 41.0776 34.5279 41.0776 34.5221 41.0776C34.5164 41.0776 34.5106 41.0776 34.5048 41.0776C34.499 41.0776 34.4932 41.0776 34.4874 41.0776C34.4817 41.0776 34.4759 41.0776 34.4701 41.0776C34.4643 41.0776 34.4585 41.0776 34.4527 41.0776C34.4469 41.0776 34.4411 41.0776 34.4353 41.0776C34.4294 41.0776 34.4236 41.0776 34.4178 41.0776C34.412 41.0776 34.4062 41.0776 34.4003 41.0776C34.3945 41.0776 34.3887 41.0776 34.3828 41.0776C34.377 41.0776 34.3712 41.0776 34.3653 41.0776C34.3595 41.0776 34.3536 41.0776 34.3478 41.0776C34.3419 41.0776 34.3361 41.0776 34.3302 41.0776C34.3244 41.0776 34.3185 41.0776 34.3127 41.0776C34.3068 41.0776 34.3009 41.0776 34.295 41.0776C34.2892 41.0776 34.2833 41.0776 34.2774 41.0776C34.2715 41.0776 34.2656 41.0776 34.2598 41.0776C34.2539 41.0776 34.248 41.0776 34.2421 41.0776C34.2362 41.0776 34.2303 41.0776 34.2244 41.0776C34.2185 41.0776 34.2125 41.0776 34.2066 41.0776C34.2007 41.0776 34.1948 41.0776 34.1889 41.0776C34.183 41.0776 34.177 41.0776 34.1711 41.0776C34.1652 41.0776 34.1592 41.0776 34.1533 41.0776C34.1474 41.0776 34.1414 41.0776 34.1355 41.0776C34.1295 41.0776 34.1236 41.0776 34.1176 41.0776C34.1117 41.0776 34.1057 41.0776 34.0997 41.0776C34.0938 41.0776 34.0878 41.0776 34.0818 41.0776C34.0759 41.0776 34.0699 41.0776 34.0639 41.0776C34.0579 41.0776 34.0519 41.0776 34.0459 41.0776C34.0399 41.0776 34.034 41.0776 34.028 41.0776C34.022 41.0776 34.016 41.0776 34.0099 41.0776C34.0039 41.0776 33.9979 41.0776 33.9919 41.0776C33.9859 41.0776 33.9799 41.0776 33.9738 41.0776C33.9678 41.0776 33.9618 41.0776 33.9558 41.0776C33.9497 41.0776 33.9437 41.0776 33.9376 41.0776C33.9316 41.0776 33.9256 41.0776 33.9195 41.0776C33.9135 41.0776 33.9074 41.0776 33.9013 41.0776C33.8953 41.0776 33.8892 41.0776 33.8831 41.0776C33.8771 41.0776 33.871 41.0776 33.8649 41.0776C33.8588 41.0776 33.8528 41.0776 33.8467 41.0776C33.8406 41.0776 33.8345 41.0776 33.8284 41.0776C33.8223 41.0776 33.8162 41.0776 33.8101 41.0776C33.804 41.0776 33.7979 41.0776 33.7918 41.0776C33.7856 41.0776 33.7795 41.0776 33.7734 41.0776C33.7673 41.0776 33.7611 41.0776 33.755 41.0776C33.7489 41.0776 33.7427 41.0776 33.7366 41.0776C33.7305 41.0776 33.7243 41.0776 33.7182 41.0776C33.712 41.0776 33.7058 41.0776 33.6997 41.0776C33.6935 41.0776 33.6874 41.0776 33.6812 41.0776C33.675 41.0776 33.6688 41.0776 33.6627 41.0776C33.6565 41.0776 33.6503 41.0776 33.6441 41.0776C33.6379 41.0776 33.6317 41.0776 33.6255 41.0776C33.6193 41.0776 33.6131 41.0776 33.6069 41.0776C33.6007 41.0776 33.5945 41.0776 33.5883 41.0776C33.582 41.0776 33.5758 41.0776 33.5696 41.0776C33.5633 41.0776 33.5571 41.0776 33.5509 41.0776C33.5446 41.0776 33.5384 41.0776 33.5321 41.0776C33.5259 41.0776 33.5196 41.0776 33.5134 41.0776C33.5071 41.0776 33.5009 41.0776 33.4946 41.0776C33.4883 41.0776 33.482 41.0776 33.4758 41.0776C33.4695 41.0776 33.4632 41.0776 33.4569 41.0776C33.4506 41.0776 33.4443 41.0776 33.438 41.0776C33.4317 41.0776 33.4254 41.0776 33.4191 41.0776C33.4128 41.0776 33.4065 41.0776 33.4002 41.0776C33.3939 41.0776 33.3875 41.0776 33.3812 41.0776C33.3749 41.0776 33.3685 41.0776 33.3622 41.0776C33.3559 41.0776 33.3495 41.0776 33.3432 41.0776C33.3368 41.0776 33.3305 41.0776 33.3241 41.0776C33.3177 41.0776 33.3114 41.0776 33.305 41.0776C33.2986 41.0776 33.2923 41.0776 33.2859 41.0776C33.2795 41.0776 33.2731 41.0776 33.2667 41.0776C33.2603 41.0776 33.2539 41.0776 33.2475 41.0776C33.2411 41.0776 33.2347 41.0776 33.2283 41.0776C33.2219 41.0776 33.2155 41.0776 33.2091 41.0776C33.2026 41.0776 33.1962 41.0776 33.1898 41.0776C33.1833 41.0776 33.1769 41.0776 33.1705 41.0776C33.164 41.0776 33.1576 41.0776 33.1511 41.0776C33.1447 41.0776 33.1382 41.0776 33.1317 41.0776C33.1253 41.0776 33.1188 41.0776 33.1123 41.0776C33.1058 41.0776 33.0994 41.0776 33.0929 41.0776C33.0864 41.0776 33.0799 41.0776 33.0734 41.0776C33.0669 41.0776 33.0604 41.0776 33.0539 41.0776C33.0474 41.0776 33.0409 41.0776 33.0343 41.0776C33.0278 41.0776 33.0213 41.0776 33.0148 41.0776C33.0082 41.0776 33.0017 41.0776 32.9951 41.0776C32.9886 41.0776 32.9821 41.0776 32.9755 41.0776C32.969 41.0776 32.9624 41.0776 32.9558 41.0776C32.9493 41.0776 32.9427 41.0776 32.9361 41.0776C32.9295 41.0776 32.923 41.0776 32.9164 41.0776C32.9098 41.0776 32.9032 41.0776 32.8966 41.0776V43.0776C32.9032 43.0776 32.9098 43.0776 32.9164 43.0776C32.923 43.0776 32.9295 43.0776 32.9361 43.0776C32.9427 43.0776 32.9493 43.0776 32.9558 43.0776C32.9624 43.0776 32.969 43.0776 32.9755 43.0776C32.9821 43.0776 32.9886 43.0776 32.9951 43.0776C33.0017 43.0776 33.0082 43.0776 33.0148 43.0776C33.0213 43.0776 33.0278 43.0776 33.0343 43.0776C33.0409 43.0776 33.0474 43.0776 33.0539 43.0776C33.0604 43.0776 33.0669 43.0776 33.0734 43.0776C33.0799 43.0776 33.0864 43.0776 33.0929 43.0776C33.0994 43.0776 33.1058 43.0776 33.1123 43.0776C33.1188 43.0776 33.1253 43.0776 33.1317 43.0776C33.1382 43.0776 33.1447 43.0776 33.1511 43.0776C33.1576 43.0776 33.164 43.0776 33.1705 43.0776C33.1769 43.0776 33.1833 43.0776 33.1898 43.0776C33.1962 43.0776 33.2026 43.0776 33.2091 43.0776C33.2155 43.0776 33.2219 43.0776 33.2283 43.0776C33.2347 43.0776 33.2411 43.0776 33.2475 43.0776C33.2539 43.0776 33.2603 43.0776 33.2667 43.0776C33.2731 43.0776 33.2795 43.0776 33.2859 43.0776C33.2923 43.0776 33.2986 43.0776 33.305 43.0776C33.3114 43.0776 33.3177 43.0776 33.3241 43.0776C33.3305 43.0776 33.3368 43.0776 33.3432 43.0776C33.3495 43.0776 33.3559 43.0776 33.3622 43.0776C33.3685 43.0776 33.3749 43.0776 33.3812 43.0776C33.3875 43.0776 33.3939 43.0776 33.4002 43.0776C33.4065 43.0776 33.4128 43.0776 33.4191 43.0776C33.4254 43.0776 33.4317 43.0776 33.438 43.0776C33.4443 43.0776 33.4506 43.0776 33.4569 43.0776C33.4632 43.0776 33.4695 43.0776 33.4758 43.0776C33.482 43.0776 33.4883 43.0776 33.4946 43.0776C33.5009 43.0776 33.5071 43.0776 33.5134 43.0776C33.5196 43.0776 33.5259 43.0776 33.5321 43.0776C33.5384 43.0776 33.5446 43.0776 33.5509 43.0776C33.5571 43.0776 33.5633 43.0776 33.5696 43.0776C33.5758 43.0776 33.582 43.0776 33.5883 43.0776C33.5945 43.0776 33.6007 43.0776 33.6069 43.0776C33.6131 43.0776 33.6193 43.0776 33.6255 43.0776C33.6317 43.0776 33.6379 43.0776 33.6441 43.0776C33.6503 43.0776 33.6565 43.0776 33.6627 43.0776C33.6688 43.0776 33.675 43.0776 33.6812 43.0776C33.6874 43.0776 33.6935 43.0776 33.6997 43.0776C33.7058 43.0776 33.712 43.0776 33.7182 43.0776C33.7243 43.0776 33.7305 43.0776 33.7366 43.0776C33.7427 43.0776 33.7489 43.0776 33.755 43.0776C33.7611 43.0776 33.7673 43.0776 33.7734 43.0776C33.7795 43.0776 33.7856 43.0776 33.7918 43.0776C33.7979 43.0776 33.804 43.0776 33.8101 43.0776C33.8162 43.0776 33.8223 43.0776 33.8284 43.0776C33.8345 43.0776 33.8406 43.0776 33.8467 43.0776C33.8528 43.0776 33.8588 43.0776 33.8649 43.0776C33.871 43.0776 33.8771 43.0776 33.8831 43.0776C33.8892 43.0776 33.8953 43.0776 33.9013 43.0776C33.9074 43.0776 33.9135 43.0776 33.9195 43.0776C33.9256 43.0776 33.9316 43.0776 33.9376 43.0776C33.9437 43.0776 33.9497 43.0776 33.9558 43.0776C33.9618 43.0776 33.9678 43.0776 33.9738 43.0776C33.9799 43.0776 33.9859 43.0776 33.9919 43.0776C33.9979 43.0776 34.0039 43.0776 34.0099 43.0776C34.016 43.0776 34.022 43.0776 34.028 43.0776C34.034 43.0776 34.0399 43.0776 34.0459 43.0776C34.0519 43.0776 34.0579 43.0776 34.0639 43.0776C34.0699 43.0776 34.0759 43.0776 34.0818 43.0776C34.0878 43.0776 34.0938 43.0776 34.0997 43.0776C34.1057 43.0776 34.1117 43.0776 34.1176 43.0776C34.1236 43.0776 34.1295 43.0776 34.1355 43.0776C34.1414 43.0776 34.1474 43.0776 34.1533 43.0776C34.1592 43.0776 34.1652 43.0776 34.1711 43.0776C34.177 43.0776 34.183 43.0776 34.1889 43.0776C34.1948 43.0776 34.2007 43.0776 34.2066 43.0776C34.2125 43.0776 34.2185 43.0776 34.2244 43.0776C34.2303 43.0776 34.2362 43.0776 34.2421 43.0776C34.248 43.0776 34.2539 43.0776 34.2598 43.0776C34.2656 43.0776 34.2715 43.0776 34.2774 43.0776C34.2833 43.0776 34.2892 43.0776 34.295 43.0776C34.3009 43.0776 34.3068 43.0776 34.3127 43.0776C34.3185 43.0776 34.3244 43.0776 34.3302 43.0776C34.3361 43.0776 34.3419 43.0776 34.3478 43.0776C34.3536 43.0776 34.3595 43.0776 34.3653 43.0776C34.3712 43.0776 34.377 43.0776 34.3828 43.0776C34.3887 43.0776 34.3945 43.0776 34.4003 43.0776C34.4062 43.0776 34.412 43.0776 34.4178 43.0776C34.4236 43.0776 34.4294 43.0776 34.4353 43.0776C34.4411 43.0776 34.4469 43.0776 34.4527 43.0776C34.4585 43.0776 34.4643 43.0776 34.4701 43.0776C34.4759 43.0776 34.4817 43.0776 34.4874 43.0776C34.4932 43.0776 34.499 43.0776 34.5048 43.0776C34.5106 43.0776 34.5164 43.0776 34.5221 43.0776C34.5279 43.0776 34.5337 43.0776 34.5394 43.0776C34.5452 43.0776 34.551 43.0776 34.5567 43.0776C34.5625 43.0776 34.5682 43.0776 34.574 43.0776C34.5797 43.0776 34.5855 43.0776 34.5912 43.0776C34.597 43.0776 34.6027 43.0776 34.6085 43.0776C34.6142 43.0776 34.6199 43.0776 34.6257 43.0776C34.6314 43.0776 34.6371 43.0776 34.6428 43.0776C34.6486 43.0776 34.6543 43.0776 34.66 43.0776C34.6657 43.0776 34.6714 43.0776 34.6771 43.0776C34.6828 43.0776 34.6885 43.0776 34.6942 43.0776C34.6999 43.0776 34.7056 43.0776 34.7113 43.0776C34.717 43.0776 34.7227 43.0776 34.7284 43.0776C34.7341 43.0776 34.7398 43.0776 34.7455 43.0776C34.7511 43.0776 34.7568 43.0776 34.7625 43.0776C34.7682 43.0776 34.7738 43.0776 34.7795 43.0776C34.7852 43.0776 34.7908 43.0776 34.7965 43.0776C34.8021 43.0776 34.8078 43.0776 34.8135 43.0776C34.8191 43.0776 34.8248 43.0776 34.8304 43.0776C34.8361 43.0776 34.8417 43.0776 34.8473 43.0776C34.853 43.0776 34.8586 43.0776 34.8642 43.0776C34.8699 43.0776 34.8755 43.0776 34.8811 43.0776C34.8868 43.0776 34.8924 43.0776 34.898 43.0776C34.9036 43.0776 34.9092 43.0776 34.9149 43.0776C34.9205 43.0776 34.9261 43.0776 34.9317 43.0776C34.9373 43.0776 34.9429 43.0776 34.9485 43.0776C34.9541 43.0776 34.9597 43.0776 34.9653 43.0776C34.9709 43.0776 34.9765 43.0776 34.9821 43.0776C34.9877 43.0776 34.9932 43.0776 34.9988 43.0776C35.0044 43.0776 35.01 43.0776 35.0156 43.0776C35.0211 43.0776 35.0267 43.0776 35.0323 43.0776C35.0379 43.0776 35.0434 43.0776 35.049 43.0776C35.0546 43.0776 35.0601 43.0776 35.0657 43.0776C35.0712 43.0776 35.0768 43.0776 35.0823 43.0776C35.0879 43.0776 35.0934 43.0776 35.099 43.0776C35.1045 43.0776 35.1101 43.0776 35.1156 43.0776C35.1212 43.0776 35.1267 43.0776 35.1322 43.0776C35.1378 43.0776 35.1433 43.0776 35.1488 43.0776C35.1544 43.0776 35.1599 43.0776 35.1654 43.0776C35.1709 43.0776 35.1764 43.0776 35.182 43.0776C35.1875 43.0776 35.193 43.0776 35.1985 43.0776C35.204 43.0776 35.2095 43.0776 35.215 43.0776C35.2205 43.0776 35.226 43.0776 35.2315 43.0776C35.237 43.0776 35.2425 43.0776 35.248 43.0776C35.2535 43.0776 35.259 43.0776 35.2645 43.0776C35.27 43.0776 35.2755 43.0776 35.281 43.0776C35.2864 43.0776 35.2919 43.0776 35.2974 43.0776C35.3029 43.0776 35.3084 43.0776 35.3138 43.0776C35.3193 43.0776 35.3248 43.0776 35.3302 43.0776C35.3357 43.0776 35.3412 43.0776 35.3466 43.0776C35.3521 43.0776 35.3576 43.0776 35.363 43.0776C35.3685 43.0776 35.3739 43.0776 35.3794 43.0776C35.3848 43.0776 35.3903 43.0776 35.3957 43.0776C35.4012 43.0776 35.4066 43.0776 35.4121 43.0776C35.4175 43.0776 35.4229 43.0776 35.4284 43.0776C35.4338 43.0776 35.4392 43.0776 35.4447 43.0776C35.4501 43.0776 35.4555 43.0776 35.461 43.0776C35.4664 43.0776 35.4718 43.0776 35.4772 43.0776C35.4827 43.0776 35.4881 43.0776 35.4935 43.0776C35.4989 43.0776 35.5043 43.0776 35.5097 43.0776C35.5151 43.0776 35.5206 43.0776 35.526 43.0776C35.5314 43.0776 35.5368 43.0776 35.5422 43.0776C35.5476 43.0776 35.553 43.0776 35.5584 43.0776C35.5638 43.0776 35.5692 43.0776 35.5746 43.0776C35.58 43.0776 35.5853 43.0776 35.5907 43.0776C35.5961 43.0776 35.6015 43.0776 35.6069 43.0776C35.6123 43.0776 35.6177 43.0776 35.623 43.0776C35.6284 43.0776 35.6338 43.0776 35.6392 43.0776C35.6445 43.0776 35.6499 43.0776 35.6553 43.0776C35.6607 43.0776 35.666 43.0776 35.6714 43.0776C35.6768 43.0776 35.6821 43.0776 35.6875 43.0776C35.6928 43.0776 35.6982 43.0776 35.7036 43.0776C35.7089 43.0776 35.7143 43.0776 35.7196 43.0776C35.725 43.0776 35.7303 43.0776 35.7357 43.0776C35.741 43.0776 35.7464 43.0776 35.7517 43.0776C35.7571 43.0776 35.7624 43.0776 35.7677 43.0776C35.7731 43.0776 35.7784 43.0776 35.7838 43.0776C35.7891 43.0776 35.7944 43.0776 35.7998 43.0776C35.8051 43.0776 35.8104 43.0776 35.8158 43.0776C35.8211 43.0776 35.8264 43.0776 35.8317 43.0776C35.8371 43.0776 35.8424 43.0776 35.8477 43.0776C35.853 43.0776 35.8583 43.0776 35.8637 43.0776C35.869 43.0776 35.8743 43.0776 35.8796 43.0776C35.8849 43.0776 35.8902 43.0776 35.8955 43.0776C35.9008 43.0776 35.9061 43.0776 35.9114 43.0776C35.9168 43.0776 35.9221 43.0776 35.9274 43.0776C35.9327 43.0776 35.938 43.0776 35.9433 43.0776C35.9486 43.0776 35.9538 43.0776 35.9591 43.0776C35.9644 43.0776 35.9697 43.0776 35.975 43.0776C35.9803 43.0776 35.9856 43.0776 35.9909 43.0776C35.9962 43.0776 36.0015 43.0776 36.0067 43.0776C36.012 43.0776 36.0173 43.0776 36.0226 43.0776C36.0279 43.0776 36.0331 43.0776 36.0384 43.0776C36.0437 43.0776 36.049 43.0776 36.0542 43.0776C36.0595 43.0776 36.0648 43.0776 36.0701 43.0776C36.0753 43.0776 36.0806 43.0776 36.0859 43.0776C36.0911 43.0776 36.0964 43.0776 36.1017 43.0776C36.1069 43.0776 36.1122 43.0776 36.1175 43.0776C36.1227 43.0776 36.128 43.0776 36.1332 43.0776C36.1385 43.0776 36.1437 43.0776 36.149 43.0776C36.1543 43.0776 36.1595 43.0776 36.1648 43.0776C36.17 43.0776 36.1753 43.0776 36.1805 43.0776C36.1858 43.0776 36.191 43.0776 36.1962 43.0776C36.2015 43.0776 36.2067 43.0776 36.212 43.0776C36.2172 43.0776 36.2225 43.0776 36.2277 43.0776C36.2329 43.0776 36.2382 43.0776 36.2434 43.0776C36.2487 43.0776 36.2539 43.0776 36.2591 43.0776C36.2644 43.0776 36.2696 43.0776 36.2748 43.0776C36.28 43.0776 36.2853 43.0776 36.2905 43.0776C36.2957 43.0776 36.301 43.0776 36.3062 43.0776C36.3114 43.0776 36.3166 43.0776 36.3219 43.0776C36.3271 43.0776 36.3323 43.0776 36.3375 43.0776C36.3428 43.0776 36.348 43.0776 36.3532 43.0776C36.3584 43.0776 36.3636 43.0776 36.3688 43.0776C36.3741 43.0776 36.3793 43.0776 36.3845 43.0776C36.3897 43.0776 36.3949 43.0776 36.4001 43.0776C36.4053 43.0776 36.4105 43.0776 36.4158 43.0776C36.421 43.0776 36.4262 43.0776 36.4314 43.0776C36.4366 43.0776 36.4418 43.0776 36.447 43.0776C36.4522 43.0776 36.4574 43.0776 36.4626 43.0776C36.4678 43.0776 36.473 43.0776 36.4782 43.0776C36.4834 43.0776 36.4886 43.0776 36.4938 43.0776C36.499 43.0776 36.5042 43.0776 36.5094 43.0776C36.5146 43.0776 36.5198 43.0776 36.525 43.0776C36.5302 43.0776 36.5354 43.0776 36.5406 43.0776C36.5457 43.0776 36.5509 43.0776 36.5561 43.0776C36.5613 43.0776 36.5665 43.0776 36.5717 43.0776C36.5769 43.0776 36.5821 43.0776 36.5873 43.0776C36.5924 43.0776 36.5976 43.0776 36.6028 43.0776C36.608 43.0776 36.6132 43.0776 36.6184 43.0776C36.6235 43.0776 36.6287 43.0776 36.6339 43.0776C36.6391 43.0776 36.6443 43.0776 36.6494 43.0776C36.6546 43.0776 36.6598 43.0776 36.665 43.0776C36.6702 43.0776 36.6753 43.0776 36.6805 43.0776C36.6857 43.0776 36.6909 43.0776 36.696 43.0776C36.7012 43.0776 36.7064 43.0776 36.7116 43.0776C36.7167 43.0776 36.7219 43.0776 36.7271 43.0776C36.7322 43.0776 36.7374 43.0776 36.7426 43.0776C36.7478 43.0776 36.7529 43.0776 36.7581 43.0776C36.7633 43.0776 36.7684 43.0776 36.7736 43.0776C36.7788 43.0776 36.7839 43.0776 36.7891 43.0776C36.7943 43.0776 36.7994 43.0776 36.8046 43.0776C36.8098 43.0776 36.8149 43.0776 36.8201 43.0776C36.8253 43.0776 36.8304 43.0776 36.8356 43.0776C36.8407 43.0776 36.8459 43.0776 36.8511 43.0776C36.8562 43.0776 36.8614 43.0776 36.8666 43.0776C36.8717 43.0776 36.8769 43.0776 36.882 43.0776C36.8872 43.0776 36.8924 43.0776 36.8975 43.0776C36.9027 43.0776 36.9078 43.0776 36.913 43.0776C36.9181 43.0776 36.9233 43.0776 36.9285 43.0776C36.9336 43.0776 36.9388 43.0776 36.9439 43.0776C36.9491 43.0776 36.9542 43.0776 36.9594 43.0776C36.9646 43.0776 36.9697 43.0776 36.9749 43.0776C36.98 43.0776 36.9852 43.0776 36.9903 43.0776C36.9955 43.0776 37.0006 43.0776 37.0058 43.0776C37.0109 43.0776 37.0161 43.0776 37.0212 43.0776C37.0264 43.0776 37.0316 43.0776 37.0367 43.0776C37.0419 43.0776 37.047 43.0776 37.0522 43.0776C37.0573 43.0776 37.0625 43.0776 37.0676 43.0776C37.0728 43.0776 37.0779 43.0776 37.0831 43.0776C37.0882 43.0776 37.0934 43.0776 37.0985 43.0776C37.1037 43.0776 37.1088 43.0776 37.114 43.0776C37.1191 43.0776 37.1243 43.0776 37.1294 43.0776C37.1346 43.0776 37.1397 43.0776 37.1449 43.0776C37.15 43.0776 37.1552 43.0776 37.1603 43.0776C37.1655 43.0776 37.1706 43.0776 37.1758 43.0776C37.1809 43.0776 37.1861 43.0776 37.1912 43.0776C37.1964 43.0776 37.2015 43.0776 37.2067 43.0776C37.2118 43.0776 37.217 43.0776 37.2221 43.0776C37.2273 43.0776 37.2324 43.0776 37.2376 43.0776C37.2427 43.0776 37.2479 43.0776 37.253 43.0776C37.2582 43.0776 37.2633 43.0776 37.2684 43.0776C37.2736 43.0776 37.2787 43.0776 37.2839 43.0776C37.289 43.0776 37.2942 43.0776 37.2993 43.0776C37.3045 43.0776 37.3096 43.0776 37.3148 43.0776C37.3199 43.0776 37.3251 43.0776 37.3302 43.0776C37.3354 43.0776 37.3405 43.0776 37.3457 43.0776C37.3508 43.0776 37.356 43.0776 37.3611 43.0776C37.3663 43.0776 37.3714 43.0776 37.3766 43.0776C37.3818 43.0776 37.3869 43.0776 37.3921 43.0776C37.3972 43.0776 37.4024 43.0776 37.4075 43.0776C37.4127 43.0776 37.4178 43.0776 37.423 43.0776C37.4281 43.0776 37.4333 43.0776 37.4384 43.0776C37.4436 43.0776 37.4487 43.0776 37.4539 43.0776C37.459 43.0776 37.4642 43.0776 37.4694 43.0776C37.4745 43.0776 37.4797 43.0776 37.4848 43.0776C37.49 43.0776 37.4951 43.0776 37.5003 43.0776C37.5054 43.0776 37.5106 43.0776 37.5158 43.0776C37.5209 43.0776 37.5261 43.0776 37.5312 43.0776C37.5364 43.0776 37.5415 43.0776 37.5467 43.0776C37.5519 43.0776 37.557 43.0776 37.5622 43.0776C37.5673 43.0776 37.5725 43.0776 37.5777 43.0776C37.5828 43.0776 37.588 43.0776 37.5931 43.0776C37.5983 43.0776 37.6035 43.0776 37.6086 43.0776C37.6138 43.0776 37.619 43.0776 37.6241 43.0776C37.6293 43.0776 37.6344 43.0776 37.6396 43.0776C37.6448 43.0776 37.6499 43.0776 37.6551 43.0776C37.6603 43.0776 37.6654 43.0776 37.6706 43.0776C37.6758 43.0776 37.6809 43.0776 37.6861 43.0776C37.6913 43.0776 37.6965 43.0776 37.7016 43.0776C37.7068 43.0776 37.712 43.0776 37.7171 43.0776C37.7223 43.0776 37.7275 43.0776 37.7327 43.0776C37.7378 43.0776 37.743 43.0776 37.7482 43.0776C37.7534 43.0776 37.7585 43.0776 37.7637 43.0776C37.7689 43.0776 37.7741 43.0776 37.7792 43.0776C37.7844 43.0776 37.7896 43.0776 37.7948 43.0776C37.7999 43.0776 37.8051 43.0776 37.8103 43.0776C37.8155 43.0776 37.8207 43.0776 37.8259 43.0776C37.831 43.0776 37.8362 43.0776 37.8414 43.0776C37.8466 43.0776 37.8518 43.0776 37.857 43.0776C37.8621 43.0776 37.8673 43.0776 37.8725 43.0776C37.8777 43.0776 37.8829 43.0776 37.8881 43.0776C37.8933 43.0776 37.8985 43.0776 37.9037 43.0776C37.9089 43.0776 37.914 43.0776 37.9192 43.0776C37.9244 43.0776 37.9296 43.0776 37.9348 43.0776C37.94 43.0776 37.9452 43.0776 37.9504 43.0776C37.9556 43.0776 37.9608 43.0776 37.966 43.0776C37.9712 43.0776 37.9764 43.0776 37.9816 43.0776C37.9868 43.0776 37.992 43.0776 37.9972 43.0776C38.0024 43.0776 38.0076 43.0776 38.0128 43.0776C38.018 43.0776 38.0233 43.0776 38.0285 43.0776C38.0337 43.0776 38.0389 43.0776 38.0441 43.0776C38.0493 43.0776 38.0545 43.0776 38.0597 43.0776C38.0649 43.0776 38.0702 43.0776 38.0754 43.0776C38.0806 43.0776 38.0858 43.0776 38.091 43.0776C38.0962 43.0776 38.1015 43.0776 38.1067 43.0776C38.1119 43.0776 38.1171 43.0776 38.1224 43.0776C38.1276 43.0776 38.1328 43.0776 38.138 43.0776C38.1433 43.0776 38.1485 43.0776 38.1537 43.0776C38.1589 43.0776 38.1642 43.0776 38.1694 43.0776C38.1746 43.0776 38.1799 43.0776 38.1851 43.0776C38.1903 43.0776 38.1956 43.0776 38.2008 43.0776C38.206 43.0776 38.2113 43.0776 38.2165 43.0776C38.2218 43.0776 38.227 43.0776 38.2322 43.0776C38.2375 43.0776 38.2427 43.0776 38.248 43.0776C38.2532 43.0776 38.2585 43.0776 38.2637 43.0776C38.269 43.0776 38.2742 43.0776 38.2795 43.0776C38.2847 43.0776 38.29 43.0776 38.2952 43.0776C38.3005 43.0776 38.3057 43.0776 38.311 43.0776C38.3162 43.0776 38.3215 43.0776 38.3268 43.0776C38.332 43.0776 38.3373 43.0776 38.3426 43.0776C38.3478 43.0776 38.3531 43.0776 38.3583 43.0776C38.3636 43.0776 38.3689 43.0776 38.3742 43.0776C38.3794 43.0776 38.3847 43.0776 38.39 43.0776C38.3952 43.0776 38.4005 43.0776 38.4058 43.0776C38.4111 43.0776 38.4163 43.0776 38.4216 43.0776C38.4269 43.0776 38.4322 43.0776 38.4375 43.0776C38.4428 43.0776 38.448 43.0776 38.4533 43.0776C38.4586 43.0776 38.4639 43.0776 38.4692 43.0776C38.4745 43.0776 38.4798 43.0776 38.4851 43.0776C38.4904 43.0776 38.4957 43.0776 38.501 43.0776C38.5063 43.0776 38.5116 43.0776 38.5169 43.0776C38.5222 43.0776 38.5275 43.0776 38.5328 43.0776C38.5381 43.0776 38.5434 43.0776 38.5487 43.0776C38.554 43.0776 38.5593 43.0776 38.5646 43.0776C38.5699 43.0776 38.5752 43.0776 38.5806 43.0776C38.5859 43.0776 38.5912 43.0776 38.5965 43.0776C38.6018 43.0776 38.6072 43.0776 38.6125 43.0776C38.6178 43.0776 38.6231 43.0776 38.6285 43.0776C38.6338 43.0776 38.6391 43.0776 38.6445 43.0776C38.6498 43.0776 38.6551 43.0776 38.6605 43.0776C38.6658 43.0776 38.6711 43.0776 38.6765 43.0776C38.6818 43.0776 38.6872 43.0776 38.6925 43.0776C38.6978 43.0776 38.7032 43.0776 38.7085 43.0776C38.7139 43.0776 38.7192 43.0776 38.7246 43.0776C38.7299 43.0776 38.7353 43.0776 38.7407 43.0776C38.746 43.0776 38.7514 43.0776 38.7567 43.0776C38.7621 43.0776 38.7675 43.0776 38.7728 43.0776C38.7782 43.0776 38.7836 43.0776 38.7889 43.0776C38.7943 43.0776 38.7997 43.0776 38.805 43.0776C38.8104 43.0776 38.8158 43.0776 38.8212 43.0776C38.8266 43.0776 38.8319 43.0776 38.8373 43.0776C38.8427 43.0776 38.8481 43.0776 38.8535 43.0776C38.8589 43.0776 38.8643 43.0776 38.8697 43.0776C38.875 43.0776 38.8804 43.0776 38.8858 43.0776C38.8912 43.0776 38.8966 43.0776 38.902 43.0776C38.9074 43.0776 38.9128 43.0776 38.9183 43.0776C38.9237 43.0776 38.9291 43.0776 38.9345 43.0776C38.9399 43.0776 38.9453 43.0776 38.9507 43.0776C38.9561 43.0776 38.9616 43.0776 38.967 43.0776C38.9724 43.0776 38.9778 43.0776 38.9833 43.0776C38.9887 43.0776 38.9941 43.0776 38.9995 43.0776C39.005 43.0776 39.0104 43.0776 39.0158 43.0776C39.0213 43.0776 39.0267 43.0776 39.0322 43.0776C39.0376 43.0776 39.043 43.0776 39.0485 43.0776C39.0539 43.0776 39.0594 43.0776 39.0648 43.0776C39.0703 43.0776 39.0757 43.0776 39.0812 43.0776C39.0867 43.0776 39.0921 43.0776 39.0976 43.0776C39.103 43.0776 39.1085 43.0776 39.114 43.0776C39.1194 43.0776 39.1249 43.0776 39.1304 43.0776C39.1359 43.0776 39.1413 43.0776 39.1468 43.0776C39.1523 43.0776 39.1578 43.0776 39.1633 43.0776C39.1687 43.0776 39.1742 43.0776 39.1797 43.0776C39.1852 43.0776 39.1907 43.0776 39.1962 43.0776C39.2017 43.0776 39.2072 43.0776 39.2127 43.0776C39.2182 43.0776 39.2237 43.0776 39.2292 43.0776C39.2347 43.0776 39.2402 43.0776 39.2457 43.0776C39.2512 43.0776 39.2567 43.0776 39.2623 43.0776C39.2678 43.0776 39.2733 43.0776 39.2788 43.0776C39.2843 43.0776 39.2899 43.0776 39.2954 43.0776C39.3009 43.0776 39.3065 43.0776 39.312 43.0776C39.3175 43.0776 39.3231 43.0776 39.3286 43.0776C39.3341 43.0776 39.3397 43.0776 39.3452 43.0776C39.3508 43.0776 39.3563 43.0776 39.3619 43.0776C39.3674 43.0776 39.373 43.0776 39.3785 43.0776C39.3841 43.0776 39.3897 43.0776 39.3952 43.0776C39.4008 43.0776 39.4064 43.0776 39.4119 43.0776C39.4175 43.0776 39.4231 43.0776 39.4286 43.0776C39.4342 43.0776 39.4398 43.0776 39.4454 43.0776C39.451 43.0776 39.4566 43.0776 39.4621 43.0776C39.4677 43.0776 39.4733 43.0776 39.4789 43.0776C39.4845 43.0776 39.4901 43.0776 39.4957 43.0776C39.5013 43.0776 39.5069 43.0776 39.5125 43.0776C39.5181 43.0776 39.5237 43.0776 39.5294 43.0776C39.535 43.0776 39.5406 43.0776 39.5462 43.0776C39.5518 43.0776 39.5575 43.0776 39.5631 43.0776C39.5687 43.0776 39.5743 43.0776 39.58 43.0776C39.5856 43.0776 39.5912 43.0776 39.5969 43.0776C39.6025 43.0776 39.6082 43.0776 39.6138 43.0776C39.6195 43.0776 39.6251 43.0776 39.6308 43.0776C39.6364 43.0776 39.6421 43.0776 39.6477 43.0776C39.6534 43.0776 39.6591 43.0776 39.6647 43.0776C39.6704 43.0776 39.6761 43.0776 39.6817 43.0776C39.6874 43.0776 39.6931 43.0776 39.6988 43.0776C39.7044 43.0776 39.7101 43.0776 39.7158 43.0776C39.7215 43.0776 39.7272 43.0776 39.7329 43.0776C39.7386 43.0776 39.7443 43.0776 39.75 43.0776C39.7557 43.0776 39.7614 43.0776 39.7671 43.0776C39.7728 43.0776 39.7785 43.0776 39.7842 43.0776C39.7899 43.0776 39.7957 43.0776 39.8014 43.0776C39.8071 43.0776 39.8128 43.0776 39.8186 43.0776C39.8243 43.0776 39.83 43.0776 39.8358 43.0776C39.8415 43.0776 39.8472 43.0776 39.853 43.0776C39.8587 43.0776 39.8645 43.0776 39.8702 43.0776C39.876 43.0776 39.8817 43.0776 39.8875 43.0776C39.8932 43.0776 39.899 43.0776 39.9048 43.0776C39.9105 43.0776 39.9163 43.0776 39.9221 43.0776C39.9279 43.0776 39.9336 43.0776 39.9394 43.0776C39.9452 43.0776 39.951 43.0776 39.9568 43.0776C39.9626 43.0776 39.9683 43.0776 39.9741 43.0776C39.9799 43.0776 39.9857 43.0776 39.9915 43.0776C39.9973 43.0776 40.0032 43.0776 40.009 43.0776C40.0148 43.0776 40.0206 43.0776 40.0264 43.0776C40.0322 43.0776 40.0381 43.0776 40.0439 43.0776C40.0497 43.0776 40.0555 43.0776 40.0614 43.0776C40.0672 43.0776 40.073 43.0776 40.0789 43.0776C40.0847 43.0776 40.0906 43.0776 40.0964 43.0776C40.1023 43.0776 40.1081 43.0776 40.114 43.0776C40.1198 43.0776 40.1257 43.0776 40.1316 43.0776C40.1374 43.0776 40.1433 43.0776 40.1492 43.0776C40.155 43.0776 40.1609 43.0776 40.1668 43.0776C40.1727 43.0776 40.1786 43.0776 40.1845 43.0776C40.1904 43.0776 40.1962 43.0776 40.2021 43.0776C40.208 43.0776 40.2139 43.0776 40.2199 43.0776C40.2258 43.0776 40.2317 43.0776 40.2376 43.0776C40.2435 43.0776 40.2494 43.0776 40.2553 43.0776C40.2613 43.0776 40.2672 43.0776 40.2731 43.0776C40.279 43.0776 40.285 43.0776 40.2909 43.0776C40.2969 43.0776 40.3028 43.0776 40.3088 43.0776C40.3147 43.0776 40.3207 43.0776 40.3266 43.0776C40.3326 43.0776 40.3385 43.0776 40.3445 43.0776C40.3505 43.0776 40.3564 43.0776 40.3624 43.0776C40.3684 43.0776 40.3743 43.0776 40.3803 43.0776C40.3863 43.0776 40.3923 43.0776 40.3983 43.0776C40.4043 43.0776 40.4103 43.0776 40.4163 43.0776C40.4223 43.0776 40.4283 43.0776 40.4343 43.0776C40.4403 43.0776 40.4463 43.0776 40.4523 43.0776C40.4583 43.0776 40.4643 43.0776 40.4704 43.0776C40.4764 43.0776 40.4824 43.0776 40.4885 43.0776C40.4945 43.0776 40.5005 43.0776 40.5066 43.0776C40.5126 43.0776 40.5187 43.0776 40.5247 43.0776C40.5308 43.0776 40.5368 43.0776 40.5429 43.0776C40.5489 43.0776 40.555 43.0776 40.5611 43.0776C40.5671 43.0776 40.5732 43.0776 40.5793 43.0776C40.5854 43.0776 40.5915 43.0776 40.5975 43.0776C40.6036 43.0776 40.6097 43.0776 40.6158 43.0776C40.6219 43.0776 40.628 43.0776 40.6341 43.0776C40.6402 43.0776 40.6463 43.0776 40.6525 43.0776C40.6586 43.0776 40.6647 43.0776 40.6708 43.0776C40.6769 43.0776 40.6831 43.0776 40.6892 43.0776C40.6953 43.0776 40.7015 43.0776 40.7076 43.0776C40.7138 43.0776 40.7199 43.0776 40.7261 43.0776C40.7322 43.0776 40.7384 43.0776 40.7445 43.0776C40.7507 43.0776 40.7569 43.0776 40.763 43.0776C40.7692 43.0776 40.7754 43.0776 40.7816 43.0776C40.7877 43.0776 40.7939 43.0776 40.8001 43.0776C40.8063 43.0776 40.8125 43.0776 40.8187 43.0776C40.8249 43.0776 40.8311 43.0776 40.8373 43.0776C40.8435 43.0776 40.8497 43.0776 40.856 43.0776C40.8622 43.0776 40.8684 43.0776 40.8746 43.0776C40.8809 43.0776 40.8871 43.0776 40.8933 43.0776C40.8996 43.0776 40.9058 43.0776 40.9121 43.0776C40.9183 43.0776 40.9246 43.0776 40.9308 43.0776C40.9371 43.0776 40.9434 43.0776 40.9496 43.0776C40.9559 43.0776 40.9622 43.0776 40.9684 43.0776C40.9747 43.0776 40.981 43.0776 40.9873 43.0776C40.9936 43.0776 40.9999 43.0776 41.0062 43.0776C41.0125 43.0776 41.0188 43.0776 41.0251 43.0776C41.0314 43.0776 41.0377 43.0776 41.044 43.0776C41.0504 43.0776 41.0567 43.0776 41.063 43.0776C41.0693 43.0776 41.0757 43.0776 41.082 43.0776C41.0883 43.0776 41.0947 43.0776 41.101 43.0776C41.1074 43.0776 41.1137 43.0776 41.1201 43.0776C41.1265 43.0776 41.1328 43.0776 41.1392 43.0776C41.1456 43.0776 41.1519 43.0776 41.1583 43.0776C41.1647 43.0776 41.1711 43.0776 41.1775 43.0776C41.1839 43.0776 41.1903 43.0776 41.1967 43.0776C41.2031 43.0776 41.2095 43.0776 41.2159 43.0776C41.2223 43.0776 41.2287 43.0776 41.2352 43.0776C41.2416 43.0776 41.248 43.0776 41.2544 43.0776C41.2609 43.0776 41.2673 43.0776 41.2738 43.0776C41.2802 43.0776 41.2866 43.0776 41.2931 43.0776C41.2996 43.0776 41.306 43.0776 41.3125 43.0776C41.3189 43.0776 41.3254 43.0776 41.3319 43.0776C41.3384 43.0776 41.3449 43.0776 41.3513 43.0776C41.3578 43.0776 41.3643 43.0776 41.3708 43.0776C41.3773 43.0776 41.3838 43.0776 41.3903 43.0776C41.3968 43.0776 41.4034 43.0776 41.4099 43.0776C41.4164 43.0776 41.4229 43.0776 41.4295 43.0776C41.436 43.0776 41.4425 43.0776 41.4491 43.0776C41.4556 43.0776 41.4622 43.0776 41.4687 43.0776C41.4753 43.0776 41.4818 43.0776 41.4884 43.0776C41.495 43.0776 41.5015 43.0776 41.5081 43.0776C41.5147 43.0776 41.5213 43.0776 41.5278 43.0776C41.5344 43.0776 41.541 43.0776 41.5476 43.0776V41.0776Z" fill="#8C81F7"/>
<path d="M30.4484 42.0776C30.6135 41.2461 30.9323 40.9754 31.6725 40.8534H38.4053H39.0173L37.1811 42.3224L35.957 43.3017H31.6725C30.9323 43.1798 30.6135 42.9091 30.4484 42.0776Z" fill="white"/>
</svg>
