<svg width="28" height="28" viewBox="0 0 28 28" fill="none" xmlns="http://www.w3.org/2000/svg">
<path d="M15.9726 0.395541C14.7075 -0.131847 13.2925 -0.131847 12.0274 0.395541L8.9614 1.67385L22.3902 7.0433L27.1138 5.16759C26.9202 5.00236 26.703 4.86883 26.4698 4.77172L15.9726 0.395541V0.395541ZM28 7.12967L15.05 12.2746V27.9986C15.3636 27.9338 15.6716 27.8373 15.9726 27.7121L26.4698 23.3359C26.922 23.1476 27.3091 22.8248 27.5818 22.4088C27.8544 21.9928 28 21.5026 28 21.001V7.13111V7.12967ZM12.95 27.9986V12.2746L0 7.12967V21.0024C0.000275826 21.5038 0.14604 21.9937 0.418638 22.4094C0.691236 22.8251 1.07827 23.1477 1.5302 23.3359L12.0274 27.7121C12.3284 27.8373 12.6364 27.9323 12.95 28V27.9986ZM0.8862 5.16759L14 10.3773L19.4838 8.1978L6.1236 2.85714L1.5302 4.77172C1.2922 4.87105 1.0766 5.00492 0.8862 5.16759V5.16759Z" fill="#8C81F7"/>
</svg>
