<svg width="24" height="32" viewBox="0 0 24 32" fill="none" xmlns="http://www.w3.org/2000/svg">
<path d="M4 0.5C1.79375 0.5 0 2.2377 0 4.375V27.625C0 29.7623 1.79375 31.5 4 31.5H20C22.2062 31.5 24 29.7623 24 27.625V10.1875H16C14.8937 10.1875 14 9.32168 14 8.25V0.5H4ZM16 0.5V8.25H24L16 0.5ZM4 5.34375C4 4.81094 4.45 4.375 5 4.375H9C9.55 4.375 10 4.81094 10 5.34375C10 5.87656 9.55 6.3125 9 6.3125H5C4.45 6.3125 4 5.87656 4 5.34375ZM4 9.21875C4 8.68594 4.45 8.25 5 8.25H9C9.55 8.25 10 8.68594 10 9.21875C10 9.75156 9.55 10.1875 9 10.1875H5C4.45 10.1875 4 9.75156 4 9.21875ZM12 13.5781C12.55 13.5781 13 14.0141 13 14.5469V15.5943C13.5312 15.667 14.0438 15.782 14.5063 15.9031C15.0375 16.0424 15.3562 16.5691 15.2125 17.0898C15.0687 17.6105 14.525 17.9133 13.9875 17.774C13.2938 17.5924 12.6125 17.4592 11.9812 17.4531C11.4562 17.4471 10.8938 17.5621 10.5063 17.7861C10.15 17.992 10 18.2281 10 18.5611C10 18.7852 10.0813 18.9547 10.4563 19.1727C10.8875 19.4209 11.4937 19.6025 12.2812 19.8326L12.3125 19.8387C13.0188 20.0445 13.8938 20.2988 14.5813 20.7227C15.3375 21.1828 15.9812 21.9154 16 23.0355C16.0188 24.2041 15.4 25.0518 14.5688 25.5543C14.0875 25.8449 13.5437 26.0145 13 26.1053V27.1406C13 27.6734 12.55 28.1094 12 28.1094C11.45 28.1094 11 27.6734 11 27.1406V26.0629C10.3 25.9357 9.64375 25.7178 9.06875 25.524C8.9375 25.4816 8.80625 25.4393 8.68125 25.3969C8.15625 25.2273 7.875 24.6764 8.05 24.1738C8.225 23.6713 8.79375 23.3928 9.3125 23.5623C9.46875 23.6107 9.6125 23.6592 9.75625 23.7076C10.6063 23.9861 11.2937 24.2162 12.025 24.2344C12.5937 24.2525 13.1438 24.1314 13.5063 23.9135C13.825 23.7197 14 23.4715 13.9937 23.0658C13.9875 22.7873 13.8812 22.5936 13.5125 22.3635C13.0875 22.1031 12.4812 21.9154 11.7 21.6854L11.6 21.6551C10.9125 21.4553 10.0813 21.2131 9.425 20.8256C8.675 20.3896 8.0125 19.6812 8.00625 18.5672C8 17.3926 8.68125 16.5812 9.49375 16.115C9.9625 15.8486 10.4812 15.6791 11 15.5883V14.5469C11 14.0141 11.45 13.5781 12 13.5781V13.5781Z" fill="#8C81F7"/>
</svg>
