<svg width="32" height="22" viewBox="0 0 32 22" fill="none" xmlns="http://www.w3.org/2000/svg">
<path d="M31.0575 1.55281C29.118 0.790156 27.1771 0.5 25.2371 0.5C19.0787 0.499531 12.9208 3.42219 6.76239 3.42219C5.21792 3.42219 3.67444 3.23844 2.12997 2.77906C1.95647 2.7275 1.78247 2.70312 1.61247 2.70312C0.751988 2.70312 0 3.3275 0 4.19422V19.0658C0 19.6578 0.361494 20.2189 0.941985 20.4467C2.88146 21.2098 4.82242 21.5 6.76239 21.5C12.9208 21.5 19.0792 18.5773 25.2376 18.5773C26.7821 18.5773 28.3256 18.7611 29.87 19.2205C30.0435 19.272 30.2175 19.2964 30.3875 19.2964C31.248 19.2964 32 18.672 32 17.8053V2.93422C31.9995 2.34172 31.638 1.78109 31.0575 1.55281V1.55281ZM2.39996 5.19781C3.40595 5.43406 4.45593 5.55266 5.53591 5.61641C5.24192 6.99406 3.94994 8.03234 2.39996 8.03234V5.19781ZM2.39996 18.5572V16.3175C4.11844 16.3175 5.50891 17.5958 5.58541 19.1956C4.45893 19.1108 3.40595 18.8998 2.39996 18.5572V18.5572ZM15.9997 15.5C13.7903 15.5 11.9998 13.4848 11.9998 11C11.9998 8.51469 13.7908 6.5 15.9997 6.5C18.2087 6.5 19.9997 8.51469 19.9997 11C19.9997 13.4858 18.2082 15.5 15.9997 15.5ZM29.5995 16.8022C28.7236 16.5964 27.8141 16.4811 26.8836 16.4066C27.1771 15.1841 28.2586 14.2559 29.5995 14.0966V16.8022ZM29.5995 5.73453C28.0551 5.55125 26.8566 4.34234 26.8091 2.84938C27.7861 2.95109 28.7136 3.14141 29.5995 3.44281V5.73453Z" fill="#8C81F7"/>
</svg>
