<svg width="56" height="56" viewBox="0 0 56 56" fill="none" xmlns="http://www.w3.org/2000/svg">
<path fill-rule="evenodd" clip-rule="evenodd" d="M15.2 12C14.3513 12 13.5374 12.3371 12.9373 12.9373C12.3371 13.5374 12 14.3513 12 15.2V32.2667C12 33.1154 12.3371 33.9293 12.9373 34.5294C13.5374 35.1295 14.3513 35.4667 15.2 35.4667H22.6667V41.8667H16.2667V44H39.7333V41.8667H33.3333V35.4667H40.8C41.6487 35.4667 42.4626 35.1295 43.0627 34.5294C43.6629 33.9293 44 33.1154 44 32.2667V15.2C44 14.3513 43.6629 13.5374 43.0627 12.9373C42.4626 12.3371 41.6487 12 40.8 12H15.2ZM24.8 41.8667V35.4667H31.2V41.8667H24.8Z" fill="#8C81F7"/>
<path d="M33.9391 27.5281L32.2156 26.5328C32.1873 26.5166 32.1561 26.5061 32.1237 26.502C32.0913 26.4978 32.0585 26.5001 32.027 26.5087C31.9955 26.5172 31.966 26.5319 31.9402 26.5519C31.9144 26.5718 31.8928 26.5967 31.8766 26.625L31.5656 27.1641C31.4969 27.2828 31.5375 27.4359 31.6562 27.5047L33.3797 28.5C33.408 28.5162 33.4392 28.5267 33.4716 28.5308C33.504 28.535 33.5368 28.5327 33.5683 28.5241C33.5998 28.5156 33.6293 28.5009 33.6551 28.4809C33.6809 28.461 33.7025 28.4361 33.7188 28.4078L34.0297 27.8687C34.0984 27.75 34.0562 27.5969 33.9391 27.5281ZM31.875 21.375C31.8912 21.4033 31.9128 21.4282 31.9386 21.4481C31.9645 21.4681 31.994 21.4828 32.0254 21.4913C32.0569 21.4999 32.0898 21.5022 32.1222 21.498C32.1545 21.4939 32.1857 21.4834 32.2141 21.4672L33.9375 20.4719C34.0562 20.4031 34.0969 20.25 34.0281 20.1313L33.7188 19.5938C33.7025 19.5654 33.6809 19.5406 33.6551 19.5206C33.6293 19.5007 33.5998 19.486 33.5683 19.4774C33.5368 19.4689 33.504 19.4666 33.4716 19.4707C33.4392 19.4749 33.408 19.4853 33.3797 19.5016L31.6562 20.4969C31.5992 20.5301 31.5576 20.5847 31.5406 20.6485C31.5237 20.7123 31.5326 20.7803 31.5656 20.8375L31.875 21.375ZM34.5938 23.4375H32.5938C32.4562 23.4375 32.3438 23.55 32.3438 23.6875V24.3125C32.3438 24.45 32.4562 24.5625 32.5938 24.5625H34.5938C34.7313 24.5625 34.8438 24.45 34.8438 24.3125V23.6875C34.8438 23.55 34.7313 23.4375 34.5938 23.4375ZM29.7797 17.7969C29.6875 17.7969 29.5938 17.8219 29.5078 17.8797L23.9688 21.5H21.4062C21.2687 21.5 21.1562 21.6125 21.1562 21.75V26.25C21.1562 26.3875 21.2687 26.5 21.4062 26.5H23.9688L29.5078 30.1203C29.5938 30.1766 29.6891 30.2031 29.7797 30.2031C30.0406 30.2031 30.2812 29.9953 30.2812 29.7016V18.2984C30.2812 18.0047 30.0406 17.7969 29.7797 17.7969Z" fill="white"/>
</svg>
