<svg width="53" height="24" viewBox="0 0 53 24" fill="none" xmlns="http://www.w3.org/2000/svg">
<rect x="-0.5" y="0.5" width="23" height="23" rx="3.5" transform="matrix(-1 0 0 1 23.5 0)" fill="white"/>
<path d="M17.3088 8.17609C17.4312 8.28888 17.5 8.44183 17.5 8.60131C17.5 8.76079 17.4312 8.91374 17.3088 9.02652L14.0763 12.0036L17.3088 14.9807C17.4278 15.0942 17.4936 15.2461 17.4921 15.4038C17.4906 15.5615 17.4219 15.7123 17.3008 15.8238C17.1798 15.9354 17.016 15.9986 16.8448 16C16.6735 16.0013 16.5086 15.9407 16.3854 15.8312L12.6912 12.4288C12.5688 12.3161 12.5 12.1631 12.5 12.0036C12.5 11.8442 12.5688 11.6912 12.6912 11.5784L16.3854 8.17609C16.5079 8.06334 16.6739 8 16.8471 8C17.0203 8 17.1863 8.06334 17.3088 8.17609V8.17609Z" fill="#858585"/>
<path d="M12.3088 8.17609C12.4312 8.28888 12.5 8.44183 12.5 8.60131C12.5 8.76079 12.4312 8.91374 12.3088 9.02652L9.07628 12.0036L12.3088 14.9807C12.4278 15.0942 12.4936 15.2461 12.4921 15.4038C12.4906 15.5615 12.4219 15.7123 12.3008 15.8238C12.1798 15.9354 12.016 15.9986 11.8448 16C11.6735 16.0013 11.5086 15.9407 11.3854 15.8312L7.6912 12.4288C7.56877 12.3161 7.5 12.1631 7.5 12.0036C7.5 11.8442 7.56877 11.6912 7.6912 11.5784L11.3854 8.17609C11.5079 8.06334 11.6739 8 11.8471 8C12.0203 8 12.1863 8.06334 12.3088 8.17609V8.17609Z" fill="#858585"/>
<rect x="-0.5" y="0.5" width="23" height="23" rx="3.5" transform="matrix(-1 0 0 1 23.5 0)" stroke="#F4F4F4"/>
<rect x="-0.5" y="0.5" width="23" height="23" rx="3.5" transform="matrix(-1 0 0 1 51.5 0)" fill="white"/>
<path d="M42.8088 8.17609C42.9312 8.28888 43 8.44183 43 8.60131C43 8.76079 42.9312 8.91374 42.8088 9.02652L39.5763 12.0036L42.8088 14.9807C42.9278 15.0942 42.9936 15.2461 42.9921 15.4038C42.9906 15.5615 42.9219 15.7123 42.8008 15.8238C42.6798 15.9354 42.516 15.9986 42.3448 16C42.1735 16.0013 42.0086 15.9407 41.8854 15.8312L38.1912 12.4288C38.0688 12.3161 38 12.1631 38 12.0036C38 11.8442 38.0688 11.6912 38.1912 11.5784L41.8854 8.17609C42.0079 8.06334 42.1739 8 42.3471 8C42.5203 8 42.6863 8.06334 42.8088 8.17609V8.17609Z" fill="#858585"/>
<rect x="-0.5" y="0.5" width="23" height="23" rx="3.5" transform="matrix(-1 0 0 1 51.5 0)" stroke="#F4F4F4"/>
</svg>
