<svg width="53" height="24" viewBox="0 0 53 24" fill="none" xmlns="http://www.w3.org/2000/svg">
<rect x="1" y="0.5" width="23" height="23" rx="3.5" fill="white"/>
<path d="M10.1912 8.17609C10.0688 8.28888 10 8.44183 10 8.60131C10 8.76079 10.0688 8.91374 10.1912 9.02652L13.4237 12.0036L10.1912 14.9807C10.0722 15.0942 10.0064 15.2461 10.0079 15.4038C10.0094 15.5615 10.0781 15.7123 10.1992 15.8238C10.3202 15.9354 10.484 15.9986 10.6552 16C10.8265 16.0013 10.9914 15.9407 11.1146 15.8312L14.8088 12.4288C14.9312 12.3161 15 12.1631 15 12.0036C15 11.8442 14.9312 11.6912 14.8088 11.5784L11.1146 8.17609C10.9921 8.06334 10.8261 8 10.6529 8C10.4797 8 10.3137 8.06334 10.1912 8.17609V8.17609Z" fill="black"/>
<rect x="1" y="0.5" width="23" height="23" rx="3.5" stroke="#F4F4F4"/>
<rect x="29" y="0.5" width="23" height="23" rx="3.5" fill="white"/>
<path d="M35.6912 8.17609C35.5688 8.28888 35.5 8.44183 35.5 8.60131C35.5 8.76079 35.5688 8.91374 35.6912 9.02652L38.9237 12.0036L35.6912 14.9807C35.5722 15.0942 35.5064 15.2461 35.5079 15.4038C35.5094 15.5615 35.5781 15.7123 35.6992 15.8238C35.8202 15.9354 35.984 15.9986 36.1552 16C36.3265 16.0013 36.4914 15.9407 36.6146 15.8312L40.3088 12.4288C40.4312 12.3161 40.5 12.1631 40.5 12.0036C40.5 11.8442 40.4312 11.6912 40.3088 11.5784L36.6146 8.17609C36.4921 8.06334 36.3261 8 36.1529 8C35.9797 8 35.8137 8.06334 35.6912 8.17609V8.17609Z" fill="black"/>
<path d="M40.6912 8.17609C40.5688 8.28888 40.5 8.44183 40.5 8.60131C40.5 8.76079 40.5688 8.91374 40.6912 9.02652L43.9237 12.0036L40.6912 14.9807C40.5722 15.0942 40.5064 15.2461 40.5079 15.4038C40.5094 15.5615 40.5781 15.7123 40.6992 15.8238C40.8202 15.9354 40.984 15.9986 41.1552 16C41.3265 16.0013 41.4914 15.9407 41.6146 15.8312L45.3088 12.4288C45.4312 12.3161 45.5 12.1631 45.5 12.0036C45.5 11.8442 45.4312 11.6912 45.3088 11.5784L41.6146 8.17609C41.4921 8.06334 41.3261 8 41.1529 8C40.9797 8 40.8137 8.06334 40.6912 8.17609V8.17609Z" fill="black"/>
<rect x="29" y="0.5" width="23" height="23" rx="3.5" stroke="#F4F4F4"/>
</svg>
