<svg width="8" height="8" viewBox="0 0 8 8" fill="none" xmlns="http://www.w3.org/2000/svg">
<g clip-path="url(#clip0_26_1044)">
<path d="M2.62486 7.33341C2.23765 7.3334 1.85914 7.2186 1.53718 7.0035C1.21523 6.78841 0.964282 6.48269 0.81608 6.12501C0.667878 5.76732 0.629073 5.37372 0.704571 4.99398C0.78007 4.61424 0.966482 4.26541 1.24024 3.9916L2.07077 3.16075L2.62447 3.71439L1.79393 4.54485C1.5736 4.76515 1.44983 5.06395 1.44983 5.3755C1.44983 5.68706 1.5736 5.98586 1.79393 6.20616C2.01425 6.42646 2.31308 6.55023 2.62466 6.55023C2.93625 6.55023 3.23507 6.42646 3.45539 6.20616L4.28554 5.3757L4.83962 5.92973L4.00909 6.76019C3.82764 6.94251 3.61185 7.08704 3.37418 7.18544C3.13651 7.28383 2.8817 7.33412 2.62447 7.33341H2.62486ZM2.9017 5.65252L2.34801 5.09888L5.11647 2.33029L5.67055 2.88393L2.90209 5.65213L2.9017 5.65252V5.65252ZM5.94779 4.82206L5.39371 4.26842L6.22385 3.43796C6.33608 3.32963 6.4256 3.20004 6.4872 3.05675C6.5488 2.91345 6.58124 2.75932 6.58263 2.60336C6.58403 2.44739 6.55434 2.29271 6.49531 2.14834C6.43627 2.00397 6.34908 1.8728 6.23881 1.76249C6.12853 1.65217 5.99739 1.56492 5.85304 1.50583C5.70868 1.44673 5.554 1.41698 5.39802 1.41829C5.24204 1.41961 5.08788 1.45198 4.94454 1.51351C4.80121 1.57503 4.67156 1.66449 4.56317 1.77665L3.73224 2.60711L3.17855 2.05347L4.00909 1.22262C4.37783 0.863186 4.87336 0.663489 5.38831 0.666788C5.90327 0.670087 6.39619 0.876117 6.7603 1.24025C7.12441 1.60437 7.33039 2.09728 7.33362 2.61219C7.33685 3.1271 7.13706 3.62255 6.77754 3.99121L5.9474 4.82167V4.82206H5.94779Z" fill="#8C81F7"/>
</g>
<defs>
<clipPath id="clip0_26_1044">
<rect width="8" height="8" fill="white"/>
</clipPath>
</defs>
</svg>
