<svg width="30" height="60" viewBox="0 0 30 60" fill="none" xmlns="http://www.w3.org/2000/svg">
<path d="M12.202 40.8259L13.0057 40.6732V38H12.006C9.22305 38 7.10182 38.7311 5.69932 40.1734C3.812 42.1155 4.00194 44.6095 4.00793 44.6379V52.2241C4.00793 52.4756 4.11325 52.7168 4.30072 52.8947C4.48819 53.0725 4.74245 53.1724 5.00757 53.1724H12.005C13.1076 53.1724 14.0043 52.3218 14.0043 51.2759V44.6379C14.0043 44.3864 13.899 44.1452 13.7115 43.9674C13.5241 43.7896 13.2698 43.6897 13.0047 43.6897H8.92716C8.94915 43.3084 9.05011 42.8248 9.356 42.3659C9.86482 41.6063 10.8215 41.0885 12.202 40.8259Z" fill="#7BB8FD"/>
<path d="M17.799 57.1741L16.9953 57.3259V60H17.9949C20.7769 60 22.8992 59.2689 24.3017 57.8266C26.188 55.8845 25.9981 53.3905 25.9921 53.3621V45.7759C25.9921 45.5244 25.8867 45.2832 25.6993 45.1053C25.5118 44.9275 25.2575 44.8276 24.9924 44.8276H17.9949C16.8923 44.8276 15.9957 45.6782 15.9957 46.7241V53.3621C15.9957 53.6136 16.101 53.8548 16.2885 54.0326C16.4759 54.2104 16.7302 54.3103 16.9953 54.3103H21.0718C21.0507 54.7792 20.9031 55.235 20.643 55.6341C20.1362 56.3937 19.1795 56.9115 17.799 57.1741Z" fill="#7BB8FD"/>
</svg>
