<svg width="30" height="72" viewBox="0 0 30 72" fill="none" xmlns="http://www.w3.org/2000/svg">
<path d="M12.202 27.8259L13.0057 27.6732V25H12.006C9.22305 25 7.10182 25.7311 5.69932 27.1734C3.812 29.1155 4.00194 31.6095 4.00793 31.6379V39.2241C4.00793 39.4756 4.11325 39.7168 4.30072 39.8947C4.48819 40.0725 4.74245 40.1724 5.00757 40.1724H12.005C13.1076 40.1724 14.0043 39.3218 14.0043 38.2759V31.6379C14.0043 31.3864 13.899 31.1452 13.7115 30.9674C13.5241 30.7896 13.2698 30.6897 13.0047 30.6897H8.92716C8.94915 30.3084 9.05011 29.8248 9.356 29.3659C9.86482 28.6063 10.8215 28.0885 12.202 27.8259Z" fill="#FFB752"/>
<path d="M17.799 44.1741L16.9953 44.3259V47H17.9949C20.7769 47 22.8992 46.2689 24.3017 44.8266C26.188 42.8845 25.9981 40.3905 25.9921 40.3621V32.7759C25.9921 32.5244 25.8867 32.2832 25.6993 32.1053C25.5118 31.9275 25.2575 31.8276 24.9924 31.8276H17.9949C16.8923 31.8276 15.9957 32.6782 15.9957 33.7241V40.3621C15.9957 40.6136 16.101 40.8548 16.2885 41.0326C16.4759 41.2104 16.7302 41.3103 16.9953 41.3103H21.0718C21.0507 41.7792 20.9031 42.235 20.643 42.6341C20.1362 43.3937 19.1795 43.9115 17.799 44.1741Z" fill="#FFB752"/>
</svg>
