<svg width="37" height="36" viewBox="0 0 37 36" fill="none" xmlns="http://www.w3.org/2000/svg">
<rect x="1.25" y="0.75" width="34.5" height="34.5" rx="17.25" fill="white"/>
<path d="M18.5 10C16.5204 10.006 14.6082 10.6984 13.109 11.952C11.96 12.912 11.1275 14.1629 10.913 15.4182C8.399 15.9564 6.5 18.08 6.5 20.6444C6.5 23.6233 9.062 26 12.1715 26H25.5305C28.253 26 30.5 23.92 30.5 21.3062C30.5 18.9265 28.637 16.9876 26.249 16.6604C25.8845 12.9076 22.535 10 18.5 10ZM22.031 17.4851C22.1007 17.5527 22.156 17.633 22.1938 17.7213C22.2315 17.8097 22.2509 17.9044 22.2509 18C22.2509 18.0956 22.2315 18.1903 22.1938 18.2787C22.156 18.367 22.1007 18.4473 22.031 18.5149C21.9613 18.5825 21.8785 18.6362 21.7874 18.6728C21.6963 18.7094 21.5986 18.7282 21.5 18.7282C21.4014 18.7282 21.3037 18.7094 21.2126 18.6728C21.1215 18.6362 21.0387 18.5825 20.969 18.5149L19.25 16.8465V22.3636C19.25 22.5565 19.171 22.7415 19.0303 22.8779C18.8897 23.0143 18.6989 23.0909 18.5 23.0909C18.3011 23.0909 18.1103 23.0143 17.9697 22.8779C17.829 22.7415 17.75 22.5565 17.75 22.3636V16.8465L16.031 18.5149C15.8902 18.6515 15.6992 18.7282 15.5 18.7282C15.3008 18.7282 15.1098 18.6515 14.969 18.5149C14.8282 18.3783 14.7491 18.1931 14.7491 18C14.7491 17.8069 14.8282 17.6217 14.969 17.4851L17.969 14.576C18.0387 14.5083 18.1214 14.4545 18.2125 14.4179C18.3037 14.3812 18.4013 14.3623 18.5 14.3623C18.5987 14.3623 18.6963 14.3812 18.7874 14.4179C18.8786 14.4545 18.9613 14.5083 19.031 14.576L22.031 17.4851Z" fill="#A09F9F"/>
<rect x="1.25" y="0.75" width="34.5" height="34.5" rx="17.25" stroke="#A09F9F" stroke-width="1.5"/>
</svg>
