<svg width="36" height="36" viewBox="0 0 36 36" fill="none" xmlns="http://www.w3.org/2000/svg">
<rect x="0.75" y="0.75" width="34.5" height="34.5" rx="17.25" fill="white"/>
<path d="M18 10C16.0204 10.006 14.1082 10.6984 12.609 11.952C11.46 12.912 10.6275 14.1629 10.413 15.4182C7.899 15.9564 6 18.08 6 20.6444C6 23.6233 8.562 26 11.6715 26H25.0305C27.753 26 30 23.92 30 21.3062C30 18.9265 28.137 16.9876 25.749 16.6604C25.3845 12.9076 22.035 10 18 10ZM21.531 17.4851C21.6007 17.5527 21.656 17.633 21.6938 17.7213C21.7315 17.8097 21.7509 17.9044 21.7509 18C21.7509 18.0956 21.7315 18.1903 21.6938 18.2787C21.656 18.367 21.6007 18.4473 21.531 18.5149C21.4613 18.5825 21.3785 18.6362 21.2874 18.6728C21.1963 18.7094 21.0986 18.7282 21 18.7282C20.9014 18.7282 20.8037 18.7094 20.7126 18.6728C20.6215 18.6362 20.5387 18.5825 20.469 18.5149L18.75 16.8465V22.3636C18.75 22.5565 18.671 22.7415 18.5303 22.8779C18.3897 23.0143 18.1989 23.0909 18 23.0909C17.8011 23.0909 17.6103 23.0143 17.4697 22.8779C17.329 22.7415 17.25 22.5565 17.25 22.3636V16.8465L15.531 18.5149C15.3902 18.6515 15.1992 18.7282 15 18.7282C14.8008 18.7282 14.6098 18.6515 14.469 18.5149C14.3282 18.3783 14.2491 18.1931 14.2491 18C14.2491 17.8069 14.3282 17.6217 14.469 17.4851L17.469 14.576C17.5387 14.5083 17.6214 14.4545 17.7125 14.4179C17.8037 14.3812 17.9013 14.3623 18 14.3623C18.0987 14.3623 18.1963 14.3812 18.2874 14.4179C18.3786 14.4545 18.4613 14.5083 18.531 14.576L21.531 17.4851Z" fill="#E5E5E5"/>
<rect x="0.75" y="0.75" width="34.5" height="34.5" rx="17.25" stroke="#E5E5E5" stroke-width="1.5"/>
</svg>
