<svg width="12" height="8" viewBox="0 0 12 8" fill="none" xmlns="http://www.w3.org/2000/svg">
<path d="M6 0C5.01018 0.00300983 4.05411 0.349189 3.3045 0.976C2.73 1.456 2.31375 2.08145 2.2065 2.70909C0.9495 2.97818 0 4.04 0 5.32218C0 6.81164 1.281 8 2.83575 8H9.51525C10.8765 8 12 6.96 12 5.65309C12 4.46327 11.0685 3.49382 9.8745 3.33018C9.69225 1.45382 8.0175 0 6 0ZM7.7655 3.74255C7.80037 3.77635 7.82802 3.81649 7.84689 3.86067C7.86576 3.90484 7.87547 3.95219 7.87547 4C7.87547 4.04781 7.86576 4.09516 7.84689 4.13933C7.82802 4.18351 7.80037 4.22365 7.7655 4.25745C7.73063 4.29126 7.68924 4.31808 7.64369 4.33638C7.59813 4.35468 7.54931 4.3641 7.5 4.3641C7.45069 4.3641 7.40187 4.35468 7.35631 4.33638C7.31076 4.31808 7.26937 4.29126 7.2345 4.25745L6.375 3.42327V6.18182C6.375 6.27826 6.33549 6.37075 6.26517 6.43895C6.19484 6.50714 6.09946 6.54545 6 6.54545C5.90054 6.54545 5.80516 6.50714 5.73484 6.43895C5.66451 6.37075 5.625 6.27826 5.625 6.18182V3.42327L4.7655 4.25745C4.69509 4.32574 4.59958 4.3641 4.5 4.3641C4.40042 4.3641 4.30491 4.32574 4.2345 4.25745C4.16408 4.18917 4.12453 4.09656 4.12453 4C4.12453 3.90344 4.16408 3.81083 4.2345 3.74255L5.7345 2.288C5.76933 2.25414 5.81072 2.22727 5.85627 2.20894C5.90183 2.1906 5.95067 2.18117 6 2.18117C6.04933 2.18117 6.09817 2.1906 6.14372 2.20894C6.18928 2.22727 6.23067 2.25414 6.2655 2.288L7.7655 3.74255Z" fill="#8C81F7"/>
</svg>
