<svg width="22" height="22" viewBox="0 0 22 22" fill="none" xmlns="http://www.w3.org/2000/svg">
<path d="M9.1912 15.8019C9.06877 15.675 9 15.5029 9 15.3235C9 15.1441 9.06877 14.972 9.1912 14.8452L12.4237 11.4959L9.1912 8.14667C9.07224 8.01906 9.00642 7.84814 9.00791 7.67074C9.0094 7.49333 9.07808 7.32363 9.19915 7.19818C9.32023 7.07273 9.48402 7.00157 9.65524 7.00003C9.82647 6.99848 9.99143 7.06668 10.1146 7.18993L13.8088 11.0175C13.9312 11.1444 14 11.3165 14 11.4959C14 11.6753 13.9312 11.8474 13.8088 11.9743L10.1146 15.8019C9.99213 15.9287 9.82606 16 9.65289 16C9.47973 16 9.31366 15.9287 9.1912 15.8019V15.8019Z" fill="#BEBEBE"/>
</svg>
