<svg width="22" height="22" viewBox="0 0 22 22" fill="none" xmlns="http://www.w3.org/2000/svg">
<path d="M7.25 12.125C6.95163 12.125 6.66548 12.0065 6.4545 11.7955C6.24353 11.5845 6.125 11.2984 6.125 11C6.125 10.7016 6.24353 10.4155 6.4545 10.2045C6.66548 9.99353 6.95163 9.875 7.25 9.875C7.54837 9.875 7.83452 9.99353 8.0455 10.2045C8.25647 10.4155 8.375 10.7016 8.375 11C8.375 11.2984 8.25647 11.5845 8.0455 11.7955C7.83452 12.0065 7.54837 12.125 7.25 12.125ZM11 12.125C10.7016 12.125 10.4155 12.0065 10.2045 11.7955C9.99353 11.5845 9.875 11.2984 9.875 11C9.875 10.7016 9.99353 10.4155 10.2045 10.2045C10.4155 9.99353 10.7016 9.875 11 9.875C11.2984 9.875 11.5845 9.99353 11.7955 10.2045C12.0065 10.4155 12.125 10.7016 12.125 11C12.125 11.2984 12.0065 11.5845 11.7955 11.7955C11.5845 12.0065 11.2984 12.125 11 12.125ZM14.75 12.125C14.4516 12.125 14.1655 12.0065 13.9545 11.7955C13.7435 11.5845 13.625 11.2984 13.625 11C13.625 10.7016 13.7435 10.4155 13.9545 10.2045C14.1655 9.99353 14.4516 9.875 14.75 9.875C15.0484 9.875 15.3345 9.99353 15.5455 10.2045C15.7565 10.4155 15.875 10.7016 15.875 11C15.875 11.2984 15.7565 11.5845 15.5455 11.7955C15.3345 12.0065 15.0484 12.125 14.75 12.125Z" fill="#BEBEBE"/>
</svg>
