<svg width="22" height="22" viewBox="0 0 22 22" fill="none" xmlns="http://www.w3.org/2000/svg">
<path d="M12.8088 15.8019C12.9312 15.675 13 15.5029 13 15.3235C13 15.1441 12.9312 14.972 12.8088 14.8452L9.57628 11.4959L12.8088 8.14667C12.9278 8.01906 12.9936 7.84814 12.9921 7.67074C12.9906 7.49333 12.9219 7.32363 12.8008 7.19818C12.6798 7.07273 12.516 7.00157 12.3448 7.00003C12.1735 6.99848 12.0086 7.06668 11.8854 7.18993L8.1912 11.0175C8.06877 11.1444 8 11.3165 8 11.4959C8 11.6753 8.06877 11.8474 8.1912 11.9743L11.8854 15.8019C12.0079 15.9287 12.1739 16 12.3471 16C12.5203 16 12.6863 15.9287 12.8088 15.8019V15.8019Z" fill="#BEBEBE"/>
</svg>
