<svg width="2" height="10" viewBox="0 0 2 10" fill="none" xmlns="http://www.w3.org/2000/svg">
<path d="M2 8.46154C2 8.73696 1.89464 9.00109 1.70711 9.19584C1.51957 9.39059 1.26522 9.5 1 9.5C0.734784 9.5 0.480429 9.39059 0.292893 9.19584C0.105357 9.00109 0 8.73696 0 8.46154C0 8.18612 0.105357 7.92198 0.292893 7.72724C0.480429 7.53249 0.734784 7.42308 1 7.42308C1.26522 7.42308 1.51957 7.53249 1.70711 7.72724C1.89464 7.92198 2 8.18612 2 8.46154ZM2 5C2 5.27542 1.89464 5.53955 1.70711 5.7343C1.51957 5.92905 1.26522 6.03846 1 6.03846C0.734784 6.03846 0.480429 5.92905 0.292893 5.7343C0.105357 5.53955 0 5.27542 0 5C0 4.72458 0.105357 4.46045 0.292893 4.2657C0.480429 4.07095 0.734784 3.96154 1 3.96154C1.26522 3.96154 1.51957 4.07095 1.70711 4.2657C1.89464 4.46045 2 4.72458 2 5V5ZM2 1.53846C2 1.81388 1.89464 2.07802 1.70711 2.27276C1.51957 2.46751 1.26522 2.57692 1 2.57692C0.734784 2.57692 0.480429 2.46751 0.292893 2.27276C0.105357 2.07802 0 1.81388 0 1.53846C0 1.26304 0.105357 0.998908 0.292893 0.804158C0.480429 0.609409 0.734784 0.5 1 0.5C1.26522 0.5 1.51957 0.609409 1.70711 0.804158C1.89464 0.998908 2 1.26304 2 1.53846V1.53846Z" fill="black"/>
</svg>
