<svg width="28" height="22" viewBox="0 0 28 22" fill="none" xmlns="http://www.w3.org/2000/svg">
<path d="M14.5557 2.33333H24.8337C25.4737 2.33328 26.0893 2.57867 26.5538 3.01896C27.0183 3.45925 27.2962 4.06091 27.3303 4.7L27.3337 4.83333V13.862C26.3563 12.72 24.927 12 23.3337 12H16.667C13.7217 12 11.3337 14.4627 11.3337 17.5C11.3337 18.4 11.5437 19.25 11.915 20H3.16699C2.52699 20.0001 1.91135 19.7547 1.44687 19.3144C0.98239 18.8741 0.704459 18.2724 0.670326 17.6333L0.666992 17.5V6.666L9.86966 6.66667L10.0203 6.662C10.6706 6.62269 11.2798 6.33111 11.7183 5.84933L11.8163 5.73467L14.5557 2.33333ZM9.37433 0C9.92899 0 10.467 0.184667 10.9037 0.522667L11.0203 0.618667L12.6497 2.044L10.5183 4.68933L10.4557 4.75933C10.3223 4.89067 10.149 4.974 9.96299 4.99467L9.86966 5L0.666992 4.99933V2.5C0.666935 1.86 0.912327 1.24435 1.35262 0.779876C1.79291 0.315398 2.39457 0.0374666 3.03366 0.00333341L3.16699 0H9.37366H9.37433ZM16.8337 13.3333C15.7286 13.3333 14.6688 13.7723 13.8874 14.5537C13.106 15.3351 12.667 16.3949 12.667 17.5C12.667 18.6051 13.106 19.6649 13.8874 20.4463C14.6688 21.2277 15.7286 21.6667 16.8337 21.6667H17.8337C18.0547 21.6667 18.2666 21.5789 18.4229 21.4226C18.5792 21.2663 18.667 21.0543 18.667 20.8333C18.667 20.6123 18.5792 20.4004 18.4229 20.2441C18.2666 20.0878 18.0547 20 17.8337 20H16.8337C16.1706 20 15.5347 19.7366 15.0659 19.2678C14.5971 18.7989 14.3337 18.163 14.3337 17.5C14.3337 16.837 14.5971 16.2011 15.0659 15.7322C15.5347 15.2634 16.1706 15 16.8337 15H17.8337C18.0547 15 18.2666 14.9122 18.4229 14.7559C18.5792 14.5996 18.667 14.3877 18.667 14.1667C18.667 13.9457 18.5792 13.7337 18.4229 13.5774C18.2666 13.4211 18.0547 13.3333 17.8337 13.3333H16.8337ZM23.167 13.3333C24.2721 13.3333 25.3319 13.7723 26.1133 14.5537C26.8947 15.3351 27.3337 16.3949 27.3337 17.5C27.3337 18.6051 26.8947 19.6649 26.1133 20.4463C25.3319 21.2277 24.2721 21.6667 23.167 21.6667H22.167C21.946 21.6667 21.734 21.5789 21.5777 21.4226C21.4215 21.2663 21.3337 21.0543 21.3337 20.8333C21.3337 20.6123 21.4215 20.4004 21.5777 20.2441C21.734 20.0878 21.946 20 22.167 20H23.167C23.83 20 24.4659 19.7366 24.9348 19.2678C25.4036 18.7989 25.667 18.163 25.667 17.5C25.667 16.837 25.4036 16.2011 24.9348 15.7322C24.4659 15.2634 23.83 15 23.167 15H22.167C21.946 15 21.734 14.9122 21.5777 14.7559C21.4215 14.5996 21.3337 14.3877 21.3337 14.1667C21.3337 13.9457 21.4215 13.7337 21.5777 13.5774C21.734 13.4211 21.946 13.3333 22.167 13.3333H23.167ZM16.0003 17.5C16.0003 17.04 16.3737 16.6667 16.8337 16.6667H23.167C23.388 16.6667 23.6 16.7545 23.7562 16.9107C23.9125 17.067 24.0003 17.279 24.0003 17.5C24.0003 17.721 23.9125 17.933 23.7562 18.0893C23.6 18.2455 23.388 18.3333 23.167 18.3333H16.8337C16.3737 18.3333 16.0003 17.96 16.0003 17.5Z" fill="#8C81F7"/>
</svg>
