<svg width="32" height="32" viewBox="0 0 32 32" fill="none" xmlns="http://www.w3.org/2000/svg">
<path d="M16.5554 8.33333H26.8334C27.4734 8.33328 28.0891 8.57867 28.5535 9.01896C29.018 9.45925 29.2959 10.0609 29.3301 10.7L29.3334 10.8333V19.862C28.3561 18.72 26.9267 18 25.3334 18H18.6667C15.7214 18 13.3334 20.4627 13.3334 23.5C13.3334 24.4 13.5434 25.25 13.9147 26H5.16675C4.52675 26.0001 3.9111 25.7547 3.44662 25.3144C2.98215 24.8741 2.70421 24.2724 2.67008 23.6333L2.66675 23.5V12.666L11.8694 12.6667L12.0201 12.662C12.6703 12.6227 13.2796 12.3311 13.7181 11.8493L13.8161 11.7347L16.5554 8.33333V8.33333ZM11.3741 6C11.9287 6 12.4667 6.18467 12.9034 6.52267L13.0201 6.61867L14.6494 8.044L12.5181 10.6893L12.4554 10.7593C12.3221 10.8907 12.1487 10.974 11.9627 10.9947L11.8694 11L2.66675 10.9993V8.5C2.66669 7.86 2.91208 7.24435 3.35238 6.77988C3.79267 6.3154 4.39433 6.03747 5.03341 6.00333L5.16675 6H11.3734H11.3741ZM18.8334 19.3333C17.7283 19.3333 16.6685 19.7723 15.8871 20.5537C15.1057 21.3351 14.6667 22.3949 14.6667 23.5C14.6667 24.6051 15.1057 25.6649 15.8871 26.4463C16.6685 27.2277 17.7283 27.6667 18.8334 27.6667H19.8334C20.0544 27.6667 20.2664 27.5789 20.4227 27.4226C20.579 27.2663 20.6667 27.0543 20.6667 26.8333C20.6667 26.6123 20.579 26.4004 20.4227 26.2441C20.2664 26.0878 20.0544 26 19.8334 26H18.8334C18.1704 26 17.5345 25.7366 17.0656 25.2678C16.5968 24.7989 16.3334 24.163 16.3334 23.5C16.3334 22.837 16.5968 22.2011 17.0656 21.7322C17.5345 21.2634 18.1704 21 18.8334 21H19.8334C20.0544 21 20.2664 20.9122 20.4227 20.7559C20.579 20.5996 20.6667 20.3877 20.6667 20.1667C20.6667 19.9457 20.579 19.7337 20.4227 19.5774C20.2664 19.4211 20.0544 19.3333 19.8334 19.3333H18.8334ZM25.1667 19.3333C26.2718 19.3333 27.3316 19.7723 28.113 20.5537C28.8944 21.3351 29.3334 22.3949 29.3334 23.5C29.3334 24.6051 28.8944 25.6649 28.113 26.4463C27.3316 27.2277 26.2718 27.6667 25.1667 27.6667H24.1667C23.9457 27.6667 23.7338 27.5789 23.5775 27.4226C23.4212 27.2663 23.3334 27.0543 23.3334 26.8333C23.3334 26.6123 23.4212 26.4004 23.5775 26.2441C23.7338 26.0878 23.9457 26 24.1667 26H25.1667C25.8298 26 26.4657 25.7366 26.9345 25.2678C27.4034 24.7989 27.6667 24.163 27.6667 23.5C27.6667 22.837 27.4034 22.2011 26.9345 21.7322C26.4657 21.2634 25.8298 21 25.1667 21H24.1667C23.9457 21 23.7338 20.9122 23.5775 20.7559C23.4212 20.5996 23.3334 20.3877 23.3334 20.1667C23.3334 19.9457 23.4212 19.7337 23.5775 19.5774C23.7338 19.4211 23.9457 19.3333 24.1667 19.3333H25.1667ZM18.0001 23.5C18.0001 23.04 18.3734 22.6667 18.8334 22.6667H25.1667C25.3878 22.6667 25.5997 22.7545 25.756 22.9107C25.9123 23.067 26.0001 23.279 26.0001 23.5C26.0001 23.721 25.9123 23.933 25.756 24.0893C25.5997 24.2455 25.3878 24.3333 25.1667 24.3333H18.8334C18.3734 24.3333 18.0001 23.96 18.0001 23.5Z" fill="#F26969"/>
</svg>
