<svg width="14" height="17" viewBox="0 0 14 17" fill="none" xmlns="http://www.w3.org/2000/svg">
<g clip-path="url(#clip0_4_705)">
<path d="M7 8.5C9.20937 8.5 11 6.70937 11 4.5C11 2.29063 9.20937 0.5 7 0.5C4.79063 0.5 3 2.29063 3 4.5C3 6.70937 4.79063 8.5 7 8.5ZM4 10.225C1.6875 10.9031 0 13.0406 0 15.5719C0 16.0844 0.415625 16.5 0.928125 16.5H13.0719C13.5844 16.5 14 16.0844 14 15.5719C14 13.0406 12.3125 10.9031 10 10.225V11.8125C10.8625 12.0344 11.5 12.8188 11.5 13.75V15C11.5 15.275 11.275 15.5 11 15.5H10.5C10.225 15.5 10 15.275 10 15C10 14.725 10.225 14.5 10.5 14.5V13.75C10.5 13.1969 10.0531 12.75 9.5 12.75C8.94687 12.75 8.5 13.1969 8.5 13.75V14.5C8.775 14.5 9 14.725 9 15C9 15.275 8.775 15.5 8.5 15.5H8C7.725 15.5 7.5 15.275 7.5 15V13.75C7.5 12.8188 8.1375 12.0344 9 11.8125V10.0281C8.8125 10.0094 8.62188 10 8.42813 10H5.57188C5.37813 10 5.1875 10.0094 5 10.0281V12.0719C5.72188 12.2875 6.25 12.9563 6.25 13.75C6.25 14.7156 5.46562 15.5 4.5 15.5C3.53438 15.5 2.75 14.7156 2.75 13.75C2.75 12.9563 3.27812 12.2875 4 12.0719V10.225V10.225ZM4.5 14.5C4.91563 14.5 5.25 14.1656 5.25 13.75C5.25 13.3344 4.91563 13 4.5 13C4.08437 13 3.75 13.3344 3.75 13.75C3.75 14.1656 4.08437 14.5 4.5 14.5Z" fill="#8C81F7"/>
</g>
<defs>
<clipPath id="clip0_4_705">
<rect width="14" height="16" fill="white" transform="translate(0 0.5)"/>
</clipPath>
</defs>
</svg>
