<svg width="16" height="16" viewBox="0 0 16 16" fill="none" xmlns="http://www.w3.org/2000/svg">
<g clip-path="url(#clip0_4_699)">
<path d="M0 3.22223C0 2.45605 0.304364 1.72125 0.846136 1.17948C1.38791 0.637708 2.12271 0.333344 2.88889 0.333344H13.1111C13.8773 0.333344 14.6121 0.637708 15.1539 1.17948C15.6956 1.72125 16 2.45605 16 3.22223V13.4445C16 14.2106 15.6956 14.9454 15.1539 15.4872C14.6121 16.029 13.8773 16.3333 13.1111 16.3333H2.88889C2.12271 16.3333 1.38791 16.029 0.846136 15.4872C0.304364 14.9454 0 14.2106 0 13.4445V3.22223ZM3.77778 10.1111C3.60097 10.1111 3.4314 10.1814 3.30637 10.3064C3.18135 10.4314 3.11111 10.601 3.11111 10.7778C3.11111 10.9546 3.18135 11.1242 3.30637 11.2492C3.4314 11.3742 3.60097 11.4445 3.77778 11.4445H6.88889C7.0657 11.4445 7.23527 11.3742 7.36029 11.2492C7.48532 11.1242 7.55556 10.9546 7.55556 10.7778C7.55556 10.601 7.48532 10.4314 7.36029 10.3064C7.23527 10.1814 7.0657 10.1111 6.88889 10.1111H3.77778ZM3.11111 5.8889C3.11111 6.2569 3.40978 6.55557 3.77778 6.55557H6.88889C7.0657 6.55557 7.23527 6.48533 7.36029 6.3603C7.48532 6.23528 7.55556 6.06571 7.55556 5.8889C7.55556 5.71209 7.48532 5.54252 7.36029 5.41749C7.23527 5.29247 7.0657 5.22223 6.88889 5.22223H3.77778C3.60097 5.22223 3.4314 5.29247 3.30637 5.41749C3.18135 5.54252 3.11111 5.71209 3.11111 5.8889V5.8889ZM13.1378 5.47112C13.2555 5.34474 13.3196 5.17759 13.3166 5.00488C13.3136 4.83217 13.2436 4.66738 13.1214 4.54524C12.9993 4.42309 12.8345 4.35312 12.6618 4.35008C12.4891 4.34703 12.3219 4.41114 12.1956 4.5289L10.8889 5.83557L10.4711 5.41779C10.4101 5.35229 10.3365 5.29975 10.2547 5.26332C10.1729 5.22688 10.0846 5.20729 9.99513 5.20571C9.90562 5.20413 9.8167 5.22059 9.73369 5.25412C9.65068 5.28765 9.57527 5.33756 9.51197 5.40087C9.44866 5.46417 9.39875 5.53958 9.36522 5.62259C9.33169 5.7056 9.31523 5.79452 9.31681 5.88403C9.31839 5.97354 9.33798 6.06182 9.37442 6.1436C9.41085 6.22538 9.46339 6.29898 9.52889 6.36001L10.4178 7.2489C10.5428 7.37374 10.7122 7.44387 10.8889 7.44387C11.0656 7.44387 11.235 7.37374 11.36 7.2489L13.1378 5.47112ZM13.1378 9.41779C13.0128 9.29294 12.8433 9.22282 12.6667 9.22282C12.49 9.22282 12.3206 9.29294 12.1956 9.41779L10.8889 10.7245L10.4711 10.3067C10.4101 10.2412 10.3365 10.1886 10.2547 10.1522C10.1729 10.1158 10.0846 10.0962 9.99513 10.0946C9.90562 10.093 9.8167 10.1095 9.73369 10.143C9.65068 10.1765 9.57527 10.2264 9.51197 10.2898C9.44866 10.3531 9.39875 10.4285 9.36522 10.5115C9.33169 10.5945 9.31523 10.6834 9.31681 10.7729C9.31839 10.8624 9.33798 10.9507 9.37442 11.0325C9.41085 11.1143 9.46339 11.1879 9.52889 11.2489L10.4178 12.1378C10.5428 12.2626 10.7122 12.3328 10.8889 12.3328C11.0656 12.3328 11.235 12.2626 11.36 12.1378L13.1378 10.36C13.2626 10.235 13.3327 10.0656 13.3327 9.8889C13.3327 9.71223 13.2626 9.54279 13.1378 9.41779V9.41779Z" fill="#8C81F7"/>
</g>
<defs>
<clipPath id="clip0_4_699">
<rect width="16" height="16" fill="white"/>
</clipPath>
</defs>
</svg>
