<svg width="68" height="32" viewBox="0 0 68 32" fill="none" xmlns="http://www.w3.org/2000/svg">
<path opacity="0.6" d="M2.89247 19.4663C3.9958 15.5751 7.9708 13.3863 12.0475 13.3111C13.8358 13.2759 15.6241 13.6311 17.4058 13.4903C20.5808 13.2471 23.3358 11.5111 25.3941 9.67113C27.7508 7.56393 29.5608 5.08553 32.0258 3.06153C37.2408 -1.21527 45.3341 -0.298469 51.3758 1.52713C53.5058 2.16713 55.5991 3.04553 57.3425 4.41833C59.0858 5.79113 60.4591 7.70793 60.8425 9.87753C61.1758 11.7175 60.7958 13.6711 61.4108 15.4391C62.2725 17.9143 65.0775 18.3191 66.6558 20.1735C68.6558 22.5223 68.3925 26.8295 65.7891 28.6375C64.6875 29.4023 63.3625 29.7735 62.0541 30.0775C55.9125 31.5063 49.5541 31.6679 43.3141 30.9271C37.6125 30.2503 31.8775 29.4983 26.1308 30.0839C20.6908 30.6375 15.0591 31.6695 9.66913 30.2087C5.62747 29.1143 2.25914 25.2359 2.6158 20.9703C2.65884 20.4618 2.75147 19.9583 2.89247 19.4663V19.4663Z" fill="#F2F0FF"/>
<path d="M47.5015 2.81982H22.8448C21.2855 2.81982 20.0215 4.03331 20.0215 5.53022V15.711C20.0215 17.2079 21.2855 18.4214 22.8448 18.4214H47.5015C49.0608 18.4214 50.3248 17.2079 50.3248 15.711V5.53022C50.3248 4.03331 49.0608 2.81982 47.5015 2.81982Z" fill="#DCD9FC"/>
<path d="M18.6654 27.1047H17.1954C16.4867 27.1047 15.9121 27.6563 15.9121 28.3367V28.3815C15.9121 29.062 16.4867 29.6135 17.1954 29.6135H18.6654C19.3742 29.6135 19.9488 29.062 19.9488 28.3815V28.3367C19.9488 27.6563 19.3742 27.1047 18.6654 27.1047Z" fill="#645AC6"/>
<path d="M19.623 29.2359L15.9063 28.2295C15.9063 28.2439 15.9063 28.2599 15.9063 28.2759V28.4487C15.9036 28.7556 16.028 29.0511 16.252 29.2701C16.4761 29.4891 16.7816 29.6137 17.1013 29.6167H18.7496C18.9149 29.6158 19.0781 29.5814 19.2286 29.5157C19.3791 29.4501 19.5135 29.3548 19.623 29.2359Z" fill="#302793"/>
<path d="M52.7491 24.5608H51.9191C51.4708 24.5608 51.1074 24.9096 51.1074 25.34V26.6216C51.1074 27.0519 51.4708 27.4008 51.9191 27.4008H52.7491C53.1974 27.4008 53.5608 27.0519 53.5608 26.6216V25.34C53.5608 24.9096 53.1974 24.5608 52.7491 24.5608Z" fill="#645AC6"/>
<path d="M51.4725 20.3896C51.4609 20.3853 51.4497 20.3799 51.4392 20.3736L47.3675 18.4216H22.7092L18.8975 20.38C18.62 20.5245 18.3884 20.7383 18.2273 20.9989C18.0662 21.2594 17.9816 21.557 17.9825 21.86V29.0296C17.9785 29.469 18.1564 29.8919 18.477 30.2054C18.7976 30.5189 19.2348 30.6974 19.6925 30.7016H50.6558C50.8824 30.6995 51.1062 30.6546 51.3147 30.5695C51.5231 30.4843 51.7121 30.3606 51.8707 30.2053C52.0294 30.05 52.1546 29.8663 52.2392 29.6646C52.3239 29.4629 52.3664 29.2471 52.3642 29.0296V21.8616C52.3663 21.5621 52.2847 21.2675 52.1279 21.0086C51.9711 20.7497 51.7447 20.5359 51.4725 20.3896V20.3896Z" fill="#8C81F7"/>
<path d="M22.6897 18.4216L18.873 20.38L51.4947 20.3928L47.3847 18.4216H22.6897Z" fill="#302793"/>
<path d="M47.3556 18.4104H22.709V20.3912H47.3556V18.4104Z" fill="#645AC6"/>
<path d="M42.1642 24.5112H27.7658C27.5155 24.5112 27.3125 24.7061 27.3125 24.9464V27.0792C27.3125 27.3196 27.5155 27.5144 27.7658 27.5144H42.1642C42.4145 27.5144 42.6175 27.3196 42.6175 27.0792V24.9464C42.6175 24.7061 42.4145 24.5112 42.1642 24.5112Z" fill="#645AC6"/>
<path d="M29.0295 26.7687C29.4557 26.7687 29.8011 26.4306 29.8011 26.0135C29.8011 25.5964 29.4557 25.2583 29.0295 25.2583C28.6033 25.2583 28.2578 25.5964 28.2578 26.0135C28.2578 26.4306 28.6033 26.7687 29.0295 26.7687Z" fill="#302793"/>
<path d="M41.1408 26.7687C41.567 26.7687 41.9125 26.4306 41.9125 26.0135C41.9125 25.5964 41.567 25.2583 41.1408 25.2583C40.7146 25.2583 40.3691 25.5964 40.3691 26.0135C40.3691 26.4306 40.7146 26.7687 41.1408 26.7687Z" fill="#302793"/>
<path d="M17.0112 11.8568C17.4208 11.8568 17.7529 11.5323 17.7529 11.132C17.7529 10.7317 17.4208 10.4072 17.0112 10.4072C16.6016 10.4072 16.2695 10.7317 16.2695 11.132C16.2695 11.5323 16.6016 11.8568 17.0112 11.8568Z" fill="#B1A9FF"/>
<path d="M60.0287 25.2808C60.7963 25.2808 61.4187 24.6719 61.4187 23.9208C61.4187 23.1697 60.7963 22.5608 60.0287 22.5608C59.261 22.5608 58.6387 23.1697 58.6387 23.9208C58.6387 24.6719 59.261 25.2808 60.0287 25.2808Z" fill="#B1A9FF"/>
<path d="M57.8055 8.25508L58.4319 7.82402C58.6945 7.63889 58.8734 7.22042 58.7041 6.98538C58.5347 6.75033 58.0651 6.77623 57.8021 6.95817L57.1758 7.38924L55.4753 6.88159C55.4287 6.86906 55.3797 6.86645 55.3319 6.87394C55.2841 6.88143 55.2385 6.89885 55.1984 6.92497L55.0107 7.05652C54.9438 7.10603 54.8989 7.1781 54.8852 7.25816C54.8715 7.33821 54.89 7.42027 54.9369 7.48774C54.968 7.53202 55.0109 7.56745 55.0611 7.59034L56.2149 8.12302L55.8797 8.38561L55.2493 8.32838C55.2174 8.32044 55.1841 8.31932 55.1517 8.3251C55.1193 8.33089 55.0886 8.34344 55.0618 8.36186L54.9491 8.43984C54.8928 8.4796 54.8548 8.5389 54.8434 8.60512C54.8319 8.67133 54.8478 8.73923 54.8877 8.79435C54.9074 8.8202 54.9317 8.84244 54.9596 8.86002L55.5308 9.12849L55.6968 9.77857C55.7055 9.81101 55.7209 9.84146 55.742 9.86814C55.7631 9.89482 55.7895 9.91721 55.8197 9.934C55.8499 9.95079 55.8833 9.96165 55.9179 9.96594C55.9526 9.97024 55.9877 9.96789 56.0214 9.95902C56.0515 9.95163 56.0797 9.93863 56.1046 9.92076L56.2156 9.84294C56.243 9.8244 56.2658 9.80031 56.2823 9.77238C56.2989 9.74445 56.3089 9.71337 56.3115 9.68133L56.4221 9.11649L56.7565 8.91185L56.9074 10.1276C56.9132 10.1818 56.9337 10.2336 56.9669 10.2779C57 10.3222 57.0447 10.3573 57.0965 10.3798C57.1482 10.4023 57.2052 10.4115 57.2617 10.4062C57.3183 10.401 57.3724 10.3817 57.4187 10.3501L57.6034 10.2221C57.6427 10.1939 57.675 10.1577 57.698 10.1161C57.721 10.0745 57.7342 10.0285 57.7366 9.98146L57.8055 8.25508Z" fill="#8C81F7"/>
<path d="M30.9874 20.3894C30.9874 20.3894 19.9041 16.1974 25.3858 9.66944C30.5691 3.50624 47.0858 15.0262 54.6541 9.86144" stroke="#8C81F7" stroke-miterlimit="10" stroke-dasharray="3 3"/>
<g style="mix-blend-mode:multiply" opacity="0.24">
<path d="M19.6973 22.2551H50.6239" stroke="#8C81F7" stroke-miterlimit="10"/>
</g>
<path d="M12.3833 22.6294C12.3836 22.2221 12.2849 21.8203 12.095 21.456C11.9051 21.0917 11.6292 20.775 11.2893 20.5311C10.9495 20.2872 10.555 20.1227 10.1373 20.0509C9.71963 19.9791 9.29025 20.0019 8.88333 20.1174C8.61719 19.4789 8.12854 18.9488 7.50073 18.6175C6.87292 18.2862 6.14482 18.1742 5.44063 18.3007C4.73644 18.4272 4.09976 18.7843 3.63918 19.3111C3.17861 19.8378 2.92266 20.5017 2.915 21.1894C2.67999 21.1096 2.43262 21.0685 2.18333 21.0678C1.60428 21.0678 1.04894 21.2887 0.639483 21.6817C0.230029 22.0748 0 22.6079 0 23.1638C0 23.7197 0.230029 24.2529 0.639483 24.6459C1.04894 25.039 1.60428 25.2598 2.18333 25.2598H9.83333C10.5276 25.2162 11.1783 24.9196 11.6523 24.4306C12.1263 23.9417 12.3878 23.2973 12.3833 22.6294V22.6294Z" fill="#B1A9FF"/>
<path d="M58.6172 14.1496C58.6174 13.9547 58.665 13.7624 58.7561 13.5882C58.8473 13.414 58.9795 13.2625 59.1422 13.1459C59.3049 13.0293 59.4938 12.9507 59.6937 12.9163C59.8936 12.882 60.0991 12.8928 60.2939 12.948C60.4219 12.6444 60.6553 12.3925 60.9546 12.2351C61.2539 12.0776 61.6007 12.0244 61.9362 12.0842C62.2717 12.1441 62.5754 12.3134 62.7958 12.5636C63.0161 12.8137 63.1397 13.1293 63.1455 13.4568C63.2579 13.4183 63.3762 13.3983 63.4955 13.3976C63.7727 13.3976 64.0385 13.5033 64.2345 13.6915C64.4304 13.8796 64.5405 14.1348 64.5405 14.4008C64.5405 14.6669 64.4304 14.9221 64.2345 15.1102C64.0385 15.2983 63.7727 15.404 63.4955 15.404H59.8289C59.4989 15.3813 59.1902 15.2392 58.9653 15.0063C58.7403 14.7734 58.6159 14.4672 58.6172 14.1496V14.1496Z" fill="#B1A9FF"/>
</svg>
