<svg width="24" height="24" viewBox="0 0 24 24" fill="none" xmlns="http://www.w3.org/2000/svg">
<g clip-path="url(#clip0_5_33)">
<path d="M15.7733 6.66666H10V5.33333H15.1867C14.9982 4.66242 14.9537 3.95926 15.0559 3.26993C15.1582 2.5806 15.4049 1.92065 15.78 1.33333H5.33333C4.97971 1.33333 4.64057 1.4738 4.39052 1.72385C4.14048 1.9739 4 2.31304 4 2.66666V21.3333C4 21.687 4.14048 22.0261 4.39052 22.2761C4.64057 22.5262 4.97971 22.6667 5.33333 22.6667H18.6667C19.0203 22.6667 19.3594 22.5262 19.6095 22.2761C19.8595 22.0261 20 21.687 20 21.3333V9C19.1557 9.00013 18.3251 8.78617 17.5859 8.37811C16.8467 7.97005 16.2231 7.38122 15.7733 6.66666ZM8.66667 17.3333H7.33333V16H8.66667V17.3333ZM8.66667 14.6667H7.33333V13.3333H8.66667V14.6667ZM8.66667 12H7.33333V10.6667H8.66667V12ZM8.66667 9.33333H7.33333V8H8.66667V9.33333ZM8.66667 6.66666H7.33333V5.33333H8.66667V6.66666ZM16.6667 17.3333H10V16H16.6667V17.3333ZM16.6667 14.6667H10V13.3333H16.6667V14.6667ZM16.6667 12H10V10.6667H16.6667V12ZM16.6667 9.33333H10V8H16.6667V9.33333Z" fill="#8C81F7"/>
<path d="M20 7.33334C21.8409 7.33334 23.3333 5.84095 23.3333 4C23.3333 2.15906 21.8409 0.666672 20 0.666672C18.159 0.666672 16.6666 2.15906 16.6666 4C16.6666 5.84095 18.159 7.33334 20 7.33334Z" fill="#8C81F7"/>
</g>
<defs>
<clipPath id="clip0_5_33">
<rect width="24" height="24" fill="white"/>
</clipPath>
</defs>
</svg>
