<svg width="24" height="24" viewBox="0 0 24 24" fill="none" xmlns="http://www.w3.org/2000/svg">
<path d="M7.1875 13.5C9.17227 13.5 10.7812 11.8211 10.7812 9.75C10.7812 7.67893 9.17227 6 7.1875 6C5.20273 6 3.59375 7.67893 3.59375 9.75C3.59375 11.8211 5.20273 13.5 7.1875 13.5Z" stroke="#8C81F7" stroke-width="2" stroke-linecap="round" stroke-linejoin="round"/>
<path d="M13.6562 7.5H22.2812" stroke="#8C81F7" stroke-width="2" stroke-linecap="round" stroke-linejoin="round"/>
<path d="M13.6562 12H22.2812" stroke="#8C81F7" stroke-width="2" stroke-linecap="round" stroke-linejoin="round"/>
<path d="M15.8125 16.5H22.2812" stroke="#8C81F7" stroke-width="2" stroke-linecap="round" stroke-linejoin="round"/>
<path d="M1.61719 18C1.93387 16.7094 2.6532 15.5654 3.66176 14.7485C4.67032 13.9316 5.91076 13.4882 7.1875 13.4882C8.46424 13.4882 9.70468 13.9316 10.7132 14.7485C11.7218 15.5654 12.4411 16.7094 12.7578 18" stroke="#8C81F7" stroke-width="2" stroke-linecap="round" stroke-linejoin="round"/>
</svg>
