<svg width="24" height="25" viewBox="0 0 24 25" fill="none" xmlns="http://www.w3.org/2000/svg">
<g clip-path="url(#clip0_4_794)">
<path d="M15.7733 7.16666H10V5.83333H15.1867C14.9982 5.16242 14.9537 4.45926 15.0559 3.76993C15.1582 3.0806 15.4049 2.42065 15.78 1.83333H5.33333C4.97971 1.83333 4.64057 1.9738 4.39052 2.22385C4.14048 2.4739 4 2.81304 4 3.16666V21.8333C4 22.187 4.14048 22.5261 4.39052 22.7761C4.64057 23.0262 4.97971 23.1667 5.33333 23.1667H18.6667C19.0203 23.1667 19.3594 23.0262 19.6095 22.7761C19.8595 22.5261 20 22.187 20 21.8333V9.5C19.1557 9.50013 18.3251 9.28617 17.5859 8.87811C16.8467 8.47005 16.2231 7.88122 15.7733 7.16666V7.16666ZM8.66667 17.8333H7.33333V16.5H8.66667V17.8333ZM8.66667 15.1667H7.33333V13.8333H8.66667V15.1667ZM8.66667 12.5H7.33333V11.1667H8.66667V12.5ZM8.66667 9.83333H7.33333V8.5H8.66667V9.83333ZM8.66667 7.16666H7.33333V5.83333H8.66667V7.16666ZM16.6667 17.8333H10V16.5H16.6667V17.8333ZM16.6667 15.1667H10V13.8333H16.6667V15.1667ZM16.6667 12.5H10V11.1667H16.6667V12.5ZM16.6667 9.83333H10V8.5H16.6667V9.83333Z" fill="#8C81F7"/>
<path d="M20 7.83334C21.8409 7.83334 23.3333 6.34095 23.3333 4.5C23.3333 2.65906 21.8409 1.16667 20 1.16667C18.159 1.16667 16.6666 2.65906 16.6666 4.5C16.6666 6.34095 18.159 7.83334 20 7.83334Z" fill="#8C81F7"/>
</g>
<defs>
<clipPath id="clip0_4_794">
<rect width="24" height="24" fill="white" transform="translate(0 0.5)"/>
</clipPath>
</defs>
</svg>
