<svg width="24" height="25" viewBox="0 0 24 25" fill="none" xmlns="http://www.w3.org/2000/svg">
<path d="M9.75 17C11.4069 17 12.75 15.6569 12.75 14C12.75 12.3431 11.4069 11 9.75 11C8.09315 11 6.75 12.3431 6.75 14C6.75 15.6569 8.09315 17 9.75 17Z" stroke="#8C81F7" stroke-width="1.5" stroke-linecap="round" stroke-linejoin="round"/>
<path d="M5.00625 20C5.43196 19.1022 6.1037 18.3436 6.94343 17.8124C7.78315 17.2813 8.75638 16.9993 9.75 16.9993C10.7436 16.9993 11.7168 17.2813 12.5566 17.8124C13.3963 18.3436 14.068 19.1022 14.4938 20H20.25C20.4489 20 20.6397 19.921 20.7803 19.7803C20.921 19.6397 21 19.4489 21 19.25V5.75C21 5.55109 20.921 5.36032 20.7803 5.21967C20.6397 5.07902 20.4489 5 20.25 5H3.75C3.55109 5 3.36032 5.07902 3.21967 5.21967C3.07902 5.36032 3 5.55109 3 5.75V19.25C3 19.4489 3.07902 19.6397 3.21967 19.7803C3.36032 19.921 3.55109 20 3.75 20H5.00625Z" stroke="#8C81F7" stroke-width="1.5" stroke-linecap="round" stroke-linejoin="round"/>
<path d="M16.5 17H18V8H6V9.5" stroke="#8C81F7" stroke-width="1.5" stroke-linecap="round" stroke-linejoin="round"/>
</svg>
