<svg width="24" height="25" viewBox="0 0 24 25" fill="none" xmlns="http://www.w3.org/2000/svg">
<path fill-rule="evenodd" clip-rule="evenodd" d="M4 3C3.46957 3 2.96086 3.21071 2.58579 3.58579C2.21071 3.96086 2 4.46957 2 5V15.6667C2 16.1971 2.21071 16.7058 2.58579 17.0809C2.96086 17.456 3.46957 17.6667 4 17.6667H8.66667V21.6667H4.66667V23H19.3333V21.6667H15.3333V17.6667H20C20.5304 17.6667 21.0391 17.456 21.4142 17.0809C21.7893 16.7058 22 16.1971 22 15.6667V5C22 4.46957 21.7893 3.96086 21.4142 3.58579C21.0391 3.21071 20.5304 3 20 3H4ZM10 21.6667V17.6667H14V21.6667H10Z" fill="#8C81F7"/>
<path d="M15.7119 12.7051L14.6348 12.083C14.6171 12.0729 14.5975 12.0663 14.5773 12.0637C14.5571 12.0612 14.5366 12.0626 14.5169 12.0679C14.4972 12.0733 14.4788 12.0824 14.4626 12.0949C14.4465 12.1074 14.433 12.1229 14.4229 12.1406L14.2285 12.4775C14.1855 12.5518 14.2109 12.6475 14.2852 12.6904L15.3623 13.3125C15.38 13.3226 15.3995 13.3292 15.4197 13.3318C15.44 13.3344 15.4605 13.3329 15.4802 13.3276C15.4999 13.3222 15.5183 13.3131 15.5344 13.3006C15.5506 13.2881 15.5641 13.2726 15.5742 13.2549L15.7686 12.918C15.8115 12.8437 15.7852 12.748 15.7119 12.7051ZM14.4219 8.85938C14.432 8.87707 14.4455 8.8926 14.4617 8.90508C14.4778 8.91755 14.4962 8.92673 14.5159 8.93208C14.5356 8.93743 14.5561 8.93885 14.5763 8.93626C14.5966 8.93367 14.6161 8.92713 14.6338 8.91699L15.7109 8.29492C15.7852 8.25195 15.8105 8.15625 15.7676 8.08203L15.5742 7.74609C15.5641 7.72839 15.5506 7.71286 15.5344 7.70039C15.5183 7.68792 15.4999 7.67874 15.4802 7.67339C15.4605 7.66804 15.44 7.66662 15.4197 7.66921C15.3995 7.6718 15.38 7.67834 15.3623 7.68848L14.2852 8.31055C14.2495 8.33134 14.2235 8.36541 14.2129 8.4053C14.2023 8.4452 14.2079 8.48767 14.2285 8.52344L14.4219 8.85938ZM16.1211 10.1484H14.8711C14.7852 10.1484 14.7148 10.2187 14.7148 10.3047V10.6953C14.7148 10.7813 14.7852 10.8516 14.8711 10.8516H16.1211C16.207 10.8516 16.2773 10.7813 16.2773 10.6953V10.3047C16.2773 10.2187 16.207 10.1484 16.1211 10.1484ZM13.1123 6.62305C13.0547 6.62305 12.9961 6.63867 12.9424 6.6748L9.48047 8.9375H7.87891C7.79297 8.9375 7.72266 9.00781 7.72266 9.09375V11.9062C7.72266 11.9922 7.79297 12.0625 7.87891 12.0625H9.48047L12.9424 14.3252C12.9961 14.3604 13.0557 14.377 13.1123 14.377C13.2754 14.377 13.4258 14.2471 13.4258 14.0635V6.93652C13.4258 6.75293 13.2754 6.62305 13.1123 6.62305Z" fill="white"/>
</svg>
