<svg width="16" height="40" viewBox="0 0 16 40" fill="none" xmlns="http://www.w3.org/2000/svg">
<path d="M9.5 25C9.5 25.3978 9.34196 25.7794 9.06066 26.0607C8.77936 26.342 8.39782 26.5 8 26.5C7.60218 26.5 7.22064 26.342 6.93934 26.0607C6.65804 25.7794 6.5 25.3978 6.5 25C6.5 24.6022 6.65804 24.2206 6.93934 23.9393C7.22064 23.658 7.60218 23.5 8 23.5C8.39782 23.5 8.77936 23.658 9.06066 23.9393C9.34196 24.2206 9.5 24.6022 9.5 25ZM9.5 20C9.5 20.3978 9.34196 20.7794 9.06066 21.0607C8.77936 21.342 8.39782 21.5 8 21.5C7.60218 21.5 7.22064 21.342 6.93934 21.0607C6.65804 20.7794 6.5 20.3978 6.5 20C6.5 19.6022 6.65804 19.2206 6.93934 18.9393C7.22064 18.658 7.60218 18.5 8 18.5C8.39782 18.5 8.77936 18.658 9.06066 18.9393C9.34196 19.2206 9.5 19.6022 9.5 20ZM9.5 15C9.5 15.3978 9.34196 15.7794 9.06066 16.0607C8.77936 16.342 8.39782 16.5 8 16.5C7.60218 16.5 7.22064 16.342 6.93934 16.0607C6.65804 15.7794 6.5 15.3978 6.5 15C6.5 14.6022 6.65804 14.2206 6.93934 13.9393C7.22064 13.658 7.60218 13.5 8 13.5C8.39782 13.5 8.77936 13.658 9.06066 13.9393C9.34196 14.2206 9.5 14.6022 9.5 15Z" fill="black"/>
</svg>
