<svg width="8" height="5" viewBox="0 0 8 5" fill="none" xmlns="http://www.w3.org/2000/svg">
<path d="M0.176092 0.1912C0.288878 0.0687746 0.441828 -6.14455e-08 0.601307 -8.36244e-08C0.760787 -1.05803e-07 0.913737 0.0687745 1.02652 0.191199L4.00363 3.42372L6.98074 0.191199C7.09417 0.0722432 7.2461 0.00642074 7.40379 0.00790861C7.56148 0.00939647 7.71233 0.0780755 7.82384 0.199153C7.93535 0.320231 7.99861 0.48402 7.99998 0.655243C8.00135 0.826467 7.94073 0.991424 7.83117 1.11459L4.42885 4.8088C4.31606 4.93123 4.16311 5 4.00363 5C3.84415 5 3.6912 4.93123 3.57842 4.8088L0.176092 1.11459C0.0633406 0.992127 1.1488e-07 0.826055 9.07986e-08 0.652894C6.67169e-08 0.479733 0.0633405 0.313661 0.176092 0.1912V0.1912Z" fill="#8C81F7"/>
</svg>
