<svg width="112" height="24" viewBox="0 0 112 24" fill="none" xmlns="http://www.w3.org/2000/svg">
<path d="M8.096 12.2079C8.75733 12.3572 9.28 12.6879 9.664 13.1999C10.0587 13.7012 10.256 14.2772 10.256 14.9279C10.256 15.8879 9.92533 16.6399 9.264 17.1839C8.60267 17.7279 7.67467 17.9999 6.48 17.9999H0.895996V6.71994H6.304C7.456 6.71994 8.35733 6.97595 9.008 7.48795C9.66933 7.99995 10 8.71994 10 9.64794C10 10.3092 9.824 10.8639 9.472 11.3119C9.13067 11.7492 8.672 12.0479 8.096 12.2079ZM4.032 11.1999H5.616C6.40533 11.1999 6.8 10.8746 6.8 10.2239C6.8 9.55195 6.40533 9.21594 5.616 9.21594H4.032V11.1999ZM5.856 15.4719C6.64533 15.4719 7.04 15.1412 7.04 14.4799C7.04 14.1386 6.93333 13.8772 6.72 13.6959C6.51733 13.5146 6.224 13.4239 5.84 13.4239H4.032V15.4719H5.856ZM17.3424 17.9999L15.1024 13.8399H14.7664V17.9999H11.6304V6.71994H16.5744C17.481 6.71994 18.249 6.87994 18.8784 7.19994C19.5077 7.50927 19.9824 7.94128 20.3024 8.49595C20.6224 9.03995 20.7824 9.65328 20.7824 10.3359C20.7824 11.1039 20.569 11.7812 20.1424 12.3679C19.7264 12.9439 19.113 13.3546 18.3024 13.5999L20.8464 17.9999H17.3424ZM14.7664 11.6959H16.3184C16.745 11.6959 17.065 11.5946 17.2784 11.3919C17.4917 11.1892 17.5984 10.8959 17.5984 10.5119C17.5984 10.1492 17.4864 9.86661 17.2624 9.66394C17.049 9.45061 16.7344 9.34395 16.3184 9.34395H14.7664V11.6959ZM29.3445 16.1599H25.3445L24.7365 17.9999H21.4405L25.5525 6.71994H29.1685L33.2645 17.9999H29.9525L29.3445 16.1599ZM28.5605 13.7599L27.3445 10.1119L26.1445 13.7599H28.5605ZM45.2626 6.71994L41.3746 17.9999H37.3586L33.4546 6.71994H36.8146L39.3746 14.8639L41.9186 6.71994H45.2626ZM51.6478 18.1119C50.5918 18.1119 49.6211 17.8666 48.7358 17.3759C47.8504 16.8746 47.1464 16.1866 46.6238 15.3119C46.1118 14.4266 45.8558 13.4292 45.8558 12.3199C45.8558 11.2106 46.1118 10.2186 46.6238 9.34395C47.1464 8.45862 47.8504 7.77062 48.7358 7.27995C49.6211 6.78928 50.5918 6.54395 51.6478 6.54395C52.7144 6.54395 53.6851 6.78928 54.5598 7.27995C55.4451 7.77062 56.1438 8.45862 56.6558 9.34395C57.1678 10.2186 57.4238 11.2106 57.4238 12.3199C57.4238 13.4292 57.1678 14.4266 56.6558 15.3119C56.1438 16.1866 55.4451 16.8746 54.5598 17.3759C53.6744 17.8666 52.7038 18.1119 51.6478 18.1119ZM51.6478 15.1999C52.4478 15.1999 53.0771 14.9386 53.5358 14.4159C54.0051 13.8932 54.2398 13.1946 54.2398 12.3199C54.2398 11.4239 54.0051 10.7199 53.5358 10.2079C53.0771 9.68528 52.4478 9.42394 51.6478 9.42394C50.8371 9.42394 50.2024 9.68528 49.7438 10.2079C49.2851 10.7199 49.0558 11.4239 49.0558 12.3199C49.0558 13.2052 49.2851 13.9092 49.7438 14.4319C50.2024 14.9439 50.8371 15.1999 51.6478 15.1999Z" fill="black"/>
<path d="M63.1521 18.1119C61.8401 18.1119 60.7628 17.8026 59.9201 17.1839C59.0774 16.5546 58.6241 15.6586 58.5601 14.4959H61.9041C61.9361 14.8906 62.0534 15.1786 62.2561 15.3599C62.4588 15.5412 62.7201 15.6319 63.0401 15.6319C63.3281 15.6319 63.5628 15.5626 63.7441 15.4239C63.9361 15.2746 64.0321 15.0719 64.0321 14.8159C64.0321 14.4852 63.8774 14.2292 63.5681 14.0479C63.2588 13.8666 62.7574 13.6639 62.0641 13.4399C61.3281 13.1946 60.7308 12.9599 60.2721 12.7359C59.8241 12.5012 59.4294 12.1652 59.0881 11.7279C58.7574 11.2799 58.5921 10.6986 58.5921 9.98393C58.5921 9.2586 58.7734 8.63993 59.1361 8.12793C59.4988 7.60526 60.0001 7.2106 60.6401 6.94393C61.2801 6.67726 62.0054 6.54393 62.8161 6.54393C64.1281 6.54393 65.1734 6.85326 65.9521 7.47193C66.7414 8.07993 67.1628 8.9386 67.2161 10.0479H63.8081C63.7974 9.7066 63.6908 9.4506 63.4881 9.27993C63.2961 9.10926 63.0454 9.02393 62.7361 9.02393C62.5014 9.02393 62.3094 9.09326 62.1601 9.23193C62.0108 9.3706 61.9361 9.56793 61.9361 9.82393C61.9361 10.0372 62.0161 10.2239 62.1761 10.3839C62.3468 10.5332 62.5548 10.6666 62.8001 10.7839C63.0454 10.8906 63.4081 11.0292 63.8881 11.1999C64.6028 11.4452 65.1894 11.6906 65.6481 11.9359C66.1174 12.1706 66.5174 12.5066 66.8481 12.9439C67.1894 13.3706 67.3601 13.9146 67.3601 14.5759C67.3601 15.2479 67.1894 15.8506 66.8481 16.3839C66.5174 16.9172 66.0321 17.3386 65.3921 17.6479C64.7628 17.9572 64.0161 18.1119 63.1521 18.1119ZM75.954 16.1599H71.954L71.346 17.9999H68.05L72.162 6.71993H75.778L79.874 17.9999H76.562L75.954 16.1599ZM75.17 13.7599L73.954 10.1119L72.754 13.7599H75.17ZM83.9681 6.71993V13.2639C83.9681 13.8719 84.1068 14.3412 84.3841 14.6719C84.6721 15.0026 85.1041 15.1679 85.6801 15.1679C86.2561 15.1679 86.6881 15.0026 86.9761 14.6719C87.2748 14.3306 87.4241 13.8612 87.4241 13.2639V6.71993H90.5601V13.2639C90.5601 14.2986 90.3414 15.1839 89.9041 15.9199C89.4668 16.6452 88.8694 17.1946 88.1121 17.5679C87.3654 17.9306 86.5334 18.1119 85.6161 18.1119C84.6988 18.1119 83.8774 17.9306 83.1521 17.5679C82.4374 17.1946 81.8721 16.6452 81.4561 15.9199C81.0508 15.1946 80.8481 14.3092 80.8481 13.2639V6.71993H83.9681ZM87.6641 4.49593L83.6641 6.06393V3.93593L87.6641 2.12793V4.49593ZM96.7507 6.71993C97.9347 6.71993 98.9694 6.95993 99.8547 7.43993C100.751 7.90926 101.439 8.5706 101.919 9.42393C102.399 10.2772 102.639 11.2532 102.639 12.3519C102.639 13.4399 102.393 14.4106 101.903 15.2639C101.423 16.1172 100.735 16.7892 99.8387 17.2799C98.9534 17.7599 97.9241 17.9999 96.7507 17.9999H92.2867V6.71993H96.7507ZM96.5107 15.2319C97.4281 15.2319 98.1481 14.9812 98.6707 14.4799C99.1934 13.9786 99.4547 13.2692 99.4547 12.3519C99.4547 11.4239 99.1934 10.7092 98.6707 10.2079C98.1481 9.69593 97.4281 9.43993 96.5107 9.43993H95.4227V15.2319H96.5107ZM107.188 9.23193V11.0719H110.788V13.4559H107.188V15.4879H111.268V17.9999H104.052V6.71993H111.268V9.23193H107.188Z" fill="#6B4BC7"/>
</svg>
