<svg width="18" height="16" viewBox="0 0 18 16" fill="none" xmlns="http://www.w3.org/2000/svg">
<path d="M16.78 12.7517C17.2466 11.8689 17.4936 10.8841 17.4999 9.88268C17.5061 8.88123 17.2713 7.89335 16.8158 7.00469C16.3603 6.11603 15.6979 5.35341 14.8859 4.78296C14.074 4.2125 13.137 3.85143 12.1563 3.73104C11.8334 2.96754 11.3614 2.27818 10.7688 1.70445C10.1762 1.13072 9.4752 0.684481 8.70801 0.3926C7.94082 0.10072 7.1233 -0.0307682 6.30467 0.00605152C5.48603 0.0428712 4.68321 0.247237 3.94453 0.606847C3.20586 0.966457 2.54659 1.47387 2.00643 2.09856C1.46627 2.72324 1.05638 3.45226 0.801441 4.24174C0.546498 5.03123 0.451773 5.86485 0.522969 6.69242C0.594164 7.51999 0.829807 8.3244 1.21571 9.05722L0.744988 10.7197C0.690429 10.9047 0.686242 11.1011 0.732869 11.2883C0.779496 11.4754 0.8752 11.6463 1.00984 11.7828C1.14448 11.9193 1.31303 12.0163 1.49764 12.0636C1.68225 12.1108 1.87604 12.1066 2.05846 12.0513L3.69841 11.5741C4.36445 11.934 5.09028 12.1662 5.83945 12.2591C6.17037 13.0453 6.65913 13.753 7.27463 14.3373C7.89013 14.9215 8.61887 15.3694 9.41448 15.6525C10.2101 15.9356 11.0551 16.0477 11.8958 15.9816C12.7364 15.9154 13.5543 15.6726 14.2973 15.2685L15.9373 15.7457C16.1197 15.8011 16.3135 15.8053 16.4981 15.758C16.6827 15.7108 16.8513 15.6137 16.9859 15.4772C17.1205 15.3408 17.2162 15.1699 17.2629 14.9827C17.3095 14.7956 17.3053 14.5991 17.2508 14.4142L16.78 12.7517ZM15.6108 12.3592C15.5666 12.4292 15.5377 12.508 15.5259 12.5903C15.5141 12.6726 15.5198 12.7565 15.5425 12.8364L16.0132 14.4912L14.3884 14.014C14.3084 13.9903 14.2244 13.9842 14.1419 13.9962C14.0594 14.0081 13.9804 14.0378 13.9101 14.0832C13.3535 14.4162 12.7372 14.6336 12.097 14.7228C11.4568 14.812 10.8054 14.7713 10.1809 14.603C9.5563 14.4347 8.971 14.1421 8.45899 13.7424C7.94699 13.3426 7.51851 12.8437 7.19848 12.2745C8.69127 12.1132 10.0727 11.3985 11.0774 10.2677C12.0822 9.13694 12.6394 7.66973 12.6422 6.14783C12.6402 5.77878 12.6071 5.41057 12.5435 5.04719C13.609 5.30211 14.5584 5.91436 15.2378 6.78469C15.9172 7.65502 16.2867 8.73243 16.2865 9.8423C16.2855 10.7272 16.0523 11.5958 15.6108 12.3592V12.3592Z" fill="#8C81F7"/>
</svg>
