<svg width="18" height="16" viewBox="0 0 18 16" fill="none" xmlns="http://www.w3.org/2000/svg">
<path d="M10.5009 16H7.49956C7.31151 16 7.12909 15.9377 6.98257 15.8233C6.83605 15.709 6.73422 15.5494 6.69398 15.3712L6.35838 13.864C5.9107 13.6737 5.4862 13.4357 5.09269 13.1544L3.57799 13.6224C3.3987 13.6779 3.20525 13.6722 3.02976 13.6063C2.85427 13.5403 2.7073 13.4181 2.61326 13.26L1.10927 10.7392C1.01622 10.5809 0.981286 10.3967 1.01019 10.2166C1.0391 10.0365 1.13014 9.87133 1.26841 9.748L2.4434 8.708C2.38997 8.23689 2.38997 7.76151 2.4434 7.2904L1.26841 6.2528C1.12994 6.12942 1.03878 5.96406 1.00987 5.78383C0.980956 5.60359 1.016 5.41918 1.10927 5.2608L2.60996 2.7384C2.704 2.58025 2.85097 2.45807 3.02646 2.39215C3.20195 2.32623 3.3954 2.32053 3.57469 2.376L5.08939 2.844C5.29058 2.7 5.50002 2.5656 5.71605 2.444C5.92467 2.3304 6.13905 2.2272 6.35838 2.1352L6.6948 0.6296C6.73485 0.451358 6.83648 0.29175 6.98285 0.177239C7.12922 0.0627279 7.31154 0.000191973 7.49956 0H10.5009C10.689 0.000191973 10.8713 0.0627279 11.0177 0.177239C11.164 0.29175 11.2657 0.451358 11.3057 0.6296L11.6454 2.136C12.0925 2.32741 12.5169 2.56534 12.9111 2.8456L14.4266 2.3776C14.6058 2.32233 14.7991 2.32814 14.9744 2.39405C15.1497 2.45996 15.2965 2.58202 15.3905 2.74L16.8912 5.2624C17.0825 5.588 17.0166 6 16.7321 6.2536L15.5571 7.2936C15.6105 7.76471 15.6105 8.24009 15.5571 8.7112L16.7321 9.7512C17.0166 10.0056 17.0825 10.4168 16.8912 10.7424L15.3905 13.2648C15.2965 13.4229 15.1495 13.5451 14.974 13.6111C14.7986 13.677 14.6051 13.6827 14.4258 13.6272L12.9111 13.1592C12.5179 13.4403 12.0937 13.678 11.6462 13.868L11.3057 15.3712C11.2655 15.5493 11.1638 15.7087 11.0174 15.8231C10.8711 15.9374 10.6889 15.9998 10.5009 16V16ZM8.99696 4.8C8.12221 4.8 7.2833 5.13714 6.66476 5.73726C6.04623 6.33737 5.69874 7.15131 5.69874 8C5.69874 8.84869 6.04623 9.66263 6.66476 10.2627C7.2833 10.8629 8.12221 11.2 8.99696 11.2C9.8717 11.2 10.7106 10.8629 11.3291 10.2627C11.9477 9.66263 12.2952 8.84869 12.2952 8C12.2952 7.15131 11.9477 6.33737 11.3291 5.73726C10.7106 5.13714 9.8717 4.8 8.99696 4.8V4.8Z" fill="#AFAFAF"/>
</svg>
