<svg width="13" height="16" viewBox="0 0 13 16" fill="none" xmlns="http://www.w3.org/2000/svg">
<path d="M13 12.6429V13.3571H0V12.6429L1.44444 11.2143V6.92857C1.44444 4.71429 2.91056 2.76429 5.05556 2.13571V1.92857C5.05556 1.54969 5.20774 1.18633 5.47862 0.918419C5.74951 0.65051 6.11691 0.5 6.5 0.5C6.88309 0.5 7.25049 0.65051 7.52138 0.918419C7.79226 1.18633 7.94444 1.54969 7.94444 1.92857V2.13571C10.0894 2.76429 11.5556 4.71429 11.5556 6.92857V11.2143L13 12.6429ZM7.94444 14.0714C7.94444 14.4503 7.79226 14.8137 7.52138 15.0816C7.25049 15.3495 6.88309 15.5 6.5 15.5C6.11691 15.5 5.74951 15.3495 5.47862 15.0816C5.20774 14.8137 5.05556 14.4503 5.05556 14.0714" fill="#8C81F7"/>
</svg>
